<?xml version="1.0" encoding="UTF-8" standalone="no"?>
<!-- Created with Inkscape (http://www.inkscape.org/) -->

<svg
   inkscape:version="1.3.2 (091e20e, 2023-11-25, custom)"
   sodipodi:docname="3d_view_tiny.svg"
   id="svg5"
   version="1.1"
   viewBox="0 0 400.00001 400.00001"
   height="400mm"
   width="400mm"
   xmlns:inkscape="http://www.inkscape.org/namespaces/inkscape"
   xmlns:sodipodi="http://sodipodi.sourceforge.net/DTD/sodipodi-0.dtd"
   xmlns:xlink="http://www.w3.org/1999/xlink"
   xmlns="http://www.w3.org/2000/svg"
   xmlns:svg="http://www.w3.org/2000/svg">
  <sodipodi:namedview
     id="namedview7"
     pagecolor="#ffffff"
     bordercolor="#666666"
     borderopacity="1.0"
     inkscape:pageshadow="2"
     inkscape:pageopacity="0.0"
     inkscape:pagecheckerboard="0"
     inkscape:document-units="mm"
     showgrid="false"
     inkscape:zoom="0.38109243"
     inkscape:cx="381.79714"
     inkscape:cy="2398.3683"
     inkscape:window-width="1920"
     inkscape:window-height="1057"
     inkscape:window-x="1672"
     inkscape:window-y="-8"
     inkscape:window-maximized="1"
     inkscape:current-layer="layer1"
     units="mm"
     inkscape:snap-global="false"
     inkscape:lockguides="true"
     inkscape:showpageshadow="2"
     inkscape:deskcolor="#d1d1d1" />
  <defs
     id="defs2">
    <rect
       x="-2264.5425"
       y="1285.7773"
       width="467.07829"
       height="188.93054"
       id="rect234" />
    <rect
       x="-2330.1434"
       y="1277.9052"
       width="624.5204"
       height="128.57773"
       id="rect233" />
    <rect
       x="-1167.6985"
       y="2781.9722"
       width="915.73975"
       height="479.59045"
       id="rect19054" />
    <rect
       x="-3504.2572"
       y="1277.8497"
       width="655.08077"
       height="76.179509"
       id="rect2272" />
    <linearGradient
       inkscape:collect="always"
       id="linearGradient4176">
      <stop
         style="stop-color:#a7a5a6;stop-opacity:1;"
         offset="0"
         id="stop4178" />
      <stop
         style="stop-color:#a7a5a6;stop-opacity:0;"
         offset="1"
         id="stop4180" />
    </linearGradient>
    <linearGradient
       inkscape:collect="always"
       xlink:href="#linearGradient4176"
       id="linearGradient22661"
       gradientUnits="userSpaceOnUse"
       gradientTransform="matrix(2.0174015,0,0,-2.0174015,-46.989405,-1072.715)"
       x1="159.48534"
       y1="-368.23074"
       x2="559.06055"
       y2="-1070.6394" />
    <rect
       x="-3504.2572"
       y="1277.8497"
       width="362.63847"
       height="117.65695"
       id="rect10636" />
  </defs>
  <g
     inkscape:groupmode="layer"
     id="layer3"
     inkscape:label="base"
     style="display:none;opacity:0.378753"
     sodipodi:insensitive="true">
    <circle
       style="display:inline;opacity:0.983834;fill:#ac9d93;stroke:#241f1c;stroke-width:1.49999"
       id="path1062"
       cx="-5.6843419e-14"
       cy="400"
       r="399.25" />
  </g>
  <g
     inkscape:label="Layer 1"
     inkscape:groupmode="layer"
     id="layer1"
     style="display:inline">
    <g
       id="layer9"
       inkscape:label="LETTERS"
       style="display:none"
       transform="matrix(0.26458333,0,0,0.26458333,-115.35051,180.9592)">
      <path
         d="m 485.964,97.421643 h 65.35931 l 64.2798,135.148637 65.07272,-135.148623 h 64.56229 L 615.60311,351.694 v 0 L 485.964,97.421657 Z"
         style="fill:#008770;fill-opacity:1;fill-rule:nonzero;stroke:#231f20;stroke-width:13.2956;stroke-linecap:butt;stroke-linejoin:miter;stroke-miterlimit:4;stroke-dasharray:none;stroke-opacity:1"
         id="path5960"
         inkscape:connector-curvature="0" />
      <path
         d="m 1001.5016,97.421643 h 194.4553 L 1082.4914,297.67713 h 106.8137 V 351.694 H 984.0519 l 113.4518,-200.26639 h -96.0021 z"
         style="fill:#008770;fill-opacity:1;fill-rule:nonzero;stroke:#231f20;stroke-width:13.2956;stroke-linecap:butt;stroke-linejoin:miter;stroke-miterlimit:4;stroke-dasharray:none;stroke-opacity:1"
         id="path5962"
         inkscape:connector-curvature="0" />
      <path
         d="m 1628.2229,174.22716 c -6.9686,-11.54035 -19.6416,-19.25938 -34.1134,-19.25938 -21.9971,0 -39.8234,17.82364 -39.8234,39.80163 V 351.694 H 1490.301 V 194.7776 c 0,-57.04389 46.2651,-103.292615 103.2789,-103.292615 38.0984,0 71.3602,20.596835 89.2548,51.260075 z"
         style="fill:#008770;fill-opacity:1;fill-rule:nonzero;stroke:#231f20;stroke-width:13.2956;stroke-linecap:butt;stroke-linejoin:miter;stroke-miterlimit:4;stroke-dasharray:none;stroke-opacity:1"
         id="path5964"
         inkscape:connector-curvature="0" />
      <path
         d="m 1469.8297,225.00684 c 0,75.22509 -60.9798,136.20766 -136.2213,136.20766 -75.2223,0 -136.2185,-60.98257 -136.2185,-136.20766 0,-75.23877 60.9962,-136.221337 136.2185,-136.221337 75.2415,0 136.2213,60.982567 136.2213,136.221337 m -136.2404,-82.72579 c -45.6236,0 -82.6166,36.9902 -82.6166,82.61387 0,45.62364 36.993,82.61385 82.6166,82.61385 45.61,0 82.603,-36.99021 82.603,-82.61385 0,-45.62367 -36.993,-82.61387 -82.603,-82.61387 z"
         style="fill:#008770;fill-opacity:1;fill-rule:nonzero;stroke:#231f20;stroke-width:13.2956;stroke-linecap:butt;stroke-linejoin:miter;stroke-miterlimit:4;stroke-dasharray:none;stroke-opacity:1"
         id="path5966"
         inkscape:connector-curvature="0" />
      <path
         d="m 929.16705,265.82927 c -14.12244,24.38812 -40.52904,40.80336 -70.74324,40.80336 -45.11051,0 -81.68722,-36.58081 -81.68722,-81.69404 0,-45.12141 36.57671,-81.68582 81.68722,-81.68582 20.0359,0 38.38772,7.19768 52.59753,19.16382 l -100.11957,57.82453 27.23228,47.14397 149.2997,-86.11855 C 969.22797,127.49533 918.35139,88.785517 858.42381,88.785517 c -75.18282,0 -136.15174,60.952533 -136.15174,136.153073 0,75.19508 60.96892,136.14761 136.15174,136.14761 50.3716,0 94.36709,-27.34689 117.91178,-68.02467 z"
         style="fill:#008770;fill-opacity:1;fill-rule:nonzero;stroke:#231f20;stroke-width:12.8223;stroke-linecap:butt;stroke-linejoin:miter;stroke-miterlimit:4;stroke-dasharray:none;stroke-opacity:1"
         id="path5968"
         inkscape:connector-curvature="0" />
      <path
         d="m 441.34207,265.82927 c -14.13063,24.38812 -40.51128,40.80336 -70.72415,40.80336 -45.12958,0 -81.68718,-36.58081 -81.68718,-81.69404 0,-45.12141 36.5576,-81.68582 81.68718,-81.68582 20.03594,0 38.36862,7.19768 52.57979,19.16382 l -100.11955,57.82453 27.22818,47.14397 149.29971,-86.11855 C 481.41938,127.49533 430.54007,88.785517 370.61792,88.785517 c -75.19644,0 -136.15169,60.952533 -136.15169,136.153073 0,75.19508 60.95525,136.14761 136.15169,136.14761 50.37161,0 94.35892,-27.34689 117.89952,-68.02467 z"
         style="fill:#008770;fill-opacity:1;fill-rule:nonzero;stroke:#231f20;stroke-width:12.8223;stroke-linecap:butt;stroke-linejoin:miter;stroke-miterlimit:4;stroke-dasharray:none;stroke-opacity:1"
         id="path5970"
         inkscape:connector-curvature="0" />
    </g>
    <g
       id="layer8"
       inkscape:label="GEAR_GRAY"
       style="display:none"
       transform="matrix(0.26458333,0,0,0.26458333,-115.35051,180.9592)">
      <path
         d="m 1014.6078,-190.80977 c 0,0 19.6442,1.75507 53.9213,10.78155 32.2109,8.47511 52.0653,17.62437 52.0653,17.62437 -11.3956,25.37893 -1.957,55.76921 22.6576,69.987184 24.6229,14.212526 55.671,7.192237 71.9442,-15.380734 0,0 16.1396,11.338348 41.3111,36.294188 23.6484,23.449162 36.2887,41.30832 36.2887,41.30832 -22.5702,16.27876 -29.5878,47.324115 -15.378,71.941503 14.2153,24.617404 44.6137,34.056024 69.9954,22.660344 0,0 8.2949,17.87004 17.6162,52.065265 8.7644,32.13171 10.7706,53.90224 10.7706,53.90224 -27.6771,2.82229 -49.2784,26.19504 -49.2811,54.61734 0,28.43052 21.604,51.80599 49.2893,54.61738 0,0 -1.7523,19.64423 -10.7788,53.92133 -8.4778,32.2054 -17.6271,52.08165 -17.6271,52.08165 -25.3817,-11.40933 -55.7829,-1.96526 -69.9899,22.65759 -14.2153,24.61194 -7.1896,55.66004 15.3725,71.94151 0,0 -11.3329,16.11772 -36.286,41.28919 -23.4437,23.65387 -41.2947,36.28056 -41.2947,36.28056 -16.2814,-22.56206 -47.3241,-29.57962 -71.936,-15.37531 -24.6201,14.21802 -34.0642,44.62194 -22.6549,69.99811 0,0 -17.8919,8.30589 -52.0898,17.62715 -32.1317,8.75897 -53.9159,10.77882 -53.9159,10.77882 -2.8141,-27.68536 -26.18955,-49.28939 -54.61463,-49.29212 -28.42641,0.004 -51.80049,21.60676 -54.62281,49.29212 0,0 -21.73776,-2.10719 -53.8954,-10.77882 -31.40156,-8.46692 -52.07073,-17.61621 -52.07073,-17.61621 11.40115,-25.38166 1.95979,-55.78286 -22.65761,-69.99537 -24.61329,-14.21526 -55.66412,-7.19223 -71.94286,15.37802 0,0 -17.79089,-12.7031 -41.30694,-36.29421 -22.96194,-23.03427 -36.29419,-41.30557 -36.29419,-41.30557 22.57163,-16.27602 29.59053,-47.3214 15.38209,-71.94151 -14.21522,-24.61467 -44.60963,-34.06146 -69.99127,-22.66034 0,0 -9.05103,-19.87898 -17.62305,-52.06527 -8.37002,-31.43024 -10.77881,-53.89951 -10.77881,-53.89951 27.68127,-2.82502 49.28937,-26.20049 49.28937,-54.62554 0,-28.42231 -21.60402,-51.80052 -49.28937,-54.61461 0,0 2.11129,-21.75689 10.77881,-53.91588 8.46418,-31.405665 17.62305,-52.089825 17.62305,-52.089825 25.38164,11.41204 55.77875,1.96796 69.994,-22.649441 14.21253,-24.620118 7.18952,-55.660014 -15.36982,-71.941517 0,0 12.69355,-17.779952 36.27508,-41.294646 23.03839,-22.966055 41.29193,-36.288751 41.29193,-36.288751 16.28421,22.564805 47.32957,29.590566 71.95109,15.378013 24.61328,-14.215223 34.05871,-44.610973 22.65076,-69.992653 0,0 19.89807,-9.05376 52.08436,-17.62713 31.42615,-8.36864 53.92136,-10.77878 53.92136,-10.77878 2.81141,27.68535 26.18548,49.28665 54.61734,49.28936 28.41959,-0.004 51.79505,-21.60128 54.61195,-49.28118 m 114.2269,509.14513 c -32.2327,55.64092 -92.4264,93.07058 -161.35728,93.07058 -102.93093,0 -186.3623,-83.44089 -186.3623,-186.365 0,-102.92411 83.43137,-186.362278 186.3623,-186.362278 45.69738,0 87.54878,16.445263 119.96988,43.745743 L 859.05477,214.33312 921.17554,321.93012 1261.7752,125.43047 C 1220.2595,2.750207 1104.1928,-85.554679 967.49112,-85.554679 c -171.54243,0 -310.60379,139.062731 -310.60379,310.603809 0,171.5438 139.06136,310.60654 310.60379,310.60654 114.92568,0 215.26768,-62.41282 268.98978,-155.18593 l -107.6325,-62.12619 z"
         style="display:inline;fill:url(#linearGradient22661);fill-opacity:1;fill-rule:nonzero;stroke:none"
         id="path5990"
         inkscape:connector-curvature="0" />
    </g>
    <g
       id="layer7"
       inkscape:label="GEAR_GREEN"
       style="display:none"
       transform="matrix(0.26458333,0,0,0.26458333,-115.35051,180.9592)">
      <path
         inkscape:connector-curvature="0"
         id="path5926"
         style="fill:#068770;fill-opacity:1;fill-rule:nonzero;stroke:none"
         d="m 1014.6078,-190.80977 c 0,0 19.6442,1.75507 53.9213,10.78155 32.2109,8.47511 52.0653,17.62437 52.0653,17.62437 -11.3956,25.37893 -1.957,55.76921 22.6576,69.987184 24.6229,14.212526 55.671,7.192237 71.9442,-15.380734 0,0 16.1396,11.338348 41.3111,36.294188 23.6484,23.449162 36.2887,41.30832 36.2887,41.30832 -22.5702,16.27876 -29.5878,47.324115 -15.378,71.941503 14.2153,24.617404 44.6137,34.056024 69.9954,22.660344 0,0 8.2949,17.87004 17.6162,52.065265 8.7644,32.13171 10.7706,53.90224 10.7706,53.90224 -27.6771,2.82229 -49.2784,26.19504 -49.2811,54.61734 0,28.43052 21.604,51.80599 49.2893,54.61738 0,0 -1.7523,19.64423 -10.7788,53.92133 -8.4778,32.2054 -17.6271,52.08165 -17.6271,52.08165 -25.3817,-11.40933 -55.7829,-1.96526 -69.9899,22.65759 -14.2153,24.61194 -7.1896,55.66004 15.3725,71.94151 0,0 -11.3329,16.11772 -36.286,41.28919 -23.4437,23.65387 -41.2947,36.28056 -41.2947,36.28056 -16.2814,-22.56206 -47.3241,-29.57962 -71.936,-15.37531 -24.6201,14.21802 -34.0642,44.62194 -22.6549,69.99811 0,0 -17.8919,8.30589 -52.0898,17.62715 -32.1317,8.75897 -53.9159,10.77882 -53.9159,10.77882 -2.8141,-27.68536 -26.18955,-49.28939 -54.61463,-49.29212 -28.42641,0.004 -51.80049,21.60676 -54.62281,49.29212 0,0 -21.73776,-2.10719 -53.8954,-10.77882 -31.40156,-8.46692 -52.07073,-17.61621 -52.07073,-17.61621 11.40115,-25.38166 1.95979,-55.78286 -22.65761,-69.99537 -24.61329,-14.21526 -55.66412,-7.19223 -71.94286,15.37802 0,0 -17.79089,-12.7031 -41.30694,-36.29421 -22.96194,-23.03427 -36.29419,-41.30557 -36.29419,-41.30557 22.57163,-16.27602 29.59053,-47.3214 15.38209,-71.94151 -14.21522,-24.61467 -44.60963,-34.06146 -69.99127,-22.66034 0,0 -9.05103,-19.87898 -17.62305,-52.06527 -8.37002,-31.43024 -10.77881,-53.89951 -10.77881,-53.89951 27.68127,-2.82502 49.28937,-26.20049 49.28937,-54.62554 0,-28.42231 -21.60402,-51.80052 -49.28937,-54.61461 0,0 2.11129,-21.75689 10.77881,-53.91588 8.46418,-31.405665 17.62305,-52.089825 17.62305,-52.089825 25.38164,11.41204 55.77875,1.96796 69.994,-22.649441 14.21253,-24.620118 7.18952,-55.660014 -15.36982,-71.941517 0,0 12.69355,-17.779952 36.27508,-41.294646 23.03839,-22.966055 41.29193,-36.288751 41.29193,-36.288751 16.28421,22.564805 47.32957,29.590566 71.95109,15.378013 24.61328,-14.215223 34.05871,-44.610973 22.65076,-69.992653 0,0 19.89807,-9.05376 52.08436,-17.62713 31.42615,-8.36864 53.92136,-10.77878 53.92136,-10.77878 2.81141,27.68535 26.18548,49.28665 54.61734,49.28936 28.41959,-0.004 51.79505,-21.60128 54.61195,-49.28118 m 114.2269,509.14513 c -32.2327,55.64092 -92.4264,93.07058 -161.35728,93.07058 -102.93093,0 -186.3623,-83.44089 -186.3623,-186.365 0,-102.92411 83.43137,-186.362278 186.3623,-186.362278 45.69738,0 87.54878,16.445263 119.96988,43.745743 L 859.05477,214.33312 921.17554,321.93012 1261.7752,125.43047 C 1220.2595,2.750207 1104.1928,-85.554679 967.49112,-85.554679 c -171.54243,0 -310.60379,139.062731 -310.60379,310.603809 0,171.5438 139.06136,310.60654 310.60379,310.60654 114.92568,0 215.26768,-62.41282 268.98978,-155.18593 l -107.6325,-62.12619 z"
         inkscape:export-xdpi="55.410137"
         inkscape:export-ydpi="55.410137" />
    </g>
    <g
       id="g4144"
       inkscape:groupmode="layer"
       inkscape:label="EVEZOR LOGO_08-27-16"
       transform="matrix(0.330729 0 0 -0.330729 -115.351 121.428)"
       style="display:inline">
      <path
         fill="#4e4e56"
         d="m 753.31647,-1784.1859 -2.13038,1.1796 -1.1105,0.4544 -1.01343,0.2007 0.20409,0.284 1.81831,2.6254 1.28869,2.7364 0.76976,2.8531 0.28328,2.9412 -0.20073,3.0533 -0.65139,3.1373 -1.09959,3.2452 -1.51621,3.3242 -1.41614,2.533 -1.53564,2.2922 -1.65327,2.0412 -1.77543,1.7991 -1.89939,1.5559 -2.01691,1.2938 -2.13355,1.032 -2.25373,0.7684 -2.37027,0.4954 -2.49224,0.2309 -2.60601,-0.052 -2.72332,-0.3364 -2.83976,-0.6206 -2.95431,-0.915 -3.06975,-1.2098 -3.18697,-1.5056 -20.75985,-10.6121 38.27477,-74.8744 14.25542,7.2872 -15.56662,30.4519 5.39765,2.7592 1.55328,0.547 1.29222,0.032 1.20983,-0.3586 1.3733,-0.9377 24.70585,-18.963 1.70456,-1.1727 1.71758,-0.5258 1.71784,0.047 1.6816,0.6013 13.42468,6.8626 -27.50071,20.3307 -2.09628,1.6687 -2.10033,1.4196 v 0 m -22.69342,3.4151 -7.33518,-3.7497 -10.60988,20.7554 7.33517,3.7496 2.33447,1.0137 2.2301,0.5785 2.12151,0.1186 2.00043,-0.3476 1.87877,-0.8477 1.74919,-1.3633 1.61625,-1.9028 1.47995,-2.4668 1.12814,-2.6353 0.59585,-2.4245 0.0851,-2.2251 -0.41769,-2.0104 -0.88528,-1.834 -1.34317,-1.6412 -1.77495,-1.4689 -2.1888,-1.2985 v 0"
         id="path860"
         style="stroke-width:0.658956" />
      <path
         fill="#4e4e56"
         d="m 944.85358,-1709.1406 -9.76327,19.0992 -14.25543,-7.2871 16.06275,-31.4225 19.9291,10.1875 2.93201,1.6111 2.67546,1.6933 2.41623,1.7743 2.14158,1.8809 1.86515,1.9866 1.58781,2.092 1.30416,2.2053 1.01239,2.3257 0.71606,2.455 0.41706,2.5829 0.10629,2.7272 -0.20448,2.8717 -0.52247,3.0235 -0.84224,3.1746 -1.1729,3.3424 -1.50623,3.509 -3.3227,6.4999 -21.57633,-36.3325"
         id="path862"
         style="stroke-width:0.658956" />
      <path
         fill="#4e4e56"
         d="m 918.55196,-1643.6892 -19.9291,-10.1875 15.27987,-29.8909 14.25542,7.2871 -9.83155,19.2328 42.15886,-3.9316 -2.54892,4.9863 -1.96212,3.2759 -2.0178,2.8993 -2.08446,2.5508 -2.1448,2.1942 -2.20334,1.8386 -2.27287,1.5111 -2.34241,1.1835 -2.40927,0.8574 -2.47802,0.5414 -2.5513,0.2344 -2.6256,-0.062 -2.69809,-0.3573 -2.77881,-0.6343 -2.85775,-0.9105 -2.93945,-1.1769 -3.01849,-1.442 v 0"
         id="path866"
         style="stroke-width:0.658956" />
      <path
         fill="#4e4e56"
         d="m 672.17219,-1836.1441 1.61759,-2.7557 1.67503,-2.075 1.73832,-1.4474 1.80922,-0.8721 1.88141,-0.341 1.95944,0.1368 2.04054,0.5714 2.13749,0.9355 1.96996,1.1642 1.63951,1.3098 1.25671,1.5072 0.83344,1.7288 0.36783,1.985 -0.13736,2.2658 -0.68757,2.5797 -1.28013,2.9283 -3.39552,6.6424 14.39343,7.3577 2.40327,-4.7013 1.5929,-3.3973 1.23463,-3.2435 0.88439,-3.0856 0.54759,-2.9321 0.22248,-2.7838 -0.0892,-2.6399 -0.38373,-2.5097 -0.67392,-2.3661 -0.95154,-2.2272 -1.21116,-2.1016 -1.46366,-1.9723 -1.69815,-1.8564 -1.92828,-1.727 -2.13764,-1.6205 -2.34264,-1.5008 -2.52964,-1.3942 -2.61157,-1.2339 -2.58843,-1.02 -2.5655,-0.7836 -2.5291,-0.5516 -2.49923,-0.2892 -2.45592,-0.031 -2.41279,0.2491 -2.36256,0.533 -2.3125,0.8395 -2.25901,1.1587 -2.19204,1.4738 -2.12617,1.8107 -2.05594,2.161 -1.98404,2.5235 -1.906,2.9003 -1.81995,3.2813 -13.72321,26.8458 -1.59378,3.3968 -1.23464,3.2435 -0.88349,3.0861 -0.5476,2.9321 -0.22248,2.7838 0.0846,2.6488 0.38827,2.5008 0.67392,2.366 0.95154,2.2272 1.21117,2.1016 1.46365,1.9724 1.69815,1.8564 1.92373,1.7358 2.14219,1.6117 2.34264,1.5007 2.52964,1.3942 2.61158,1.234 2.58843,1.0199 2.56094,0.7925 2.53365,0.5427 2.49924,0.2893 2.45591,0.031 2.4128,-0.249 2.36255,-0.5331 2.31251,-0.8394 2.25445,-1.1499 2.19659,-1.4827 2.12617,-1.8107 2.05595,-2.161 1.98315,-2.5239 1.906,-2.9004 1.82084,-3.2807 2.33499,-4.5678 -14.53145,-7.4283 -3.25442,6.3664 -1.61848,2.7553 -1.67959,2.0839 -1.73831,1.4474 -1.80467,0.8632 -1.88141,0.341 -1.95944,-0.1369 -2.0451,-0.5625 -2.13293,-0.9443 -1.97363,-1.1549 -1.63495,-1.3187 -1.25671,-1.5072 -0.83434,-1.7292 -0.37238,-1.9761 0.13737,-2.2658 0.69212,-2.5887 1.28012,-2.9282 15.6349,-30.5855 0.1389,0.071"
         id="path870"
         style="stroke-width:0.658956" />
      <path
         fill="#4e4e56"
         d="m 763.60754,-1753.0943 -1.59289,3.3972 -1.23464,3.2435 -0.88438,3.0857 -0.5476,2.9321 -0.22248,2.7838 0.0846,2.6488 0.38828,2.5008 0.67392,2.366 0.95154,2.2272 1.21117,2.1016 1.46365,1.9724 1.69815,1.8564 1.92373,1.7358 2.14219,1.6117 2.34264,1.5008 2.52964,1.3941 2.61158,1.234 2.58843,1.0199 2.56094,0.7925 2.53365,0.5427 2.49923,0.2893 2.45592,0.031 2.4128,-0.2491 2.36255,-0.5331 2.31251,-0.8394 2.25445,-1.1499 2.19659,-1.4827 2.12617,-1.8107 2.05595,-2.161 1.98315,-2.5239 1.90689,-2.8999 1.81995,-3.2812 13.7232,-26.8458 1.59379,-3.3968 1.23374,-3.244 0.88439,-3.0856 0.54759,-2.9321 0.22248,-2.7838 -0.0892,-2.6399 -0.38373,-2.5097 -0.67392,-2.3661 -0.95154,-2.2272 -1.21116,-2.1016 -1.46366,-1.9723 -1.69815,-1.8564 -1.92828,-1.727 -2.13764,-1.6205 -2.34264,-1.5008 -2.52964,-1.3942 -2.61157,-1.2339 -2.58843,-1.02 -2.5655,-0.7836 -2.5291,-0.5516 -2.49923,-0.2892 -2.45592,-0.031 -2.41279,0.2491 -2.36256,0.5331 -2.31251,0.8394 -2.259,1.1588 -2.19204,1.4737 -2.12617,1.8107 -2.05594,2.161 -1.98315,2.524 -1.906,2.9003 -1.82084,3.2808 -13.72321,26.8458 m 28.97,-21.5002 1.61848,-2.7553 1.67503,-2.075 1.73831,-1.4474 1.80922,-0.8721 1.88141,-0.341 1.95944,0.1369 2.04055,0.5714 2.13748,0.9354 1.96908,1.1638 1.6404,1.3103 1.25582,1.5067 0.83433,1.7293 0.36783,1.9849 -0.13736,2.2658 -0.68757,2.5798 -1.28013,2.9282 -15.63489,30.5855 -1.61759,2.7558 -1.67959,2.0839 -1.7392,1.4469 -1.80467,0.8632 -1.88052,0.3415 -1.96033,-0.1374 -2.0451,-0.5625 -2.13204,-0.9438 -1.97452,-1.1554 -1.63495,-1.3187 -1.25671,-1.5072 -0.83434,-1.7292 -0.37238,-1.9761 0.13826,-2.2653 0.69123,-2.5891 1.28012,-2.9283 15.6349,-30.5855"
         id="path872"
         style="stroke-width:0.658956" />
      <path
         fill="#4e4e56"
         d="m 806.03254,-1700.8594 13.28577,6.7915 35.21942,-43.968 0.27692,0.1416 -14.73649,54.4385 13.8396,7.0746 35.49634,-43.8263 0.27603,0.1411 -15.15053,54.2269 13.42378,6.862 22.01517,-83.7027 -13.8396,-7.0746 -36.83599,46.1065 -0.27692,-0.1415 14.96936,-57.2845 -13.70158,-7.004 -54.26128,67.2189"
         id="path874"
         style="stroke-width:0.658956" />
      <path
         fill="#00b2ad"
         d="m 1011.6474,-1622.2791 -2.1796,1.9856 -2.082,1.5749 -2.0052,1.1762 -1.9389,0.7721 -1.8942,0.3794 -1.86947,-10e-4 -1.85158,-0.3962 -1.85899,-0.7706 -1.73648,-1.0673 -1.36556,-1.2372 -0.99839,-1.3864 -0.63498,-1.515 -0.27347,-1.6335 0.077,-1.7127 0.43553,-1.7989 0.78122,-1.8468 0.62059,-0.9855 0.7687,-0.8425 0.907,-0.7043 1.04105,-0.5909 2.4343,-0.8558 2.85073,-0.5082 3.2037,-0.2715 3.4859,-0.1273 7.5331,-0.1922 3.9094,-0.2591 3.9159,-0.5026 3.8501,-0.8396 3.7135,-1.2688 1.7856,-0.828 1.7251,-0.9713 1.6568,-1.1297 1.5786,-1.2932 1.4962,-1.4813 1.3986,-1.666 1.2967,-1.8753 1.1895,-2.0985 1.1029,-2.4124 0.8444,-2.4098 0.5903,-2.4049 0.3298,-2.3808 0.075,-2.354 -0.1815,-2.3165 -0.435,-2.2776 -0.6931,-2.2186 -0.9423,-2.1663 -1.1978,-2.0947 -1.4526,-2.0117 -1.7001,-1.936 -1.9523,-1.8403 -2.2064,-1.7343 -2.4542,-1.6252 -2.7049,-1.5062 -2.1867,-1.028 -2.2055,-0.8354 -2.2169,-0.6504 -2.2277,-0.4536 -2.2356,-0.2556 -2.2384,-0.055 -2.2429,0.1563 -2.2421,0.37 -2.2424,0.5945 -2.2381,0.8213 -2.2303,1.0499 -2.2189,1.2803 -2.2077,1.522 -2.1911,1.7662 -2.17723,2.0205 -2.15717,2.2777 12.5599,10.2614 2.3939,-2.752 2.4086,-2.0818 2.3851,-1.4649 2.3294,-0.9207 2.2337,-0.4305 2.0984,0.01 1.9332,0.3705 1.7228,0.6898 1.7337,1.0772 1.4428,1.3102 1.1278,1.5088 0.7819,1.6912 0.4158,1.8297 0.018,1.9524 -0.4074,2.0491 -0.8524,2.1025 -0.748,1.2348 -0.887,1.074 -1.0163,0.918 -1.1366,0.7779 -1.25,0.6526 -1.3573,0.5416 -2.9827,0.7663 -3.3038,0.4675 -3.5451,0.243 -7.5559,0.2368 -3.8783,0.1962 -3.84685,0.3696 -3.7545,0.6526 -3.5906,1.0284 -1.71274,0.6855 -1.6432,0.811 -1.57573,0.969 -1.48669,1.1155 -1.39608,1.2854 -1.29389,1.4612 -1.18745,1.6617 -1.0712,1.867 -1.11537,2.406 -0.87544,2.3827 -0.63274,2.3494 -0.39005,2.3164 -0.14825,2.2827 0.10088,2.2303 0.34823,2.1771 0.59646,2.1243 0.84292,2.0706 1.10214,1.9897 1.35048,1.9257 1.60792,1.844 1.86812,1.7523 2.1229,1.6692 2.38221,1.5772 2.64341,1.4748 2.39887,1.1139 2.36514,0.8834 2.33052,0.6522 2.29225,0.4306 2.24483,0.2266 2.2003,0.013 2.1483,-0.1821 2.0947,-0.3781 2.0409,-0.5739 1.9744,-0.7427 1.9107,-0.9213 1.8443,-1.09 1.766,-1.2423 1.6941,-1.4027 1.6167,-1.5545 1.5303,-1.6885 -10.8909,-10.4527"
         id="path876"
         style="stroke-width:0.658956" />
      <path
         fill="#00b2ad"
         d="m 1042.1383,-1580.1653 26.882,-52.5875 1.4477,-2.4607 1.5838,-1.9757 1.7271,-1.4868 1.8719,-0.986 2.0286,-0.4905 2.1805,0.025 2.3413,0.5454 2.512,1.0596 2.3353,1.4184 1.8294,1.5865 1.3197,1.764 0.8154,1.9442 0.3229,2.108 -0.1715,2.2821 -0.6586,2.4485 -1.1405,2.6178 -26.8821,52.5874 14.3935,7.3578 26.9548,-52.73 1.42,-3.0589 1.0826,-2.9506 0.7534,-2.8381 0.4349,-2.7314 0.1281,-2.6299 -0.1762,-2.5159 -0.4642,-2.4161 -0.7487,-2.3032 -1.0179,-2.205 -1.2846,-2.0942 -1.5404,-1.9891 -1.7874,-1.8795 -2.019,-1.7846 -2.2481,-1.677 -2.4663,-1.5752 -2.6756,-1.4689 -2.7567,-1.3081 -2.7159,-1.0738 -2.6697,-0.8369 -2.62,-0.5868 -2.5596,-0.3426 -2.502,-0.077 -2.4382,0.1911 -2.3701,0.4731 -2.2929,0.7484 -2.2177,1.0451 -2.13,1.337 -2.047,1.649 -1.9503,1.9568 -1.8522,2.2764 -1.7531,2.6078 -1.6461,2.9434 -26.9548,52.7299 14.3925,7.3573"
         id="path878"
         style="stroke-width:0.658956" />
      <path
         fill="#00b2ad"
         d="m 1131.276,-1629.5559 -38.4842,75.284 20.7599,10.6121 3.2662,1.5461 3.1517,1.2517 3.0371,0.9573 2.9226,0.6629 2.8097,0.3694 2.6871,0.093 2.5688,-0.1918 2.4487,-0.4666 2.3269,-0.7422 2.2013,-1.0086 2.0767,-1.2744 1.9529,-1.5399 1.8237,-1.7968 1.6954,-2.0533 1.5634,-2.3005 1.4315,-2.5477 1.2194,-2.6336 0.9435,-2.5949 0.6731,-2.5647 0.3919,-2.5176 0.1087,-2.4713 -0.1706,-2.4344 -0.4636,-2.3709 -0.7495,-2.326 -1.0496,-2.2549 -1.3418,-2.2021 -1.6438,-2.1318 -1.9431,-2.0715 -2.2515,-1.9932 -2.5617,-1.916 -2.8727,-1.8391 -3.1892,-1.7538 -6.3664,-3.2545 15.4209,-30.167 -14.3934,-7.3577 m -7.1131,49.4295 7.751,3.9622 2.3978,1.4391 1.9034,1.6019 1.3983,1.7817 0.9049,1.9339 0.4017,2.1033 -0.094,2.2541 -0.6021,2.4213 -1.1016,2.5703 -1.4382,2.3982 -1.6055,1.8972 -1.7764,1.4054 -1.9355,0.8974 -2.1021,0.4079 -2.2585,-0.099 -2.4178,-0.5958 -2.5707,-1.1007 -7.751,-3.9622 10.8966,-21.3164"
         id="path880"
         style="stroke-width:0.658956" />
      <path
         fill="#00b2ad"
         d="m 1188.8497,-1600.125 -38.4841,75.284 20.7599,10.6122 3.2662,1.5461 3.1517,1.2517 3.0389,0.9582 2.919,0.6611 2.8098,0.3694 2.6914,0.095 2.5689,-0.1918 2.4416,-0.4702 2.3321,-0.7395 2.2005,-1.009 2.0775,-1.274 1.9547,-1.539 1.8184,-1.7995 1.6999,-2.0511 1.559,-2.3028 1.4359,-2.5453 1.2131,-2.6368 0.9444,-2.5945 0.6803,-2.561 0.3891,-2.519 0.107,-2.4722 -0.1706,-2.4345 -0.4619,-2.3699 -0.7529,-2.3279 -1.0488,-2.2544 -1.3445,-2.2034 -1.6402,-2.13 -1.9404,-2.0701 -2.2498,-1.9924 -2.5661,-1.9182 -2.8718,-1.8386 -3.1892,-1.7539 -6.3665,-3.2544 15.421,-30.167 -14.3935,-7.3578 m -7.113,49.4295 7.7501,3.9618 2.3978,1.4391 1.9034,1.6019 1.3947,1.7799 0.9085,1.9357 0.4062,2.1056 -0.096,2.2532 -0.6075,2.4186 -1.1007,2.5707 -1.4391,2.3977 -1.6001,1.8999 -1.7746,1.4064 -1.94,0.8951 -2.1057,0.4061 -2.2549,-0.097 -2.4178,-0.5958 -2.5707,-1.1007 -7.7501,-3.9618 10.8966,-21.3164"
         id="path882"
         style="stroke-width:0.658956" />
      <path
         fill="#00b2ad"
         d="m 1248.3602,-1569.704 -38.4842,75.2839 14.3979,7.36 31.9753,-62.5511 23.1061,11.8115 6.5088,-12.7328 -37.5039,-19.1715"
         id="path884"
         style="stroke-width:0.658956" />
      <path
         fill="#00b2ad"
         d="m 1286.057,-1493.8755 -3.313,36.5361 15.3595,7.8516 2.232,-55.249 15.5621,-30.443 -14.389,-7.3555 -15.5621,30.4431 -43.4103,34.3676 15.3684,7.8561 28.1524,-24.007"
         id="path886"
         style="stroke-width:0.658956" />
      <path
         d="m 666.6406,-1422.0776 0.88424,-2.3669 0.30352,-1.3385 0.15561,-1.4029 -0.0176,-1.4354 -0.20343,-1.4629 -0.38319,-1.465 -0.62846,-1.4443 -0.86889,-1.3651 -1.14235,-1.2915 -1.4357,-1.1944 -1.76072,-1.0572 -13.4692,-6.8853 -2.3586,-0.9137 -2.75112,-0.4293 -1.42767,0.012 -1.45686,0.1762 -1.47409,0.4032 -1.4366,0.6133 -1.37202,0.8935 -1.3,1.1436 -1.20801,1.4602 -1.05508,1.7629 -17.22342,33.693 7.46696,3.8171 17.22342,-33.6931 0.84816,-1.1275 1.14256,-0.6401 1.27917,-0.1098 1.28893,0.4006 13.46919,6.8853 1.14089,0.8527 0.61453,1.1003 0.11123,1.2698 -0.42234,1.3227 -5.16612,10.1062 -0.85013,1.1489 -1.1021,0.6159 -1.26037,0.1082 -1.30406,-0.4084 -13.4692,-6.8852 -3.81883,7.4705 13.4692,6.8853 2.37226,0.8869 1.32564,0.2958 1.38333,0.1456 1.45359,-0.01 1.47853,-0.1988 1.45786,-0.3891 1.4189,-0.6336 1.36291,-0.8756 1.29545,-1.1347 1.19891,-1.4424 1.05507,-1.7629 5.16612,-10.1062"
         style="font-size:32px;line-height:1.25;font-family:Audiowide;-inkscape-font-specification:Audiowide;letter-spacing:-0.856px;stroke-width:0.799999"
         id="path22343" />
      <path
         d="m 712.56359,-1415.5946 0.80655,-1.8788 0.46699,-1.8165 0.17473,-1.7413 -0.0884,-1.6175 -0.31285,-1.5301 -0.54298,-1.4006 -0.70475,-1.3149 -0.84367,-1.1838 -0.92817,-1.036 -1.01613,-0.9012 -2.10826,-1.4034 -13.4692,-6.8853 -3.81883,7.4705 13.4692,6.8853 1.21153,0.8551 0.63274,1.0647 0.0776,1.2301 -0.473,1.3867 -17.40093,34.0403 7.46695,3.817 17.40094,-34.0403 m -11.98363,-2.3523 -13.46919,-6.8853 -1.73423,-0.718 -1.99019,-0.5007 -2.12012,-0.1741 -2.1791,0.2225 -2.17983,0.7051 -2.09487,1.209 -0.99397,0.8284 -0.91948,1.0012 -0.84866,1.1834 -0.7796,1.3647 -10.5143,20.5684 7.46696,3.817 10.51429,-20.5684 0.8541,-1.1919 1.06391,-0.6466 1.26294,-0.096 1.43575,0.4868 13.41131,6.8557 3.81428,-7.4616"
         style="font-size:32px;line-height:1.25;font-family:Audiowide;-inkscape-font-specification:Audiowide;letter-spacing:-0.856px;stroke-width:0.799999"
         id="path22345" />
      <path
         d="m 722.01455,-1402.2504 0.30399,-0.788 0.12728,-0.8334 -0.026,-0.7994 -0.17814,-0.7874 -0.31023,-0.7201 -0.4709,-0.6563 -0.56826,-0.5712 -0.68838,-0.4418 -0.79059,-0.3143 -0.82433,-0.1406 -1.574,0.1725 -1.37637,0.7789 -0.57961,0.6021 -0.45357,0.7116 -0.302,0.7665 -0.13045,0.7869 0.01,0.8136 0.16043,0.7671 0.32081,0.7367 0.44755,0.6668 0.58765,0.6037 0.71776,0.4567 0.76121,0.2993 0.80495,0.1082 0.81682,-0.02 0.76994,-0.1792 0.73799,-0.3078 0.67231,-0.465 0.58277,-0.5556 0.45159,-0.6901 v 0 m -12.02544,23.5246 0.30853,-0.7969 0.12274,-0.8245 -0.0214,-0.8084 -0.17814,-0.7873 -0.31478,-0.7113 -0.46635,-0.6651 -0.57281,-0.5624 -0.68838,-0.4417 -0.79059,-0.3143 -0.81978,-0.1495 -1.574,0.1724 -1.38092,0.7878 -0.57506,0.5933 -0.45812,0.7204 -0.29745,0.7577 -0.135,0.7957 0.01,0.8136 0.16498,0.7582 0.31626,0.7457 0.44755,0.6668 0.5922,0.5947 0.71321,0.4657 0.76576,0.2903 0.80039,0.1172 0.81683,-0.021 0.77449,-0.1881 0.73344,-0.2989 0.67231,-0.4649 0.58732,-0.5646 0.44704,-0.6811 v 0"
         style="font-size:32px;line-height:1.25;font-family:Audiowide;-inkscape-font-specification:Audiowide;letter-spacing:-0.856px;stroke-width:0.799999"
         id="path22347" />
    </g>
    <g
       inkscape:groupmode="layer"
       id="layer2"
       inkscape:label="EVEZOR LOGO_08-27-17"
       style="display:inline">
      <path
         id="path4150"
         style="display:inline;fill:#800080;fill-opacity:1;fill-rule:nonzero;stroke:none;stroke-width:0.330728"
         d="m 150.65084,567.17332 -1.06747,0.76131 -2.61632,2.15615 -2.43215,2.39781 -0.84558,0.96908 0.62977,0.61023 0.49418,0.70088 0.35525,0.76965 0.21076,0.81656 0.0621,0.84203 -0.0913,0.84742 -0.24977,0.8296 -0.412,0.79125 -0.55326,0.69948 -0.6555,0.56756 -0.735,0.42963 -0.79484,0.28839 -0.83059,0.14157 -0.84803,-0.009 -0.84138,-0.16514 -0.81506,-0.32458 -0.5426,1.19268 -1.18729,3.17429 -0.90718,3.29166 -0.24681,1.2616 0.84986,0.2147 0.7787,0.3589 0.69219,0.48847 0.59079,0.60208 0.47492,0.69837 0.34372,0.78004 0.19848,0.84305 0.0388,0.89098 -0.12944,0.88265 -0.28341,0.81872 -0.42141,0.7399 -0.54387,0.64752 -0.64906,0.53843 -0.73781,0.41535 -0.81148,0.2778 -0.86785,0.1258 0.38608,3.0753 9.02237,6.91968 -0.28567,-11.98549 0.6402,-0.32726 0.14767,-3.70529 0.65686,-3.62753 1.1482,-3.49684 1.62211,-3.31234 2.07865,-3.07177 2.51774,-2.77961 2.93902,-2.43005 3.34198,-2.02846 1.87599,-0.86913 1.90781,-0.71244 1.9311,-0.55702 1.94811,-0.4051 3.91094,-0.36177 3.88122,0.21721 3.78915,0.77528 3.63293,1.31335 3.41615,1.8296 3.13615,2.32763 0.96435,-1.49251 1.18478,-1.34912 1.39516,-1.17702 1.59775,-0.97623 1.56295,-0.66643 -1.3923,-1.26266 -0.61068,0.62889 -0.70042,0.49506 -0.76876,0.3548 -0.81745,0.21122 -0.84249,0.0612 -0.84653,-0.0917 -0.83049,-0.24932 -0.79036,-0.41246 -0.70037,-0.5528 -0.5671,-0.65461 -0.43009,-0.73589 -0.28793,-0.79395 -0.14203,-0.83148 0.009,-0.84714 0.16514,-0.84137 0.32458,-0.81507 -1.16718,-0.54103 -3.2007,-1.19064 -3.35977,-0.92178 -1.19573,-0.23219 -0.21335,0.8503 -0.3589,0.7787 -0.48847,0.69219 -0.60208,0.59079 -0.69926,0.47538 -0.77915,0.34326 -0.84394,0.19893 -0.89099,0.0388 -0.88264,-0.12944 -0.81873,-0.28341 -0.73989,-0.4214 -0.64663,-0.54434 -0.53843,-0.64905 -0.41535,-0.73781 -0.27869,-0.81103 -0.1258,-0.86785 -1.28119,0.11472 -3.36571,0.56935 -3.37143,0.88112 -1.15078,0.39621 0.001,4.4e-4 0.24007,0.84313 0.0774,0.85441 -0.0766,0.84327 -0.22622,0.81195 -0.368,0.76089 -0.50238,0.68695 -0.63067,0.59418 -0.75245,0.47898 -0.8298,0.32984 -0.85097,0.16322 -0.85104,0.005 -0.83227,-0.14733 -0.79108,-0.29304 -0.72925,-0.43134 -0.64635,-0.56357 -0.54281,-0.68837 8.9e-4,-4.6e-4 m 13.65119,15.04757 -2.48957,1.57586 -2.09941,1.94583 -1.68836,2.2512 -1.25689,2.49109 1.12432,-0.65448 1.41314,-0.61456 1.44616,-0.42255 1.46347,-0.2371 1.46597,-0.0564 1.45143,0.11945 1.42119,0.28877 1.3766,0.4542 1.31497,0.61485 1.01467,-1.56764 -1.401,-2.74067 -0.25853,-0.50575 5.62203,-2.87391 0.90967,-1.40615 -2.6913,-0.38524 -2.74259,0.0812 -2.73289,0.56818 -2.66308,1.07383 v 0 m 32.3345,-5.80915 -1.10636,0.7138 -0.91424,0.89187 -0.70993,1.03451 -0.4943,1.14216 -0.26825,1.21528 -0.0304,1.25431 0.21916,1.257 0.47873,1.22652 0.7138,1.10635 0.89098,0.9147 1.03451,0.70993 1.14216,0.4943 1.21528,0.26825 1.25431,0.0304 1.2579,-0.21962 1.22651,-0.47873 1.44411,-1.00438 1.08856,-1.30443 -0.33622,-0.99389 -0.84402,0.24053 -0.85396,0.0783 -0.84373,-0.0775 -0.81284,-0.22576 -0.76043,-0.36711 -0.68741,-0.50327 -0.59328,-0.63113 -0.47898,-0.75245 -0.32939,-0.82891 -0.16411,-0.85051 -0.005,-0.85193 0.14779,-0.83138 0.29304,-0.79108 0.43134,-0.72925 0.56311,-0.64724 0.68838,-0.54281 -0.45925,-0.64574 -1.71592,0.11234 -1.68128,0.58654 v 0 m -36.12721,18.5385 -1.09658,0.70655 -0.90627,0.88331 -0.70241,1.02505 -0.49082,1.1314 -0.26566,1.20497 -0.0296,1.24267 0.21682,1.24584 0.47416,1.21538 0.70791,1.09701 0.88285,0.90538 1.02461,0.70376 1.13229,0.49037 1.20497,0.26565 1.24313,0.0305 1.24584,-0.21683 1.21492,-0.47505 0.8349,-0.51102 0.72753,-0.61561 1.12231,-1.48229 -3.00709,-1.94773 -2.33642,3.60448 -4.82528,-3.12296 5.20215,-8.03658 -1.80269,0.0612 -1.77155,0.5945 v 0 m 26.90255,-13.47595 -3.04008,4.69082 -0.44596,10.38287 7.76524,-3.96949 2.5512,4.99073 3.82154,0.19494 -0.39905,3.40027 -0.82785,3.31063 -1.24406,3.17748 -1.64501,3.00172 -2.03248,2.782 -2.40556,2.52011 -2.76653,2.21384 -3.11087,1.86539 -2.20262,1.00354 -2.24434,0.78789 -2.2735,0.57706 -2.29012,0.36879 -2.29371,0.16624 -2.28521,-0.0347 -2.26414,-0.22849 -2.22961,-0.42021 -2.18253,-0.60713 -2.12423,-0.78967 -2.05203,-0.9692 -1.96728,-1.14393 -1.86995,-1.31386 -1.76098,-1.48074 -1.63719,-1.64286 -1.50399,-1.80191 0.009,8.37478 -7.50196,-5.43277 -0.64437,0.86398 -0.84836,0.70658 0.76085,1.06658 2.1557,2.61543 2.39647,2.43171 0.96951,0.84424 0.61023,-0.62978 0.69999,-0.49372 0.76965,-0.35525 0.81656,-0.21076 0.84248,-0.0612 0.84742,0.0913 0.82961,0.24977 0.79124,0.41201 0.69948,0.55325 0.56757,0.6555 0.42962,0.735 0.28794,0.79396 0.14202,0.83148 -0.009,0.84714 -0.16379,0.8418 -0.32593,0.81463 1.19268,0.5426 3.17609,1.18862 3.29166,0.90718 1.26294,0.24724 0.21336,-0.85029 0.35979,-0.77916 0.48847,-0.69219 0.60208,-0.59079 0.69837,-0.47492 0.77915,-0.34326 0.84394,-0.19893 0.89098,-0.0388 0.88265,0.12943 0.81872,0.28341 0.7399,0.42141 0.64663,0.54433 0.53843,0.64906 0.4158,0.7387 0.27869,0.81103 0.12581,0.86785 1.30434,-0.12656 3.34299,-0.55886 3.30364,-0.85994 1.21678,-0.41648 -0.24007,-0.84313 -0.0783,-0.85396 0.0775,-0.84372 0.22576,-0.81285 0.368,-0.76088 0.50193,-0.68785 0.63113,-0.59328 0.75244,-0.47898 0.82981,-0.32985 0.85051,-0.16411 0.8515,-0.004 0.83226,0.14732 0.79108,0.29305 0.72926,0.43134 0.64635,0.56357 0.54281,0.68837 1.05245,-0.74015 2.63045,-2.17686 2.4791,-2.44876 0.79951,-0.91858 -0.62977,-0.61023 -0.49506,-0.70043 -0.35525,-0.76965 -0.21077,-0.81655 -0.0621,-0.84203 0.0913,-0.84743 0.24976,-0.8296 0.4129,-0.7917 0.55236,-0.69902 0.65551,-0.56757 0.735,-0.42963 0.7935,-0.28882 0.83193,-0.14114 0.84669,0.009 0.84226,0.16468 0.81417,0.32504 0.54149,-1.16628 1.18929,-3.20115 0.92223,-3.35887 0.23311,-1.19395 -0.8503,-0.21336 -0.77915,-0.35978 -0.6922,-0.48848 -0.59079,-0.60207 -0.47492,-0.69837 -0.34371,-0.78004 -0.19848,-0.84305 -0.0388,-0.89099 0.12944,-0.88265 0.2834,-0.81872 0.42141,-0.7399 0.54299,-0.64706 0.64995,-0.53889 0.7378,-0.41534 0.81149,-0.27781 0.86785,-0.1258 -0.16629,-1.59737 -1.38353,0.82629 -2.30285,0.89754 -2.36311,0.40835 -2.35922,-0.0586 -2.28761,-0.50512 -2.15143,-0.93075 -1.94704,-1.33284 -1.67675,-1.71585 -1.33962,-2.07574 -0.65769,-1.53485 -0.43395,-1.57173 -0.2172,-1.58932 -0.006,-1.58717 v 0 m -9.66506,14.91586 -2.8067,4.33005 0.69531,0.0354 -0.0287,0.54811 -0.18332,1.56158 -0.38091,1.51995 -0.5711,1.4577 -0.75562,1.37794 -0.93407,1.27712 -1.10375,1.15609 -1.26869,1.01578 -1.4271,0.8553 -0.91629,0.41112 2.67057,0.36888 2.71792,-0.09 2.7074,-0.56751 2.63812,-1.06555 1.37134,-0.78861 1.26523,-0.90171 2.19237,-2.10453 1.72514,-2.4407 1.23178,-2.69839 -9.26825,4.7378 0.42928,-9.99586" />
      <path
         style="color:#000000;fill:#800080;stroke-width:0.999996;-inkscape-stroke:none"
         d="m 120.7746,608.80437 -2.07129,1.33734 -1.71319,1.67315 -1.33065,1.94256 -0.92812,2.14558 -0.5047,2.28404 -0.0591,2.35386 0.40832,2.35863 0.89615,2.29795 1.33734,2.07128 1.67269,1.71231 1.94256,1.33065 2.14693,0.92855 2.28268,0.50427 2.35386,0.0591 2.35953,-0.40877 2.29705,-0.8957 1.4271,-0.8553 1.26869,-1.01578 1.10375,-1.15609 0.93318,-1.27666 0.75562,-1.37794 0.57198,-1.45815 0.38003,-1.5195 0.18243,-1.56113 0.0286,-0.54811 -5.74282,-0.2932 -0.0287,0.54587 -0.29723,1.62655 -0.6991,1.4973 -1.07533,1.28419 -1.42501,0.989 -1.21581,0.4755 -1.24584,0.21683 -1.24313,-0.0305 -1.20497,-0.26565 -1.1314,-0.49082 -1.02461,-0.70376 -0.88286,-0.90538 -0.70744,-1.09612 -0.47461,-1.21627 -0.21683,-1.24584 0.0296,-1.24267 0.26476,-1.20452 0.49082,-1.13139 0.70331,-1.02551 0.90538,-0.88285 1.09747,-0.70701 1.77066,-0.59405 1.80269,-0.0612 -5.20304,8.03704 4.82484,3.1243 8.55244,-13.19706 -0.32122,-0.31423 -1.45309,-1.20799 -1.60606,-0.96021 -1.7263,-0.70109 -1.81289,-0.43108 -1.86541,-0.15154 -1.88562,0.14068 -1.87085,0.44199 -1.82335,0.75462 v 0 m 0.49886,0.97589 1.60631,-0.6695 1.64716,-0.40064 1.65841,-0.14134 1.64276,0.10924 1.60241,0.34888 1.53201,0.58028 1.43694,0.80071 1.3127,1.01246 -7.44865,11.49402 -2.98594,-1.93272 5.49508,-8.48955 -0.76052,-0.17615 -1.27221,-0.18187 -1.29752,0.0389 -1.29145,0.26821 -1.25801,0.50719 -1.28022,0.82626 -1.05699,1.03447 -0.82249,1.20099 -0.57362,1.32534 -0.31166,1.41155 -0.0367,1.45517 0.2518,1.45708 0.5538,1.4195 0.8258,1.27932 1.03359,1.05744 1.20099,0.82249 1.32668,0.57406 1.41067,0.31212 1.45517,0.0367 1.45752,-0.25092 1.4195,-0.55379 1.55137,-1.06258 1.19354,-1.36933 0.81896,-1.59675 0.42857,-1.7431 3.59066,0.18268 -0.21972,1.34097 -0.37883,1.30213 -0.53272,1.24715 -0.68362,1.17605 -0.82929,1.09103 -0.97152,0.98854 -1.10763,0.87169 -1.24075,0.73869 -2.09336,0.81741 -2.1483,0.3738 -2.14136,-0.052 -2.07611,-0.45825 -1.95253,-0.84486 -1.76619,-1.21192 -1.52285,-1.55979 -1.2172,-1.88899 -0.81875,-2.0938 -0.37245,-2.14787 0.052,-2.14136 0.45868,-2.07745 0.84443,-1.95119 1.21192,-1.76618 1.56114,-1.52242 1.88853,-1.21809 v 0"
         id="path22987" />
      <path
         style="color:#000000;fill:#800080;stroke-width:0.999996;-inkscape-stroke:none"
         d="m 129.05185,605.37953 0.75172,0.54339 20.65673,14.95922 -0.028,-26.43202 -6.05566,3.09557 0.28567,11.98549 -9.4916,-7.27954 -6.11888,3.12789 m 2.16967,0.16671 3.82786,-1.95675 10.80426,8.28754 -0.32506,-13.64437 3.7691,-1.92671 0.0238,22.34839 -18.09995,-13.1081"
         id="path23017" />
      <path
         style="color:#000000;fill:#800080;stroke-width:0.999996;-inkscape-stroke:none"
         d="m 194.04068,571.32927 -2.07663,1.34007 -1.71495,1.6763 -1.33374,1.9475 -0.9312,2.15053 -0.50512,2.28762 -0.0595,2.35968 0.40881,2.364 0.89843,2.30239 1.33962,2.07574 1.67675,1.71585 1.9475,1.33373 2.15008,0.93032 2.2885,0.50466 2.35922,0.0586 2.36311,-0.40835 2.30285,-0.89754 2.07618,-1.34096 1.71495,-1.6763 1.33419,-1.94661 0.93121,-2.15053 0.50466,-2.28851 0.0599,-2.35878 -0.40881,-2.364 -0.89797,-2.3015 -1.34007,-2.07664 -1.67675,-1.71584 -1.9475,-1.33374 -2.15008,-0.93031 -2.28851,-0.50466 -2.35967,-0.0595 -2.36311,0.40835 -2.3024,0.89843 v 0 m 0.51707,1.01151 2.09069,-0.81605 2.14518,-0.37331 2.13912,0.0521 2.07341,0.45738 1.94985,0.84399 1.76438,1.21059 1.51971,1.55803 1.21718,1.88676 0.81604,2.09069 0.37286,2.14429 -0.0521,2.13912 -0.45827,2.07387 -0.84311,1.94939 -1.21104,1.76349 -1.55847,1.52105 -1.88586,1.21673 -2.0907,0.81604 -2.14562,0.37243 -2.13913,-0.0521 -2.07341,-0.45739 -1.9485,-0.84356 -1.76438,-1.21058 -1.5206,-1.55758 -1.21673,-1.88587 -0.81649,-2.09158 -0.37197,-2.14474 0.052,-2.13912 0.45692,-2.07431 0.84356,-1.9485 1.21059,-1.76438 1.55892,-1.52016 1.88587,-1.21672 v 0 m 1.56171,3.05945 -1.29666,0.83804 -1.07163,1.04757 -0.83264,1.21629 -0.58194,1.34419 -0.31553,1.43038 -0.0374,1.47351 0.25511,1.47672 0.56067,1.43733 0.83714,1.29711 1.04757,1.07163 1.21629,0.83264 1.34374,0.58106 1.43037,0.31552 1.47351,0.0374 1.47718,-0.25422 1.43822,-0.56112 1.29622,-0.83669 1.07028,-1.04801 0.83353,-1.21674 0.58106,-1.34374 0.31598,-1.42948 0.0383,-1.47397 -0.25511,-1.47672 -0.56112,-1.43822 -0.83669,-1.29622 -1.04757,-1.07163 -1.21718,-0.83218 -1.34419,-0.58195 -1.42948,-0.31598 -1.47441,-0.037 -1.47583,0.25465 -1.43778,0.55977 v 0 m 0.51752,1.0124 1.22606,-0.47962 1.25746,-0.21828 1.25342,0.0309 1.21617,0.26779 1.14216,0.4943 1.03451,0.70993 0.89053,0.91381 0.7138,1.10635 0.47919,1.22741 0.21916,1.257 -0.0304,1.25431 -0.26825,1.21528 -0.49519,1.14262 -0.70904,1.03405 -0.91381,0.89053 -1.10635,0.7138 -1.22651,0.47873 -1.2579,0.21962 -1.25431,-0.0304 -1.21528,-0.26825 -1.14216,-0.4943 -1.03451,-0.70993 -0.89142,-0.91335 -0.71336,-1.1077 -0.47962,-1.22606 -0.21827,-1.25746 0.0304,-1.25431 0.26825,-1.21528 0.4943,-1.14216 0.70993,-1.03451 0.91424,-0.89187 1.10681,-0.71291 v 0"
         id="path22999" />
      <path
         style="color:#000000;fill:#800080;stroke-width:0.999996;-inkscape-stroke:none"
         d="m 168.60019,585.16295 0.25853,0.50575 2.35912,4.61498 6.94251,-3.54892 -0.84282,19.65125 16.99165,-8.6859 -2.61811,-5.12162 -7.76524,3.96949 0.84416,-19.65082 -16.1698,8.26579 m 1.52857,0.49443 13.422,-6.86115 -0.84416,19.65082 8.49003,-4.33999 1.58398,3.09862 -14.24474,7.28172 0.84371,-19.65171 -7.6673,3.91942 -1.58352,-3.09773"
         id="path23011" />
      <path
         style="color:#000000;fill:#800080;stroke-width:0.999996;-inkscape-stroke:none"
         d="m 213.92666,561.42213 -1.59593,1.03033 -1.32036,1.2904 -1.02512,1.49886 -0.71602,1.65532 -0.38906,1.76109 -0.046,1.81483 0.31362,1.81967 0.6911,1.77159 6.36183,12.44522 5.88025,-3.0059 -6.36228,-12.44612 -0.30574,-1.08584 0.12993,-1.07719 0.52643,-0.94969 0.88375,-0.70108 0.7093,-0.25141 0.72446,-0.057 0.70372,0.12656 0.6498,0.29788 0.47355,0.29364 0.30219,-0.46782 3.24217,-4.99852 -0.48084,-0.30788 -1.05621,-0.58541 -1.11934,-0.44307 -1.16635,-0.29775 -1.1981,-0.14675 -1.21504,0.009 -1.21676,0.16827 -1.20365,0.33452 -1.17531,0.50421 v 0 m 0.51707,1.01151 1.94593,-0.69937 1.98543,-0.18271 1.94542,0.29707 1.82369,0.74002 -2.31614,3.57165 -0.82033,-0.26237 -0.8581,-0.0858 -0.86758,0.10657 -0.84605,0.31344 -0.67368,0.43535 -0.55775,0.54567 -0.73544,1.33393 -0.1851,1.51195 0.13207,0.76806 0.29109,0.74742 5.84522,11.43461 -3.85724,1.97177 -5.84477,-11.43372 -0.60917,-1.56078 -0.27767,-1.59995 0.0381,-1.59517 0.34132,-1.54688 0.62928,-1.45374 0.90286,-1.3162 1.16254,-1.13336 1.40606,-0.90743 v 0"
         id="path23005" />
      <path
         style="color:#000000;fill:#800080;stroke-width:0.999996;-inkscape-stroke:none"
         d="m 157.89212,589.83039 -2.07129,1.33734 -1.7123,1.6727 -1.33065,1.94255 -0.92901,2.14604 -0.50381,2.28358 -0.0591,2.35386 0.40742,2.3591 0.89616,2.29794 1.33734,2.07128 1.67358,1.71185 1.94255,1.33065 2.14605,0.92901 2.28358,0.50381 2.35385,0.0591 2.35864,-0.40832 2.29705,-0.8957 1.4271,-0.8553 1.26869,-1.01578 1.10375,-1.15609 0.93407,-1.27712 0.75562,-1.37794 0.5711,-1.4577 0.38091,-1.51995 0.18332,-1.56158 0.0287,-0.54811 -5.74283,-0.2932 -0.0291,0.54722 -0.29679,1.6252 -0.6991,1.4973 -1.07623,1.28464 -1.4259,0.98946 -1.21492,0.47505 -1.24673,0.21728 -1.24224,-0.031 -1.20497,-0.26565 -1.13229,-0.49037 -1.02461,-0.70376 -0.88285,-0.90538 -0.70745,-1.09612 -0.47462,-1.21627 -0.21682,-1.24584 0.0296,-1.24267 0.26566,-1.20497 0.49082,-1.1314 0.70286,-1.02416 0.90582,-0.8842 1.09658,-0.70655 1.77155,-0.5945 1.80269,-0.0612 -5.20304,8.03703 4.82617,3.12251 8.5529,-13.19618 -0.32212,-0.31377 -1.45308,-1.208 -1.60696,-0.95975 -1.7263,-0.70108 -1.81289,-0.43108 -1.8663,-0.15109 -1.88472,0.14023 -1.87175,0.44244 -1.82335,0.75462 v 0 m 0.49886,0.97589 1.6072,-0.66996 1.64627,-0.40018 1.65841,-0.14134 1.64365,0.10879 1.60152,0.34933 1.53291,0.57982 1.43693,0.80071 1.31359,1.01201 -7.44865,11.49402 -2.98683,-1.93226 5.49597,-8.49001 -0.76052,-0.17615 -1.27355,-0.1823 -1.29707,0.0397 -1.29234,0.26867 -1.25801,0.50719 -1.27933,0.82581 -1.05787,1.03492 -0.8216,1.20054 -0.57451,1.32579 -0.31167,1.41156 -0.0367,1.45517 0.25181,1.45707 0.55379,1.4195 0.82581,1.27932 1.03358,1.05744 1.20099,0.82249 1.32668,0.57406 1.41156,0.31166 1.45428,0.0371 1.45841,-0.25137 1.41861,-0.55334 1.55137,-1.06258 1.19443,-1.36978 0.81986,-1.59721 0.42857,-1.7431 3.58976,0.18313 -0.21971,1.34097 -0.37884,1.30213 -0.53361,1.24761 -0.68362,1.17605 -0.82929,1.09103 -0.97152,0.98854 -1.10763,0.87169 -1.24075,0.7387 -2.09336,0.8174 -2.14741,0.37334 -2.14136,-0.052 -2.077,-0.4578 -1.95164,-0.84532 -1.76618,-1.21191 -1.52286,-1.5598 -1.21809,-1.88853 -0.81786,-2.09426 -0.37245,-2.14786 0.052,-2.14136 0.4578,-2.077 0.84532,-1.95164 1.21192,-1.76618 1.56024,-1.52197 1.88854,-1.21809 v 0"
         id="path22993" />
    </g>
    <text
       xml:space="preserve"
       transform="scale(0.26458333)"
       id="text19052"
       style="font-style:normal;font-weight:normal;font-size:40px;line-height:1.25;font-family:sans-serif;white-space:pre;shape-inside:url(#rect19054);display:inline;fill:#000000;fill-opacity:1;stroke:none" />
    <path
       d="m 61.083188,525.49574 -19.626361,10.03273 20.586173,40.27135 -8.904964,4.5521 -20.586174,-40.27135 -19.661087,10.05049 -4.5593815,-8.91921 48.1924125,-24.63532 4.559386,8.91922"
       style="font-size:108.712px;line-height:1.25;font-family:Audiowide;-inkscape-font-specification:Audiowide;letter-spacing:-6.42034px;fill:none;stroke:#000000;stroke-width:1.5;stroke-miterlimit:4;stroke-dasharray:none"
       id="path22728" />
    <path
       style="font-size:108.712px;line-height:1.25;letter-spacing:-6.42034px;fill:none;stroke:#000000;stroke-width:1.5;stroke-miterlimit:4;stroke-dasharray:none"
       d="m 10.965139,540.50904 -0.454809,1.40836 -0.136073,0.74003 0.02518,0.76768 0.393909,1.34399 0.299113,0.44233 0.321538,0.19839 0.30937,-0.11322 0.263065,-0.49161 1.335266,-4.13493 0.355316,-0.77911 0.491281,-0.6779 1.124228,-0.91611 0.496714,-0.16856 0.362886,0.0706 0.161387,0.34427 -0.106892,0.65212 -2.670988,8.26896 -0.11255,0.66961 0.147024,0.38868 0.342865,0.13245 0.473211,-0.0959 0.538912,-0.30131 0.540901,-0.47978 0.477809,-0.63396 0.349658,-0.76162 2.798078,-8.66186 0.354425,-0.77866 0.492172,-0.67836 1.123338,-0.91565 0.496714,-0.16856 0.362886,0.0706 0.162277,0.34382 -0.107783,0.65257 -2.797187,8.66141 -0.106893,0.65212 0.161388,0.34427 0.362886,0.0706 0.496714,-0.16856 1.124227,-0.91611 0.491282,-0.6779 0.355316,-0.77911 2.797188,-8.66141 0.355316,-0.77911 0.492171,-0.67836 1.123338,-0.91566 0.496714,-0.16856 0.362886,0.0706 0.161387,0.34428 -0.106892,0.65212 -2.797188,8.6614 -0.107783,0.65258 0.162278,0.34382 0.362886,0.0706 0.496714,-0.16856 1.123337,-0.91565 0.492172,-0.67837 0.355316,-0.77911 2.797188,-8.66141 0.355316,-0.77911 0.491282,-0.6779 1.124227,-0.91611 0.496714,-0.16856 0.362886,0.0706 0.161388,0.34427 -0.106893,0.65212 -2.798078,8.66186 -0.112551,0.66962 0.146154,0.39136 0.34156,0.1365 0.47234,-0.0932 0.538062,-0.29639 0.54003,-0.47709 0.476048,-0.63081 0.349658,-0.76162 2.931697,-9.07495 0.354426,-0.77866 0.492172,-0.67836 1.123337,-0.91565 0.496714,-0.16856 0.362886,0.0706 0.162278,0.34382 -0.107783,0.65257 -4.339629,13.43682 -0.168282,0.83961 0.003,0.83854 0.374739,1.40096 0.304356,0.42842 0.335471,0.15534 0.331547,-0.18408 0.294817,-0.59208 5.748907,-17.79825 0.355316,-0.77911 0.492172,-0.67837 1.123337,-0.91565 0.496714,-0.16856 0.362886,0.0706 0.161387,0.34427 -0.106892,0.65213 -2.797188,8.6614 -0.107783,0.65258 0.162278,0.34382 0.362886,0.0706 0.496714,-0.16856 1.123337,-0.91566 0.492172,-0.67836 0.355316,-0.77911 2.797099,-8.66136 0.355049,-0.77898 0.491905,-0.67822 1.123693,-0.91584 0.496625,-0.16851 0.362975,0.0705 0.161654,0.34414 -0.107159,0.65226 -2.797811,8.66172 -0.106892,0.65212 0.162277,0.34382 0.362886,0.0706 0.495824,-0.1681 1.124139,-0.91607 0.491904,-0.67822 0.355049,-0.77898 2.797366,-8.66149 0.337382,-0.7239 0.445166,-0.53304 0.494665,-0.33822 0.486882,-0.13771 0.420813,0.0668 0.296551,0.27518 0.115005,0.48928 -0.124916,0.70738 -2.384083,7.38106 -0.107248,0.6523 0.161743,0.34409 0.362975,0.0705 0.496536,-0.16846 1.123783,-0.91588 0.491815,-0.67818 0.355138,-0.77903 1.191814,-3.69097 0.199855,-0.29758 0.264451,0.0254 0.584962,0.75105 0.429599,1.23367 0.07009,0.62903 -0.07286,0.546 -0.311446,0.96446 m -17.81732,10.4231 -3.323397,10.2882 -0.168281,0.83961 0.003,0.83854 0.374739,1.40096 0.304357,0.42842 0.33547,0.15534 0.331547,-0.18408 0.295273,-0.59119 2.794576,-8.65333 0.294382,-0.59073 0.332438,-0.18454 0.335465,0.15533 0.304357,0.42842 0.374739,1.40097 0.0021,0.83899 -0.167391,0.83915 -2.795027,8.65245 -0.167826,0.8405 0.0025,0.83764 0.375194,1.40186 0.303901,0.42752 0.33547,0.15534 0.332003,-0.18319 0.294817,-0.59207 2.795032,-8.65245 0.293926,-0.59162 0.332438,-0.18454 0.335925,0.15623 0.303902,0.42753 0.375189,1.40185 0.0017,0.8381 -0.167386,0.83916 -2.795032,8.65244 -0.167826,0.84051 0.0025,0.83763 0.375194,1.40186 0.303902,0.42753 0.33547,0.15534 0.332002,-0.1832 0.294817,-0.59207 2.795032,-8.65245 0.293927,-0.59162 0.332437,-0.18454 0.335926,0.15623 0.303901,0.42753 0.375194,1.40186 0.0016,0.83809 -0.167387,0.83916 -2.794576,8.65334 -0.168281,0.83961 0.0025,0.83764 0.37519,1.40185 0.303906,0.42754 0.33592,0.15622 0.331548,-0.18409 0.294817,-0.59207 2.795031,-8.65244 0.293927,-0.59163 0.332893,-0.18364 0.33547,0.15534 0.303901,0.42752 0.375195,1.40186 0.0016,0.83809 -0.166931,0.84006 -2.795032,8.65244 -0.168281,0.83961 0.0025,0.83764 0.375195,1.40186 0.303901,0.42753 0.335921,0.15622 0.331547,-0.18408 0.294813,-0.59209 2.795031,-8.65244 0.293927,-0.59162 0.332893,-0.18365 0.33547,0.15534 0.303901,0.42753 0.375195,1.40185 0.0016,0.83809 -0.166931,0.84006 -2.795032,8.65244 -0.158691,0.81224 0.02516,0.76543 0.170077,0.66666 0.276497,0.51453 0.341767,0.31046 0.369,0.054 0.35505,-0.25675 0.303522,-0.61898 2.588291,-8.0133 0.294382,-0.59073 0.332438,-0.18454 0.335465,0.15533 0.304357,0.42842 0.374739,1.40097 0.0021,0.83899 -0.167386,0.83916 -1.294378,4.00619 -0.05683,0.49739 0.197513,0.23259 0.384648,0.003 0.503678,-0.19008 1.094611,-0.82685 0.456937,-0.56713 0.304373,-0.62392 0.413916,-1.27964"
       id="path60" />
    <path
       d="m 113.05016,533.93288 0.9723,2.26126 0.56744,2.18745 0.20012,2.06076 -0.0934,1.95135 -0.38292,1.80736 -0.63355,1.69738 -0.85417,1.54063 -1.01094,1.40289 -1.11088,1.24958 -1.224,1.11311 -2.53139,1.63992 -16.064099,8.21175 -2.018507,0.82631 -2.356322,0.58795 -2.553397,0.22373 -2.610008,-0.26731 -2.585171,-0.85278 -2.513031,-1.42986 -1.187197,-0.99126 -1.100798,-1.20278 -1.015031,-1.41507 -0.928722,-1.62654 -6.172484,-12.07481 -0.7654,-1.68756 -0.543451,-1.63368 -0.321591,-1.57975 -0.09955,-1.52592 0.303663,-2.89218 0.831423,-2.57796 1.299135,-2.29706 1.672199,-1.94756 1.856552,-1.56562 1.851916,-1.1522 16.064104,-8.21175 1.687922,-0.76514 1.638268,-0.54546 1.58907,-0.32489 1.538873,-0.10606 2.880969,0.29052 1.32948,0.35587 1.25578,0.49687 2.258205,1.29058 1.93459,1.67164 1.5966,1.85565 1.17487,1.87583 6.17249,12.07481 m -15.042395,-7.45303 -1.055541,-1.49432 -0.609007,-0.47821 -0.663134,-0.29893 -0.713583,-0.12826 -0.758984,0.0365 -1.655087,0.56529 -15.995542,8.17671 -1.448686,1.03254 -0.475089,0.60787 -0.308803,0.66885 -0.149254,0.70635 0.02103,0.75407 0.553465,1.65327 6.172483,12.07481 1.020494,1.42576 0.604366,0.46935 0.667687,0.30783 0.723001,0.14141 0.770947,-0.0291 1.685371,-0.56954 15.995541,-8.17671 1.46578,-1.04129 0.47073,-0.60563 0.29598,-0.6623 0.12656,-0.71383 -0.0372,-0.7593 -0.56657,-1.6578 -6.136978,-12.00536"
       style="font-size:108.712px;line-height:1.25;font-family:Audiowide;-inkscape-font-specification:Audiowide;letter-spacing:-6.42034px;fill:none;stroke:#000000;stroke-width:1.5;stroke-miterlimit:4;stroke-dasharray:none"
       id="path22730" />
    <path
       style="font-size:108.712px;line-height:1.25;letter-spacing:-6.42034px;fill:none;stroke:#000000;stroke-width:1.5;stroke-miterlimit:4;stroke-dasharray:none"
       d="m 67.319582,528.25899 -2.300447,7.12043 -0.182971,0.88755 -0.0381,0.96399 0.252283,1.78141 0.238264,0.63065 0.278191,0.33286 0.29206,-0.0583 0.278875,-0.54461 3.980505,-12.32221 0.357215,-0.78682 0.498087,-0.69711 1.142499,-0.97374 0.506635,-0.19946 0.37168,0.0436 0.168371,0.32497 -0.105176,0.6445 -5.465049,16.91978 -0.167381,0.84027 0.0019,0.83796 0.375461,1.40172 0.303813,0.42758 0.335287,0.15542 0.332626,-0.18351 0.294372,-0.59185 6.873689,-21.28202 0.355138,-0.77902 0.491904,-0.67823 1.123694,-0.91583 0.496625,-0.16852 0.36297,0.0705 0.161655,0.34413 -0.10716,0.65226 -2.930194,9.07306 -0.101412,0.63472 0.176625,0.29719 0.384213,0.005 0.521088,-0.24391 1.169394,-1.05712 0.506786,-0.72513 0.360885,-0.79655 2.797366,-8.6615 0.355138,-0.77902 0.491816,-0.67818 1.123779,-0.91588 0.496625,-0.16851 0.362886,0.0706 0.161743,0.34409 -0.107248,0.6523 -2.797363,8.66149 -0.107159,0.65226 0.161743,0.34409 0.362886,0.0706 0.496625,-0.16851 1.123694,-0.91584 0.491905,-0.67822 0.355138,-0.77902 2.798668,-8.66553 0.351665,-0.76714 0.481885,-0.6484 1.094374,-0.82335 0.4806,-0.11989 0.349225,0.11348 0.151723,0.37392 -0.110721,0.66418 -2.712681,8.39809 -0.107159,0.65226 0.161654,0.34413 0.362975,0.0705 0.496625,-0.16851 1.123693,-0.91583 0.491905,-0.67823 0.355049,-0.77897 2.410811,-7.46323 0.334236,-0.71556 0.43741,-0.50998 0.48423,-0.30481 0.474606,-0.1 0.408538,0.1045 0.286026,0.30864 0.107249,0.51233 -0.127517,0.71657 -1.93877,6.00114 -0.122215,0.69926 0.121968,0.46775 0.306383,0.24432 0.432219,0.0317 0.497832,-0.17363 0.504864,-0.36814 0.452219,-0.55461 0.340082,-0.73202 1.675705,-5.18832 0.322663,-0.67931 0.406686,-0.41454 0.440706,-0.17026 0.424731,0.0547 0.358385,0.25817 0.242957,0.44408 0.07607,0.60689 -0.139179,0.75286 -1.744919,5.40115 -0.162782,0.82444 0.01543,0.79849 0.414346,1.27852 0.325149,0.36276 0.353835,0.0988 0.345594,-0.22383 0.299516,-0.60684 2.15723,-6.67997 0.31083,-0.64182 0.37536,-0.31654 0.39569,-0.0327 0.37373,0.21326 0.30729,0.41681 0.19803,0.58161 0.0452,0.70577 -0.15146,0.78946 -2.53625,7.8508 -0.16747,0.84032 0.002,0.83796 0.37546,1.40173 0.30381,0.42757 0.33529,0.15542 0.33217,-0.1844 0.29491,-0.591 2.79084,-8.64132 0.29473,-0.59203 0.33252,-0.1857 0.33607,0.15388 0.30478,0.42596 0.37668,1.39774 0.002,0.83661 -0.16748,0.83921 -2.79485,8.65235 -0.16895,0.84444 -0.002,0.84989 0.36396,1.4368 0.29781,0.44637 0.32998,0.17161 0.32852,-0.17243 0.29334,-0.58683 2.82793,-8.75461 0.29437,-0.59186 0.33217,-0.1844 0.33574,0.15631 0.30382,0.42757 0.37546,1.40173 0.002,0.83796 -0.16784,0.83938 -7.01836,21.72995 -0.35504,0.77898 -0.49191,0.67823 -1.12378,0.91587 -0.49654,0.16847 -0.362969,-0.0705 -0.161743,-0.34409 0.107244,-0.65231 2.908178,-9.00341 0.10247,-0.63749 -0.17456,-0.3061 -0.38055,-0.0155 -0.51681,0.23162 -1.16201,1.03313 -0.50435,0.71715 -0.359832,0.79378 -2.797367,8.66148 -0.355045,0.77899 -0.491904,0.67823 -1.123698,0.91582 -0.496625,0.16851 -0.362971,-0.0705 -0.161654,-0.34414 0.107155,-0.65226 2.79737,-8.66149 0.107155,-0.65227 -0.161654,-0.34413 -0.362971,-0.0705 -0.496625,0.16851 -1.123698,0.91583 -0.491905,0.67823 -0.355044,0.77898 -2.847948,8.81762 -0.346858,0.75457 -0.470934,0.61248 -0.531325,0.45017 -0.528487,0.26679 -0.462052,0.0632 -0.333211,-0.16322 -0.140683,-0.40989 0.11535,-0.67666 2.661317,-8.24041 0.107244,-0.65232 -0.161743,-0.34409 -0.362971,-0.0705 -0.496536,0.16847 -1.123787,0.91587 -0.491905,0.67822 -0.355044,0.77899 -2.332991,7.22242 -0.334593,0.71573 -0.437845,0.51133 -0.484566,0.30723 -0.475575,0.1016 -0.409057,-0.10201 -0.286451,-0.30617 -0.107685,-0.51098 0.12725,-0.71644 1.899252,-5.87874 0.1236,-0.70446 -0.117695,-0.48004 -0.300913,-0.26284 -0.424968,-0.0512 -0.491491,0.15242 -0.499028,0.35056 -0.447857,0.54227 -0.338697,0.72682 -1.675626,5.18716 -0.32293,0.67945 -0.407211,0.41593 -0.440952,0.17262 -0.425245,-0.0522 -0.359267,-0.25659 -0.243293,-0.44167 -0.07696,-0.60643 0.139279,-0.75178 1.792785,-5.55028 0.163998,-0.82844 -0.01167,-0.80827 -0.404613,-1.31045 -0.319936,-0.38002 -0.34877,-0.11259 -0.341924,0.21409 -0.29821,0.6028 -2.250385,6.9668 -0.310397,0.64047 -0.374141,0.31255 -0.393947,0.0273 -0.371453,-0.21892 -0.305474,-0.42336 -0.196198,-0.58703 -0.04398,-0.70977 0.1519,-0.7908 2.617977,-8.10484 0.167836,-0.83939 -0.0024,-0.83885 -0.375007,-1.40083 -0.304267,-0.42846 -0.335288,-0.15543 -0.33217,0.18441 -0.294827,0.59095 -2.821819,8.73802 -0.293422,0.58799 -0.329401,0.174 -0.330846,-0.16892 -0.299035,-0.44349 -0.365698,-1.4303 7.6e-4,-0.84832 0.168964,-0.84332 2.794854,-8.65236 0.173741,-0.85924 0.01417,-0.88887 -0.325388,-1.55422 -0.277807,-0.5105 -0.312131,-0.22679 -0.315987,0.13345 -0.288556,0.57203 -3.466819,10.73551 m 41.680552,-17.19494 -6.138,19.00343 -0.10655,0.6497 0.16402,0.33844 0.36557,0.0613 0.49967,-0.17905 1.12987,-0.93472 0.49418,-0.68388 0.35574,-0.78157 4.16111,-12.88286 0.28002,-0.54633 0.29397,-0.0649 0.28106,0.32352 0.24185,0.62098 0.25827,1.76149 -0.0362,0.95739 -0.18219,0.88491 -2.63267,8.15166"
       id="path61" />
    <path
       d="m 157.30512,511.31033 0.58925,1.34299 0.47021,1.4903 0.35952,1.59069 0.1878,1.67734 -0.0225,1.7096 -0.23684,1.75516 -0.45681,1.74742 -0.74953,1.72412 -1.03852,1.62363 -1.35764,1.54867 -1.71174,1.42645 -2.10034,1.25785 -16.06402,8.21172 -2.81186,1.09147 -1.6018,0.3314 -1.68064,0.17741 -1.70355,-0.0153 -1.74038,-0.21432 -1.75551,-0.47613 -1.71497,-0.73495 -1.63636,-1.06714 -1.55309,-1.36915 -1.44084,-1.74098 -1.26346,-2.11242 -20.568426,-40.23662 8.905496,-4.55237 20.56842,40.23662 0.46429,0.74985 0.5509,0.60226 0.63788,0.45559 0.72494,0.30889 0.76075,0.14121 0.7635,-0.0118 1.53533,-0.48274 16.06407,-8.21173 0.76066,-0.46633 0.6023,-0.54374 0.44483,-0.61936 0.28692,-0.69585 0.14557,-0.75051 -0.0135,-0.76581 -0.5058,-1.58105 -6.17248,-12.07481 -0.46716,-0.76074 -0.54355,-0.60376 -0.61946,-0.44592 -0.69537,-0.28805 -0.74788,-0.14779 -0.75922,0.01 -1.55291,0.49059 -16.06408,8.21175 -4.55938,-8.91921 16.06406,-8.21174 1.34117,-0.58788 1.48842,-0.46885 1.5801,-0.35288 1.65036,-0.17317 1.73375,0.0111 1.76173,0.23486 1.73827,0.46361 1.69838,0.76589 1.62316,1.04132 1.54857,1.36021 1.42761,1.71519 1.25889,2.10353 6.17249,12.07481"
       style="font-size:108.712px;line-height:1.25;font-family:Audiowide;-inkscape-font-specification:Audiowide;letter-spacing:-6.42034px;fill:none;stroke:#000000;stroke-width:1.5;stroke-miterlimit:4;stroke-dasharray:none"
       id="path22732" />
    <path
       style="font-size:108.712px;line-height:1.25;letter-spacing:-6.42034px;fill:none;stroke:#000000;stroke-width:1.5;stroke-miterlimit:4;stroke-dasharray:none"
       d="m 97.976174,491.52997 -0.366886,1.13657 -0.09715,0.62131 0.05241,0.68187 0.415672,1.27672 0.599344,0.70889 0.281678,-0.0283 0.22414,-0.37288 1.247258,-3.86307 0.35505,-0.77898 0.4919,-0.67822 1.1237,-0.91584 0.49662,-0.16851 0.36297,0.0705 0.16166,0.34414 -0.10716,0.65226 -2.49497,7.72526 -0.16784,0.83938 0.002,0.83885 0.37501,1.40083 0.30427,0.42847 0.33528,0.15542 0.33218,-0.1844 0.29482,-0.59096 2.7944,-8.65324 0.29492,-0.59101 0.33208,-0.18435 0.33529,0.15542 0.30435,0.42842 0.37492,1.40088 0.002,0.8388 -0.16793,0.83943 -2.79485,8.65235 -0.16738,0.84027 0.002,0.83796 0.37546,1.40173 0.30381,0.42757 0.33529,0.15542 0.33217,-0.1844 0.29483,-0.59096 2.79485,-8.65235 0.29446,-0.59189 0.33208,-0.18436 0.33575,0.15631 0.3039,0.42753 0.37537,1.40177 0.002,0.83791 -0.16792,0.83943 -2.79486,8.65235 -0.16738,0.84028 0.002,0.83796 0.37546,1.40172 0.30381,0.42757 0.33529,0.15542 0.33263,-0.18351 0.29437,-0.59185 2.79485,-8.65235 0.29446,-0.59189 0.33209,-0.18436 0.33574,0.15631 0.3039,0.42753 0.37537,1.40177 0.002,0.83792 -0.16792,0.83942 -2.7944,8.65325 -0.16784,0.83938 0.002,0.83796 0.37546,1.40172 0.30382,0.42757 0.33574,0.15632 0.33217,-0.1844 0.29437,-0.59185 2.79486,-8.65235 0.29445,-0.59191 0.33254,-0.18346 0.33529,0.15542 0.3039,0.42753 0.37537,1.40176 0.002,0.83792 -0.16747,0.84032 -2.79485,8.65235 -0.16784,0.83938 0.002,0.83796 0.37546,1.40172 0.30381,0.42758 0.33575,0.15631 0.33217,-0.1844 0.29437,-0.59185 2.79485,-8.65235 0.29446,-0.59191 0.33253,-0.18346 0.33529,0.15542 0.3039,0.42753 0.37538,1.40177 0.002,0.83791 -0.16748,0.84032 -2.79485,8.65235 -0.16783,0.83939 0.002,0.83885 0.375,1.40083 0.30427,0.42846 0.33529,0.15542 0.33217,-0.1844 0.29482,-0.59096 2.7944,-8.65324 0.29492,-0.591 0.33208,-0.18436 0.33529,0.15542 0.30436,0.42842 0.37492,1.40088 0.002,0.8388 -0.16793,0.83943 -2.73,8.45186 -0.15618,0.8031 0.0335,0.74323 0.18069,0.63314 0.28807,0.47718 0.35404,0.27274 0.37926,0.0206 0.36316,-0.27998 0.30612,-0.62818 2.45703,-7.60703 0.29491,-0.591 0.33208,-0.18436 0.33529,0.15543 0.30436,0.42841 0.37492,1.40088 0.002,0.83881 -0.16792,0.83943 -2.01683,6.24544 -0.14243,0.76013 0.0694,0.62939 0.23231,0.47424 0.34726,0.29418 0.41323,0.0897 0.4307,-0.1393 0.39963,-0.39297 0.32033,-0.67025 1.73046,-5.35782 0.32711,-0.6917 0.41765,-0.44934 0.45637,-0.21869 0.44257,-0.002 0.37641,0.20291 0.25835,0.39466 0.0879,0.57391 -0.13555,0.73865 -1.75213,5.42505 -0.1304,0.72478 0.10021,0.53503 0.27566,0.33976 0.39696,0.14074 0.46294,-0.0637 0.47378,-0.27364 0.43037,-0.48729 0.3319,-0.7065 2.08237,-6.44853 0.35505,-0.77897 0.4919,-0.67823 1.1237,-0.91583 0.49662,-0.16852 0.36298,0.0705 0.16165,0.34413 -0.10716,0.65226 -2.49567,7.72674 -0.11813,0.68594 0.13329,0.43388 0.32205,0.19588 0.44988,-0.0245 0.5164,-0.22804 0.52017,-0.41752 0.46309,-0.58937 0.34407,-0.74529 2.74959,-8.51241 0.35514,-0.77902 0.4919,-0.67823 1.1237,-0.91583 0.49662,-0.16851 0.36298,0.0705 0.16165,0.34413 -0.10716,0.65226 -2.79736,8.6615 -0.10725,0.6523 0.16174,0.34409 0.36298,0.0705 0.49653,-0.16847 1.12379,-0.91588 0.4919,-0.67823 0.35505,-0.77897 2.79737,-8.6615 0.35513,-0.77902 0.49182,-0.67818 1.12378,-0.91588 0.49663,-0.16851 0.36288,0.0706 0.16175,0.34409 -0.10725,0.6523 -2.79737,8.6615 -0.10716,0.65225 0.16175,0.34409 0.36288,0.0706 0.49663,-0.16851 1.12369,-0.91583 0.4919,-0.67823 0.35514,-0.77902 7.77578,-24.07466 0.29486,-0.59098 0.33214,-0.18438 0.33529,0.15542 0.30381,0.42757 0.37543,1.40174 0.002,0.83795 -0.16742,0.84029 -6.36713,19.71243 -0.10716,0.65225 0.16165,0.34414 0.36298,0.0705 0.49662,-0.16851 1.1237,-0.91583 0.4919,-0.67823 0.35509,-0.77899 4.958,-15.35107 0.29259,-0.58421 0.32655,-0.1658 0.32702,0.18099 0.29442,0.45708 0.35732,1.45592 -0.004,0.85653 -0.16968,0.84706 -3.49552,10.82205 -0.0755,0.55296 0.24578,0.0833 1.11503,-0.88894 1.37918,-1.70681 0.96323,-1.8165 0.93631,-2.89887 m -39.42426,-19.61853 -0.53907,1.66931 -0.16747,0.84032 0.002,0.83791 0.37492,1.40088 0.30436,0.42842 0.33528,0.15542 0.33209,-0.18435 0.29491,-0.59101 1.41944,-4.39582 0.35504,-0.77898 0.49191,-0.67823 1.12369,-0.91583 0.49663,-0.16851 0.36297,0.0705 0.16166,0.34414 -0.10716,0.65225 -2.79737,8.6615 -0.10716,0.65226 0.16166,0.34413 0.36297,0.0705 0.49663,-0.16852 1.12369,-0.91583 0.49191,-0.67823 0.35504,-0.77897 2.79746,-8.66154 0.35505,-0.77898 0.4919,-0.67822 1.1237,-0.91584 0.49662,-0.16851 0.36298,0.0705 0.16165,0.34414 -0.10716,0.65226 -2.79736,8.66149 -0.10716,0.65226 0.16165,0.34414 0.36298,0.0705 0.49662,-0.16851 1.12369,-0.91584 0.49191,-0.67822 0.35505,-0.77898 2.77625,-8.59455 0.34551,-0.74939 0.46662,-0.60016 0.52534,-0.43252 0.52168,-0.24646 0.45565,-0.042 0.32724,0.18088 0.13641,0.42218 -0.11677,0.68188 -2.55311,7.90546 -0.10725,0.6523 0.16174,0.34409 0.36289,0.0706 0.49663,-0.16851 1.12378,-0.91588 0.49181,-0.67818 0.35513,-0.77902 2.16749,-6.71104 0.33268,-0.70914 0.43277,-0.49414 0.47718,-0.28323 0.46637,-0.0756 0.40033,0.12891 0.27906,0.33017 0.10258,0.52819 -0.13004,0.72124 -1.76578,5.46797 -0.13253,0.73036 0.0954,0.55098 0.26834,0.36148 0.38882,0.16623 0.45441,-0.0391 0.46696,-0.25106 0.42555,-0.47135 0.32974,-0.7009 1.70603,-5.28244 0.32122,-0.67296 0.40154,-0.40068 0.43414,-0.14892 0.41673,0.0779 0.35116,0.2832 0.2358,0.46346 0.0718,0.62255 -0.14107,0.75831 -1.9289,5.97138 -0.16745,0.83807 0.003,0.835 0.37871,1.39108 0.30573,0.4221 0.33714,0.1511 0.33352,-0.18733 0.29481,-0.5932 2.38973,-7.39742 0.30751,-0.63338 0.36749,-0.29231 0.38484,0.002 0.36098,0.25236 0.29449,0.45592 0.18719,0.61634 0.0368,0.72915 -0.15431,0.79877 -2.69863,8.35609 -0.16787,0.8394 0.002,0.83794 0.37543,1.40174 0.30381,0.42758 0.33574,0.15631 0.33214,-0.18439 0.2944,-0.59186 2.79628,-8.65757 0.29472,-0.59091 0.33223,-0.18331 0.33477,0.15569 0.30374,0.42874 0.37477,1.40319 0.002,0.83902 -0.16755,0.84036 -3.32316,10.28808"
       id="path62" />
    <path
       d="m 201.04628,488.95044 0.9723,2.26126 0.56744,2.18745 0.20012,2.06077 -0.0934,1.95134 -0.38292,1.80736 -0.63364,1.69743 -0.85408,1.54058 -1.01094,1.40289 -1.11097,1.24963 -1.22391,1.11306 -2.53139,1.63992 -16.0641,8.21176 -2.01851,0.82631 -2.35641,0.58799 -2.55331,0.22369 -2.61001,-0.26731 -2.58526,-0.85274 -2.51298,-1.42989 -1.18716,-0.99128 -1.10085,-1.20274 -1.01499,-1.4151 -0.92872,-1.62654 -6.17248,-12.07481 -0.7654,-1.68756 -0.5435,-1.63366 -0.32153,-1.57978 -0.0996,-1.5259 0.30361,-2.89215 0.83151,-2.578 1.29913,-2.29706 1.67211,-1.94752 1.85664,-1.56566 1.85192,-1.1522 16.06411,-8.21176 1.68792,-0.76513 1.63827,-0.54546 1.58907,-0.3249 1.53887,-0.10606 2.88097,0.29052 1.32948,0.35587 1.25578,0.49687 2.25821,1.29058 1.93459,1.67164 1.5966,1.85565 1.17487,1.87583 6.17248,12.07482 m -15.04239,-7.45304 -1.05554,-1.49432 -0.60901,-0.47821 -0.66313,-0.29893 -0.71358,-0.12825 -0.75899,0.0365 -1.65509,0.56529 -15.99563,8.17676 -1.4486,1.0325 -0.47509,0.60786 -0.3088,0.66886 -0.14925,0.70634 0.0209,0.75412 0.55355,1.65322 6.17248,12.07482 1.02041,1.4258 0.60445,0.46931 0.66769,0.30783 0.723,0.14141 0.77095,-0.0291 1.68528,-0.56949 15.99564,-8.17675 1.46578,-1.04129 0.47072,-0.60563 0.29598,-0.66231 0.12656,-0.71383 -0.0372,-0.75929 -0.56657,-1.65781 -6.13698,-12.00536"
       style="font-size:108.712px;line-height:1.25;font-family:Audiowide;-inkscape-font-specification:Audiowide;letter-spacing:-6.42034px;fill:none;stroke:#000000;stroke-width:1.5;stroke-miterlimit:4;stroke-dasharray:none"
       id="path22734" />
    <path
       style="font-size:108.712px;line-height:1.25;letter-spacing:-6.42034px;fill:none;stroke:#000000;stroke-width:1.5;stroke-miterlimit:4;stroke-dasharray:none"
       d="m 155.3157,483.27655 -2.30049,7.12045 -0.18291,0.88752 -0.0382,0.96401 0.25229,1.78141 0.23826,0.63066 0.2782,0.33285 0.29205,-0.0583 0.2789,-0.54462 3.98051,-12.32222 0.35722,-0.78682 0.49808,-0.69711 1.1425,-0.97373 0.50664,-0.19947 0.37168,0.0436 0.16748,0.32543 -0.10509,0.64445 -5.46504,16.91977 -0.16741,0.84029 0.002,0.83795 0.37543,1.40174 0.30381,0.42757 0.33529,0.15542 0.33259,-0.1835 0.2944,-0.59186 6.87368,-21.28201 0.35514,-0.77902 0.49191,-0.67823 1.12369,-0.91583 0.49662,-0.16852 0.36297,0.0705 0.16166,0.34413 -0.10716,0.65226 -2.93019,9.07306 -0.10142,0.63472 0.17654,0.29723 0.3843,0.005 0.521,-0.24386 1.16948,-1.05717 0.50679,-0.72513 0.36088,-0.79656 2.79737,-8.66149 0.35514,-0.77902 0.49181,-0.67818 1.12379,-0.91588 0.49653,-0.16847 0.36298,0.0705 0.16174,0.34409 -0.10725,0.65231 -2.79736,8.66149 -0.10716,0.65226 0.16174,0.34409 0.36289,0.0706 0.49662,-0.16851 1.1237,-0.91584 0.4919,-0.67822 0.35514,-0.77902 2.79867,-8.66554 0.35167,-0.76714 0.48188,-0.64839 1.09437,-0.82336 0.4806,-0.11989 0.34923,0.11348 0.15172,0.37392 -0.11072,0.66419 -2.71268,8.39808 -0.10716,0.65226 0.16165,0.34414 0.36298,0.0705 0.49662,-0.16851 1.1237,-0.91584 0.4919,-0.67822 0.35505,-0.77898 2.41081,-7.46323 0.33424,-0.71555 0.43741,-0.50998 0.48423,-0.30481 0.47452,-0.0999 0.40853,0.1045 0.28612,0.30859 0.10725,0.51234 -0.12752,0.71657 -1.93877,6.00114 -0.12221,0.69926 0.12196,0.46774 0.30639,0.24433 0.43222,0.0317 0.49783,-0.17362 0.50486,-0.36814 0.45222,-0.55462 0.34008,-0.73201 1.67571,-5.18833 0.32266,-0.67931 0.40669,-0.41454 0.44061,-0.1702 0.42482,0.0546 0.3583,0.25821 0.24305,0.44404 0.0761,0.60689 -0.13918,0.75285 -1.74492,5.40116 -0.16278,0.82444 0.0154,0.79848 0.41434,1.27852 0.32515,0.36276 0.35384,0.0988 0.34559,-0.22384 0.29943,-0.60678 2.15723,-6.67997 0.31092,-0.64187 0.37536,-0.31654 0.39569,-0.0327 0.37373,0.21326 0.30729,0.41681 0.19803,0.5816 0.0451,0.70583 -0.15138,0.78941 -2.53634,7.85085 -0.16738,0.84027 0.002,0.83796 0.37546,1.40172 0.30382,0.42758 0.33528,0.15542 0.33217,-0.1844 0.29483,-0.59096 2.79093,-8.64136 0.29473,-0.59203 0.33251,-0.1857 0.33608,0.15388 0.30478,0.42596 0.37668,1.39774 0.002,0.83661 -0.16748,0.8392 -2.79486,8.65235 -0.16895,0.84445 -0.002,0.84989 0.36396,1.4368 0.29781,0.44636 0.32998,0.17162 0.32852,-0.17243 0.29334,-0.58683 2.82793,-8.75462 0.29437,-0.59186 0.33217,-0.1844 0.33574,0.15632 0.30382,0.42757 0.37546,1.40172 0.002,0.83796 -0.16784,0.83939 -7.01836,21.72994 -0.35513,0.77903 -0.49182,0.67818 -1.12379,0.91588 -0.49653,0.16846 -0.36297,-0.0705 -0.16175,-0.34409 0.10725,-0.65231 2.90818,-9.00341 0.10247,-0.6375 -0.17456,-0.30609 -0.38064,-0.0154 -0.51672,0.23158 -1.16201,1.03312 -0.50435,0.71716 -0.35983,0.79377 -2.79737,8.66149 -0.35505,0.77899 -0.4919,0.67822 -1.1237,0.91583 -0.49662,0.16851 -0.36298,-0.0705 -0.16165,-0.34414 0.10716,-0.65227 2.79737,-8.66148 0.10715,-0.65227 -0.16165,-0.34414 -0.36297,-0.0705 -0.49663,0.16851 -1.1237,0.91583 -0.4919,0.67822 -0.35505,0.77899 -2.84794,8.81762 -0.34686,0.75457 -0.47094,0.61248 -0.53132,0.45017 -0.52849,0.26679 -0.46205,0.0632 -0.33321,-0.16322 -0.14068,-0.40989 0.11534,-0.67666 2.66132,-8.24042 0.10716,-0.65226 -0.16166,-0.34414 -0.36297,-0.0705 -0.49662,0.16851 -1.1237,0.91583 -0.49191,0.67822 -0.35504,0.77899 -2.33299,7.22241 -0.33459,0.71574 -0.43785,0.51133 -0.48457,0.30722 -0.47557,0.1016 -0.40906,-0.102 -0.28645,-0.30617 -0.10768,-0.51098 0.12725,-0.71644 1.89925,-5.87874 0.12351,-0.70441 -0.11769,-0.48004 -0.30083,-0.26289 -0.42506,-0.0511 -0.49149,0.15241 -0.49894,0.35051 -0.44794,0.54233 -0.3387,0.72681 -1.67554,5.18712 -0.32301,0.67949 -0.40713,0.41589 -0.44095,0.17262 -0.42533,-0.0521 -0.35927,-0.2566 -0.24329,-0.44166 -0.0769,-0.60648 0.13927,-0.75178 1.79279,-5.55029 0.164,-0.82843 -0.0118,-0.80822 -0.40453,-1.3105 -0.32002,-0.37998 -0.34868,-0.11264 -0.34193,0.2141 -0.2983,0.60284 -2.25038,6.96681 -0.31034,0.64044 -0.37416,0.31256 -0.39392,0.0273 -0.37147,-0.21892 -0.30538,-0.4234 -0.19629,-0.58698 -0.044,-0.70978 0.15192,-0.79081 2.61791,-8.10481 0.16793,-0.83943 -0.002,-0.8388 -0.37491,-1.40088 -0.30436,-0.42842 -0.33529,-0.15542 -0.33208,0.18435 -0.29492,0.59101 -2.8218,8.738 -0.29336,0.58797 -0.32942,0.17401 -0.33085,-0.16892 -0.29903,-0.4435 -0.3657,-1.43029 7.8e-4,-0.84833 0.16892,-0.8433 2.79488,-8.65237 0.17365,-0.8592 0.0143,-0.88891 -0.32539,-1.55423 -0.27789,-0.51045 -0.31205,-0.22683 -0.31607,0.1335 -0.28847,0.57198 -3.46688,10.73554 m 41.68053,-17.19493 -6.13791,19.00339 -0.10655,0.6497 0.16402,0.33843 0.36557,0.0613 0.49966,-0.17905 1.12988,-0.93472 0.49418,-0.68388 0.35574,-0.78158 4.16111,-12.88285 0.28002,-0.54633 0.29397,-0.0649 0.28097,0.32357 0.24194,0.62093 0.25827,1.76149 -0.0362,0.9574 -0.18219,0.8849 -2.63268,8.15167"
       id="path63" />
    <path
       d="m 228.87942,454.99334 -20.03728,10.24279 -1.47433,1.04566 -0.4815,0.61114 -0.31094,0.66996 -0.14925,0.70634 0.0209,0.75411 0.55355,1.65323 12.57301,24.59572 -8.9055,4.55237 -12.57301,-24.59572 -0.96775,-2.25236 -0.55414,-2.16167 -0.19566,-2.05181 0.10655,-1.92553 0.39954,-1.83833 0.65083,-1.68488 0.83279,-1.56114 0.98075,-1.39869 1.13253,-1.24941 1.22001,-1.0785 1.26883,-0.94061 1.2449,-0.73408 20.10575,-10.27779 4.55938,8.91921"
       style="font-size:108.712px;line-height:1.25;font-family:Audiowide;-inkscape-font-specification:Audiowide;letter-spacing:-6.42034px;fill:none;stroke:#000000;stroke-width:1.5;stroke-miterlimit:4;stroke-dasharray:none"
       id="path22736" />
    <path
       style="font-size:108.712px;line-height:1.25;letter-spacing:-6.42034px;fill:none;stroke:#000000;stroke-width:1.5;stroke-miterlimit:4;stroke-dasharray:none"
       d="m 199.55955,460.63498 -2.25237,6.97456 -0.18742,0.89993 -0.0496,0.99795 0.21851,1.88626 0.22043,0.68695 0.26271,0.38233 0.28065,-0.0244 0.27478,-0.5313 4.05432,-12.55086 0.35564,-0.78265 0.4948,-0.68532 1.13126,-0.93991 0.5009,-0.18081 0.36609,0.0588 0.16445,0.33709 -0.10656,0.64859 -5.45512,16.89 -0.16783,0.83938 0.002,0.83885 0.37501,1.40084 0.30381,0.42757 0.33574,0.15631 0.33217,-0.1844 0.29438,-0.59185 6.86421,-21.25133 0.35505,-0.77898 0.49191,-0.67823 1.12378,-0.91587 0.49653,-0.16847 0.36298,0.0705 0.16174,0.34409 -0.10725,0.6523 -2.92088,9.0436 -0.10176,0.63602 0.17576,0.30098 0.38246,0.009 0.51935,-0.23853 1.16607,-1.04758 0.50593,-0.72133 0.36053,-0.79525 2.79737,-8.6615 0.35505,-0.77898 0.4919,-0.67822 1.1237,-0.91584 0.49662,-0.16851 0.36297,0.0705 0.16166,0.34413 -0.10716,0.65226 -2.79737,8.6615 -0.10716,0.65225 0.16166,0.34414 0.36297,0.0705 0.49663,-0.16851 1.12369,-0.91583 0.49191,-0.67823 0.35504,-0.77898 2.79737,-8.66149 0.35514,-0.77902 0.4919,-0.67823 1.1237,-0.91583 0.49662,-0.16852 0.36297,0.0705 0.16166,0.34413 -0.10716,0.65226 -2.79737,8.6615 -0.10725,0.6523 0.16175,0.34409 0.36297,0.0705 0.49654,-0.16847 1.12378,-0.91588 0.49182,-0.67818 0.35513,-0.77902 1.85076,-5.72929 0.29447,-0.5919 0.33208,-0.18435 0.33574,0.15631 0.3039,0.42753 0.37537,1.40177 0.002,0.83791 -0.16792,0.83943 -0.96994,3.00366 m -18.79458,13.44848 -3.46127,10.71582 -0.16784,0.83938 0.002,0.83885 0.37501,1.40083 0.30426,0.42847 0.33529,0.15542 0.33217,-0.1844 0.29483,-0.59096 2.7944,-8.65324 0.29482,-0.59096 0.33217,-0.1844 0.33529,0.15542 0.30427,0.42846 0.37501,1.40083 0.002,0.83885 -0.16784,0.83939 -2.79485,8.65235 -0.16738,0.84027 0.002,0.83796 0.37546,1.40172 0.30381,0.42758 0.33529,0.15542 0.33263,-0.18351 0.29436,-0.59186 2.79486,-8.65235 0.29437,-0.59185 0.33217,-0.1844 0.33574,0.15631 0.30382,0.42758 0.37546,1.40172 0.002,0.83796 -0.16784,0.83938 -2.79485,8.65235 -0.16738,0.84028 0.002,0.83796 0.37546,1.40172 0.30381,0.42757 0.33529,0.15542 0.33262,-0.18351 0.29437,-0.59185 2.79485,-8.65236 0.29438,-0.59185 0.33217,-0.1844 0.33574,0.15631 0.30381,0.42758 0.37546,1.40172 0.002,0.83796 -0.16783,0.83938 -2.60831,8.07631 -0.10715,0.65227 0.16174,0.34409 0.36288,0.0705 0.49663,-0.16851 1.12379,-0.91587 0.49181,-0.67818 0.35514,-0.77903 1.30411,-4.03813 0.24894,-0.44959 0.29935,-0.0834 0.31598,0.21695 0.29728,0.44776 0.40176,1.32091 0.0347,0.73695 -0.12196,0.698 -0.42373,1.31162"
       id="path64" />
    <circle
       id="path80"
       style="fill:#000000;stroke:none;stroke-width:0.264583"
       cx="-265.10074"
       cy="650.96954"
       r="0.39687499" />
    <text
       xml:space="preserve"
       style="font-style:normal;font-weight:normal;font-size:17.9672px;line-height:1.25;font-family:sans-serif;fill:#000000;fill-opacity:1;stroke:none;stroke-width:0.264582"
       x="174.7182"
       y="129.11571"
       id="text87"><tspan
         sodipodi:role="line"
         style="font-style:normal;font-variant:normal;font-weight:normal;font-stretch:normal;font-family:Audiowide;-inkscape-font-specification:Audiowide;stroke-width:0.264582"
         x="174.7182"
         y="129.11571"
         id="tspan87" /></text>
    <text
       xml:space="preserve"
       transform="scale(0.26458333)"
       id="text233"
       style="font-style:normal;font-weight:normal;font-size:40px;line-height:1.25;font-family:sans-serif;white-space:pre;shape-inside:url(#rect233);display:inline;fill:#000000;fill-opacity:1;stroke:none" />
    <text
       xml:space="preserve"
       transform="scale(0.26458333)"
       id="text234"
       style="font-style:normal;font-weight:normal;font-size:40px;line-height:1.25;font-family:sans-serif;white-space:pre;shape-inside:url(#rect234);display:inline;fill:#000000;fill-opacity:1;stroke:none" />
    <path
       style="font-size:20.9487px;line-height:1.05;font-family:Audiowide;-inkscape-font-specification:Audiowide;stroke-width:0.264582"
       d="m 148.86442,671.99831 -7.48664,3.82706 -1.21984,-2.38629 7.48664,-3.82707 1.21984,2.3863 m -1.68081,-5.89501 -9.4904,4.85137 5.46561,10.69201 -2.36804,1.21051 -6.06643,-11.86735 -0.14605,-0.51047 0.0502,-0.50859 0.25234,-0.45019 0.42673,-0.33382 10.6653,-5.45196 1.21073,2.36849 m 3.45214,-3.24716 -2.36803,1.21051 -1.09376,-2.13965 2.36803,-1.21051 1.09376,2.13965 m 6.06644,11.86735 -2.36804,1.21051 -5.03276,-9.84523 2.36804,-1.21051 5.03276,9.84523 m 13.1791,-6.73698 -2.36804,1.21051 -2.79335,-5.46443 -0.58768,-0.74517 -0.754,-0.41869 -0.85144,-0.0701 -0.86657,0.25991 -4.14413,2.11843 3.82201,7.47675 -2.36804,1.21051 -4.43193,-8.6699 -0.14196,-0.50245 0.0643,-0.50344 0.25189,-0.45108 0.4181,-0.32829 5.33719,-2.7283 0.98957,-0.37894 1.15113,-0.17515 1.21754,0.0896 1.20705,0.42856 1.11912,0.84076 0.93589,1.33648 2.79335,5.46443 m 11.17954,-9.90729 0.40856,1.18152 0.0278,1.06506 -0.27077,0.93131 -0.49662,0.78171 -0.62097,0.62853 -0.67368,0.43534 -4.27137,2.18347 -1.17163,0.40463 -1.06605,0.0272 -0.9356,-0.27982 -0.77724,-0.48655 -0.62772,-0.62138 -0.43615,-0.67327 -1.63904,-3.20635 -0.34722,-0.88158 -0.11137,-0.82469 0.0812,-0.76812 0.22145,-0.68485 0.79022,-1.12834 0.98642,-0.72212 4.27138,-2.18347 1.21073,2.36848 -4.25312,2.17414 -0.3853,0.27445 -0.20861,0.33912 -0.0342,0.3881 0.14648,0.43837 1.62949,3.18765 0.27587,0.39357 0.33376,0.2146 0.39473,0.0307 0.44126,-0.14807 4.27138,-2.18347 0.38975,-0.27673 0.20407,-0.3368 0.0242,-0.39199 -0.15061,-0.43963 -5.46106,-10.6831 2.36848,-1.21074 5.46106,10.68311 m 22.47458,-8.80005 0.15087,0.51923 -0.0598,0.51351 -0.25636,0.44102 -0.41837,0.32842 -5.3371,2.72825 -1.61347,0.61814 -1.75881,0.26791 -1.80395,-0.18071 -1.75828,-0.67576 -1.59411,-1.27516 -0.71139,-0.88634 -0.62842,-1.06015 -3.33817,-6.53025 2.36759,-1.21028 3.33818,6.53025 0.54147,0.89008 0.59806,0.66463 1.3018,0.79341 1.31082,0.24861 1.16547,-0.10161 0.89402,-0.25037 0.47891,-0.20999 4.16265,-2.1279 -5.46607,-10.6929 2.3676,-1.21028 6.06688,11.86824 m 10.8694,-8.24495 0.40856,1.18153 0.0269,1.06551 -0.26989,0.93085 -0.49661,0.78172 -0.62098,0.62852 -0.67367,0.43535 -6.41183,3.27764 -1.21028,-2.3676 6.39402,-3.26853 0.39153,-0.27764 0.21119,-0.34044 0.0305,-0.39518 -0.14793,-0.44099 -0.28823,-0.3749 -0.33677,-0.20183 -0.38353,-0.0274 -0.43207,0.14562 -3.67026,1.87619 -0.75894,0.30149 -0.71106,0.10517 -1.2413,-0.22687 -0.94303,-0.63203 -0.59755,-0.80864 -0.30243,-0.7652 -0.0953,-0.70935 0.25902,-1.24651 0.68199,-0.95734 0.8593,-0.63467 5.8197,-2.97495 1.21074,2.36848 -5.8019,2.96585 -0.26795,0.19425 -0.0994,0.18783 0.0203,0.17379 0.0657,0.15058 0.17084,0.20018 0.17006,0.0624 0.17814,-0.0338 0.17274,-0.0883 3.67026,-1.87619 0.8842,-0.34867 0.83172,-0.11519 0.7659,0.0768 0.68717,0.22599 1.1139,0.78615 0.73647,0.99031 v 0 m 20.69387,-13.04808 0.48295,1.1974 0.22855,1.20728 -0.0118,1.18303 -0.24173,1.12873 -0.4651,1.05648 -0.6837,0.96719 -0.88437,0.83168 -1.07806,0.67688 -3.20636,1.63904 -1.18268,0.47879 -1.19829,0.23295 -1.18438,-0.0122 -1.12873,-0.24174 -1.05826,-0.46419 -0.97386,-0.67916 -0.84383,-0.89276 -0.68774,-1.09272 -1.27582,-2.49581 -0.47976,-1.19118 -0.22809,-1.20415 0.0176,-1.19158 0.24579,-1.12519 0.4651,-1.05648 0.6837,-0.96719 0.88742,-0.8411 1.07936,-0.68091 3.20636,-1.63905 1.18138,-0.47475 1.19525,-0.22353 1.18437,0.0123 1.12873,0.24173 1.05421,0.46065 0.96812,0.68772 0.84335,0.88963 0.68455,1.08648 1.27583,2.49582 m -3.64431,-1.28508 -0.8743,-1.15009 -1.12657,-0.65276 -1.29635,-0.13022 -1.36398,0.40974 -3.20636,1.63904 -1.14874,0.87474 -0.65365,1.12703 -0.13959,1.3 0.4291,1.37768 1.27582,2.49581 0.86995,1.16355 1.13548,0.64821 1.29634,0.13022 1.37724,-0.42775 3.18766,-1.62949 1.14529,-0.86173 0.66255,-1.13158 0.13068,-1.29546 -0.42474,-1.39113 -1.27583,-2.49581 m 19.33183,-0.072 -2.36759,1.21028 -2.79335,-5.46443 -0.58759,-0.74522 -0.75419,-0.4186 -0.85215,-0.0698 -0.86576,0.25951 -4.14485,2.11879 3.82202,7.47675 -2.36759,1.21028 -4.43194,-8.6699 -0.14222,-0.50231 0.0648,-0.50372 0.25135,-0.45081 0.41837,-0.32841 5.3371,-2.72826 0.98992,-0.37913 1.15051,-0.17483 1.21816,0.0893 1.20643,0.42888 1.11931,0.84066 0.93588,1.33649 2.79335,5.46443 m 3.79894,-3.44578 0.13653,0.51534 -0.0635,0.50415 -0.24746,0.43646 -0.40056,0.31932 -0.51032,0.14632 -0.4996,-0.0546 -0.43692,-0.24834 -0.32796,-0.41748 -0.13768,-0.49341 0.055,-0.49871 0.2438,-0.44582 0.41247,-0.33776 0.49841,-0.12788 0.50326,0.0639 0.44537,0.2429 0.32911,0.39555 v 0 m -3.81337,-7.45983 0.13698,0.51622 -0.0639,0.50326 -0.24745,0.43647 -0.40011,0.3202 -0.51078,0.14543 -0.4996,-0.0546 -0.43646,-0.24746 -0.32842,-0.41836 -0.13722,-0.49252 0.0546,-0.4996 0.24379,-0.44583 0.41292,-0.33686 0.49797,-0.12877 0.50325,0.0639 0.44583,0.2438 0.32865,0.39466 v 0"
       id="text303"
       aria-label="Find Us On:" />
  </g>
</svg>
