<?xml version="1.0" encoding="UTF-8" standalone="no"?>
<!-- Created with Inkscape (http://www.inkscape.org/) -->

<svg
   inkscape:version="1.3.2 (091e20e, 2023-11-25, custom)"
   sodipodi:docname="find_us.svg"
   id="svg5"
   version="1.1"
   viewBox="0 0 400.00001 400.00001"
   height="400mm"
   width="400mm"
   xmlns:inkscape="http://www.inkscape.org/namespaces/inkscape"
   xmlns:sodipodi="http://sodipodi.sourceforge.net/DTD/sodipodi-0.dtd"
   xmlns:xlink="http://www.w3.org/1999/xlink"
   xmlns="http://www.w3.org/2000/svg"
   xmlns:svg="http://www.w3.org/2000/svg">
  <sodipodi:namedview
     id="namedview7"
     pagecolor="#ffffff"
     bordercolor="#666666"
     borderopacity="1.0"
     inkscape:pageshadow="2"
     inkscape:pageopacity="0.0"
     inkscape:pagecheckerboard="0"
     inkscape:document-units="mm"
     showgrid="false"
     inkscape:zoom="0.53894608"
     inkscape:cx="-248.63341"
     inkscape:cy="2046.5869"
     inkscape:window-width="1920"
     inkscape:window-height="1057"
     inkscape:window-x="1672"
     inkscape:window-y="-8"
     inkscape:window-maximized="1"
     inkscape:current-layer="layer1"
     units="mm"
     inkscape:snap-global="false"
     inkscape:lockguides="true"
     inkscape:showpageshadow="2"
     inkscape:deskcolor="#d1d1d1" />
  <defs
     id="defs2">
    <rect
       x="-2264.5425"
       y="1285.7773"
       width="467.07829"
       height="188.93054"
       id="rect234" />
    <rect
       x="-2330.1434"
       y="1277.9052"
       width="624.5204"
       height="128.57773"
       id="rect233" />
    <rect
       x="-1167.6985"
       y="2781.9722"
       width="915.73975"
       height="479.59045"
       id="rect19054" />
    <rect
       x="-3504.2572"
       y="1277.8497"
       width="655.08077"
       height="76.179509"
       id="rect2272" />
    <linearGradient
       inkscape:collect="always"
       id="linearGradient4176">
      <stop
         style="stop-color:#a7a5a6;stop-opacity:1;"
         offset="0"
         id="stop4178" />
      <stop
         style="stop-color:#a7a5a6;stop-opacity:0;"
         offset="1"
         id="stop4180" />
    </linearGradient>
    <linearGradient
       inkscape:collect="always"
       xlink:href="#linearGradient4176"
       id="linearGradient22661"
       gradientUnits="userSpaceOnUse"
       gradientTransform="matrix(2.0174015,0,0,-2.0174015,-46.989405,-1072.715)"
       x1="159.48534"
       y1="-368.23074"
       x2="559.06055"
       y2="-1070.6394" />
    <rect
       x="-3504.2572"
       y="1277.8497"
       width="362.63847"
       height="117.65695"
       id="rect10636" />
  </defs>
  <g
     inkscape:groupmode="layer"
     id="layer3"
     inkscape:label="base"
     style="display:inline;opacity:0.378753"
     sodipodi:insensitive="true">
    <circle
       style="display:inline;opacity:0.983834;fill:#ac9d93;stroke:#241f1c;stroke-width:1.49999"
       id="path1062"
       cx="-5.6843419e-14"
       cy="400"
       r="399.25" />
  </g>
  <g
     inkscape:label="Layer 1"
     inkscape:groupmode="layer"
     id="layer1"
     style="display:inline">
    <g
       id="layer9"
       inkscape:label="LETTERS"
       style="display:none"
       transform="matrix(0.26458333,0,0,0.26458333,-115.35051,180.9592)">
      <path
         d="m 485.964,97.421643 h 65.35931 l 64.2798,135.148637 65.07272,-135.148623 h 64.56229 L 615.60311,351.694 v 0 L 485.964,97.421657 Z"
         style="fill:#008770;fill-opacity:1;fill-rule:nonzero;stroke:#231f20;stroke-width:13.2956;stroke-linecap:butt;stroke-linejoin:miter;stroke-miterlimit:4;stroke-dasharray:none;stroke-opacity:1"
         id="path5960"
         inkscape:connector-curvature="0" />
      <path
         d="m 1001.5016,97.421643 h 194.4553 L 1082.4914,297.67713 h 106.8137 V 351.694 H 984.0519 l 113.4518,-200.26639 h -96.0021 z"
         style="fill:#008770;fill-opacity:1;fill-rule:nonzero;stroke:#231f20;stroke-width:13.2956;stroke-linecap:butt;stroke-linejoin:miter;stroke-miterlimit:4;stroke-dasharray:none;stroke-opacity:1"
         id="path5962"
         inkscape:connector-curvature="0" />
      <path
         d="m 1628.2229,174.22716 c -6.9686,-11.54035 -19.6416,-19.25938 -34.1134,-19.25938 -21.9971,0 -39.8234,17.82364 -39.8234,39.80163 V 351.694 H 1490.301 V 194.7776 c 0,-57.04389 46.2651,-103.292615 103.2789,-103.292615 38.0984,0 71.3602,20.596835 89.2548,51.260075 z"
         style="fill:#008770;fill-opacity:1;fill-rule:nonzero;stroke:#231f20;stroke-width:13.2956;stroke-linecap:butt;stroke-linejoin:miter;stroke-miterlimit:4;stroke-dasharray:none;stroke-opacity:1"
         id="path5964"
         inkscape:connector-curvature="0" />
      <path
         d="m 1469.8297,225.00684 c 0,75.22509 -60.9798,136.20766 -136.2213,136.20766 -75.2223,0 -136.2185,-60.98257 -136.2185,-136.20766 0,-75.23877 60.9962,-136.221337 136.2185,-136.221337 75.2415,0 136.2213,60.982567 136.2213,136.221337 m -136.2404,-82.72579 c -45.6236,0 -82.6166,36.9902 -82.6166,82.61387 0,45.62364 36.993,82.61385 82.6166,82.61385 45.61,0 82.603,-36.99021 82.603,-82.61385 0,-45.62367 -36.993,-82.61387 -82.603,-82.61387 z"
         style="fill:#008770;fill-opacity:1;fill-rule:nonzero;stroke:#231f20;stroke-width:13.2956;stroke-linecap:butt;stroke-linejoin:miter;stroke-miterlimit:4;stroke-dasharray:none;stroke-opacity:1"
         id="path5966"
         inkscape:connector-curvature="0" />
      <path
         d="m 929.16705,265.82927 c -14.12244,24.38812 -40.52904,40.80336 -70.74324,40.80336 -45.11051,0 -81.68722,-36.58081 -81.68722,-81.69404 0,-45.12141 36.57671,-81.68582 81.68722,-81.68582 20.0359,0 38.38772,7.19768 52.59753,19.16382 l -100.11957,57.82453 27.23228,47.14397 149.2997,-86.11855 C 969.22797,127.49533 918.35139,88.785517 858.42381,88.785517 c -75.18282,0 -136.15174,60.952533 -136.15174,136.153073 0,75.19508 60.96892,136.14761 136.15174,136.14761 50.3716,0 94.36709,-27.34689 117.91178,-68.02467 z"
         style="fill:#008770;fill-opacity:1;fill-rule:nonzero;stroke:#231f20;stroke-width:12.8223;stroke-linecap:butt;stroke-linejoin:miter;stroke-miterlimit:4;stroke-dasharray:none;stroke-opacity:1"
         id="path5968"
         inkscape:connector-curvature="0" />
      <path
         d="m 441.34207,265.82927 c -14.13063,24.38812 -40.51128,40.80336 -70.72415,40.80336 -45.12958,0 -81.68718,-36.58081 -81.68718,-81.69404 0,-45.12141 36.5576,-81.68582 81.68718,-81.68582 20.03594,0 38.36862,7.19768 52.57979,19.16382 l -100.11955,57.82453 27.22818,47.14397 149.29971,-86.11855 C 481.41938,127.49533 430.54007,88.785517 370.61792,88.785517 c -75.19644,0 -136.15169,60.952533 -136.15169,136.153073 0,75.19508 60.95525,136.14761 136.15169,136.14761 50.37161,0 94.35892,-27.34689 117.89952,-68.02467 z"
         style="fill:#008770;fill-opacity:1;fill-rule:nonzero;stroke:#231f20;stroke-width:12.8223;stroke-linecap:butt;stroke-linejoin:miter;stroke-miterlimit:4;stroke-dasharray:none;stroke-opacity:1"
         id="path5970"
         inkscape:connector-curvature="0" />
    </g>
    <g
       id="layer8"
       inkscape:label="GEAR_GRAY"
       style="display:none"
       transform="matrix(0.26458333,0,0,0.26458333,-115.35051,180.9592)">
      <path
         d="m 1014.6078,-190.80977 c 0,0 19.6442,1.75507 53.9213,10.78155 32.2109,8.47511 52.0653,17.62437 52.0653,17.62437 -11.3956,25.37893 -1.957,55.76921 22.6576,69.987184 24.6229,14.212526 55.671,7.192237 71.9442,-15.380734 0,0 16.1396,11.338348 41.3111,36.294188 23.6484,23.449162 36.2887,41.30832 36.2887,41.30832 -22.5702,16.27876 -29.5878,47.324115 -15.378,71.941503 14.2153,24.617404 44.6137,34.056024 69.9954,22.660344 0,0 8.2949,17.87004 17.6162,52.065265 8.7644,32.13171 10.7706,53.90224 10.7706,53.90224 -27.6771,2.82229 -49.2784,26.19504 -49.2811,54.61734 0,28.43052 21.604,51.80599 49.2893,54.61738 0,0 -1.7523,19.64423 -10.7788,53.92133 -8.4778,32.2054 -17.6271,52.08165 -17.6271,52.08165 -25.3817,-11.40933 -55.7829,-1.96526 -69.9899,22.65759 -14.2153,24.61194 -7.1896,55.66004 15.3725,71.94151 0,0 -11.3329,16.11772 -36.286,41.28919 -23.4437,23.65387 -41.2947,36.28056 -41.2947,36.28056 -16.2814,-22.56206 -47.3241,-29.57962 -71.936,-15.37531 -24.6201,14.21802 -34.0642,44.62194 -22.6549,69.99811 0,0 -17.8919,8.30589 -52.0898,17.62715 -32.1317,8.75897 -53.9159,10.77882 -53.9159,10.77882 -2.8141,-27.68536 -26.18955,-49.28939 -54.61463,-49.29212 -28.42641,0.004 -51.80049,21.60676 -54.62281,49.29212 0,0 -21.73776,-2.10719 -53.8954,-10.77882 -31.40156,-8.46692 -52.07073,-17.61621 -52.07073,-17.61621 11.40115,-25.38166 1.95979,-55.78286 -22.65761,-69.99537 -24.61329,-14.21526 -55.66412,-7.19223 -71.94286,15.37802 0,0 -17.79089,-12.7031 -41.30694,-36.29421 -22.96194,-23.03427 -36.29419,-41.30557 -36.29419,-41.30557 22.57163,-16.27602 29.59053,-47.3214 15.38209,-71.94151 -14.21522,-24.61467 -44.60963,-34.06146 -69.99127,-22.66034 0,0 -9.05103,-19.87898 -17.62305,-52.06527 -8.37002,-31.43024 -10.77881,-53.89951 -10.77881,-53.89951 27.68127,-2.82502 49.28937,-26.20049 49.28937,-54.62554 0,-28.42231 -21.60402,-51.80052 -49.28937,-54.61461 0,0 2.11129,-21.75689 10.77881,-53.91588 8.46418,-31.405665 17.62305,-52.089825 17.62305,-52.089825 25.38164,11.41204 55.77875,1.96796 69.994,-22.649441 14.21253,-24.620118 7.18952,-55.660014 -15.36982,-71.941517 0,0 12.69355,-17.779952 36.27508,-41.294646 23.03839,-22.966055 41.29193,-36.288751 41.29193,-36.288751 16.28421,22.564805 47.32957,29.590566 71.95109,15.378013 24.61328,-14.215223 34.05871,-44.610973 22.65076,-69.992653 0,0 19.89807,-9.05376 52.08436,-17.62713 31.42615,-8.36864 53.92136,-10.77878 53.92136,-10.77878 2.81141,27.68535 26.18548,49.28665 54.61734,49.28936 28.41959,-0.004 51.79505,-21.60128 54.61195,-49.28118 m 114.2269,509.14513 c -32.2327,55.64092 -92.4264,93.07058 -161.35728,93.07058 -102.93093,0 -186.3623,-83.44089 -186.3623,-186.365 0,-102.92411 83.43137,-186.362278 186.3623,-186.362278 45.69738,0 87.54878,16.445263 119.96988,43.745743 L 859.05477,214.33312 921.17554,321.93012 1261.7752,125.43047 C 1220.2595,2.750207 1104.1928,-85.554679 967.49112,-85.554679 c -171.54243,0 -310.60379,139.062731 -310.60379,310.603809 0,171.5438 139.06136,310.60654 310.60379,310.60654 114.92568,0 215.26768,-62.41282 268.98978,-155.18593 l -107.6325,-62.12619 z"
         style="display:inline;fill:url(#linearGradient22661);fill-opacity:1;fill-rule:nonzero;stroke:none"
         id="path5990"
         inkscape:connector-curvature="0" />
    </g>
    <g
       id="layer7"
       inkscape:label="GEAR_GREEN"
       style="display:none"
       transform="matrix(0.26458333,0,0,0.26458333,-115.35051,180.9592)">
      <path
         inkscape:connector-curvature="0"
         id="path5926"
         style="fill:#068770;fill-opacity:1;fill-rule:nonzero;stroke:none"
         d="m 1014.6078,-190.80977 c 0,0 19.6442,1.75507 53.9213,10.78155 32.2109,8.47511 52.0653,17.62437 52.0653,17.62437 -11.3956,25.37893 -1.957,55.76921 22.6576,69.987184 24.6229,14.212526 55.671,7.192237 71.9442,-15.380734 0,0 16.1396,11.338348 41.3111,36.294188 23.6484,23.449162 36.2887,41.30832 36.2887,41.30832 -22.5702,16.27876 -29.5878,47.324115 -15.378,71.941503 14.2153,24.617404 44.6137,34.056024 69.9954,22.660344 0,0 8.2949,17.87004 17.6162,52.065265 8.7644,32.13171 10.7706,53.90224 10.7706,53.90224 -27.6771,2.82229 -49.2784,26.19504 -49.2811,54.61734 0,28.43052 21.604,51.80599 49.2893,54.61738 0,0 -1.7523,19.64423 -10.7788,53.92133 -8.4778,32.2054 -17.6271,52.08165 -17.6271,52.08165 -25.3817,-11.40933 -55.7829,-1.96526 -69.9899,22.65759 -14.2153,24.61194 -7.1896,55.66004 15.3725,71.94151 0,0 -11.3329,16.11772 -36.286,41.28919 -23.4437,23.65387 -41.2947,36.28056 -41.2947,36.28056 -16.2814,-22.56206 -47.3241,-29.57962 -71.936,-15.37531 -24.6201,14.21802 -34.0642,44.62194 -22.6549,69.99811 0,0 -17.8919,8.30589 -52.0898,17.62715 -32.1317,8.75897 -53.9159,10.77882 -53.9159,10.77882 -2.8141,-27.68536 -26.18955,-49.28939 -54.61463,-49.29212 -28.42641,0.004 -51.80049,21.60676 -54.62281,49.29212 0,0 -21.73776,-2.10719 -53.8954,-10.77882 -31.40156,-8.46692 -52.07073,-17.61621 -52.07073,-17.61621 11.40115,-25.38166 1.95979,-55.78286 -22.65761,-69.99537 -24.61329,-14.21526 -55.66412,-7.19223 -71.94286,15.37802 0,0 -17.79089,-12.7031 -41.30694,-36.29421 -22.96194,-23.03427 -36.29419,-41.30557 -36.29419,-41.30557 22.57163,-16.27602 29.59053,-47.3214 15.38209,-71.94151 -14.21522,-24.61467 -44.60963,-34.06146 -69.99127,-22.66034 0,0 -9.05103,-19.87898 -17.62305,-52.06527 -8.37002,-31.43024 -10.77881,-53.89951 -10.77881,-53.89951 27.68127,-2.82502 49.28937,-26.20049 49.28937,-54.62554 0,-28.42231 -21.60402,-51.80052 -49.28937,-54.61461 0,0 2.11129,-21.75689 10.77881,-53.91588 8.46418,-31.405665 17.62305,-52.089825 17.62305,-52.089825 25.38164,11.41204 55.77875,1.96796 69.994,-22.649441 14.21253,-24.620118 7.18952,-55.660014 -15.36982,-71.941517 0,0 12.69355,-17.779952 36.27508,-41.294646 23.03839,-22.966055 41.29193,-36.288751 41.29193,-36.288751 16.28421,22.564805 47.32957,29.590566 71.95109,15.378013 24.61328,-14.215223 34.05871,-44.610973 22.65076,-69.992653 0,0 19.89807,-9.05376 52.08436,-17.62713 31.42615,-8.36864 53.92136,-10.77878 53.92136,-10.77878 2.81141,27.68535 26.18548,49.28665 54.61734,49.28936 28.41959,-0.004 51.79505,-21.60128 54.61195,-49.28118 m 114.2269,509.14513 c -32.2327,55.64092 -92.4264,93.07058 -161.35728,93.07058 -102.93093,0 -186.3623,-83.44089 -186.3623,-186.365 0,-102.92411 83.43137,-186.362278 186.3623,-186.362278 45.69738,0 87.54878,16.445263 119.96988,43.745743 L 859.05477,214.33312 921.17554,321.93012 1261.7752,125.43047 C 1220.2595,2.750207 1104.1928,-85.554679 967.49112,-85.554679 c -171.54243,0 -310.60379,139.062731 -310.60379,310.603809 0,171.5438 139.06136,310.60654 310.60379,310.60654 114.92568,0 215.26768,-62.41282 268.98978,-155.18593 l -107.6325,-62.12619 z"
         inkscape:export-xdpi="55.410137"
         inkscape:export-ydpi="55.410137" />
    </g>
    <g
       id="g4144"
       inkscape:groupmode="layer"
       inkscape:label="EVEZOR LOGO_08-27-16"
       transform="matrix(0.330729 0 0 -0.330729 -115.351 121.428)"
       style="display:inline">
      <g
         id="g888"
         transform="matrix(1.5543182,0,0,-1.5543182,-199.98298,-1442.0014)"
         style="stroke-width:0.514696">
        <path
           fill="#4e4e56"
           d="M 73.5,33.9 C 73,33.1 72.3,32 71.6,31.6 c 0.1,0 0.1,-0.1 0.2,-0.1 C 77,29.2 79.2,24.5 79.2,18 79.2,7.8 73.3,1.8 60.8,1.8 h -15 v 54.1 h 10.3 v -22 H 60 c 0.8,0 1.4,0.2 1.8,0.5 0.4,0.3 0.8,0.7 1.1,1.5 L 71.5,54 c 0.7,1.8 2,2.6 3.6,2.6 h 9.7 L 75,36.9 c -0.4,-1 -1,-2.2 -1.5,-3 z m -12,-8.6 h -5.3 v -15 h 5.3 c 4.6,0 7.3,2.2 7.3,7.5 0,5.3 -2.7,7.5 -7.3,7.5 z"
           id="path860"
           style="stroke-width:0.423952" />
        <g
           id="g864"
           style="stroke-width:0.514696">
          <path
             fill="#4e4e56"
             d="M 205.2,47 V 33.2 h -10.3 v 22.7 h 14.4 c 11.8,0 18.4,-5.1 18.9,-18.7 v -4.7 z"
             id="path862"
             style="stroke-width:0.423952" />
        </g>
        <g
           id="g868"
           style="stroke-width:0.514696">
          <path
             fill="#4e4e56"
             d="m 209.3,1.8 h -14.4 v 21.6 h 10.3 V 9.5 l 23,14.6 V 20.5 C 227.7,6.9 221.1,1.8 209.3,1.8 Z"
             id="path866"
             style="stroke-width:0.423952" />
        </g>
        <path
           fill="#4e4e56"
           d="m 11.8,39.9 c 0,6 2.6,7.7 6.8,7.7 4.1,0 6.8,-1.7 6.8,-7.7 v -4.8 h 10.4 v 3.4 C 35.8,51.9 28.7,56.7 18.6,56.7 8.5,56.7 1.4,51.9 1.4,38.5 V 19.1 C 1.4,5.7 8.5,0.9 18.6,0.9 c 10.1,0 17.2,4.8 17.2,18.2 v 3.3 H 25.3 v -4.6 c 0,-6 -2.6,-7.7 -6.8,-7.7 -4.1,0 -6.8,1.7 -6.8,7.7 v 22.1 z"
           id="path870"
           style="stroke-width:0.423952" />
        <path
           fill="#4e4e56"
           d="m 88.5,19.1 c 0,-13.4 7.1,-18.2 17.2,-18.2 10.1,0 17.2,4.8 17.2,18.2 v 19.4 c 0,13.4 -7.1,18.2 -17.2,18.2 -10.1,0 -17.2,-4.8 -17.2,-18.2 z m 10.3,20.8 c 0,6 2.6,7.7 6.8,7.7 4.1,0 6.8,-1.7 6.8,-7.7 V 17.8 c 0,-6 -2.6,-7.7 -6.8,-7.7 -4.1,0 -6.8,1.7 -6.8,7.7 z"
           id="path872"
           style="stroke-width:0.423952" />
        <path
           fill="#4e4e56"
           d="m 128.1,1.6 h 9.6 l 7.3,35.5 h 0.2 l 7.5,-35.5 h 10 l 7.5,35.5 h 0.2 l 7.2,-35.5 h 9.7 L 175.4,56 h -10 l -7.6,-37.2 h -0.2 L 149.4,56 h -9.9 z"
           id="path874"
           style="stroke-width:0.423952" />
        <path
           fill="#00b2ad"
           d="m 268.9,16.8 c -1.7,-5.1 -4,-7.3 -7.6,-7.3 -3.7,0 -5.7,2.3 -5.7,5.9 0,8.2 23.2,8.8 23.2,25.8 0,9.3 -6.4,15.5 -17.3,15.5 -8.4,0 -15,-4.6 -17.8,-15.3 l 10.2,-2.2 c 1.2,6.6 5,8.9 8.1,8.9 3.6,0 6.4,-2.4 6.4,-6.5 0,-10.2 -23.2,-10.4 -23.2,-25.6 0,-9.3 5.6,-15.2 16.3,-15.2 9.3,0 14.9,5.5 16.7,13.2 z"
           id="path876"
           style="stroke-width:0.423952" />
        <path
           fill="#00b2ad"
           d="m 298.7,1.6 v 38 c 0,5.2 2.3,7.9 7.3,7.9 5,0 7.4,-2.7 7.4,-7.9 v -38 h 10.4 v 38.1 c 0,12 -7.1,17 -17.8,17 -10.7,0 -17.7,-5 -17.7,-17 V 1.6 Z"
           id="path878"
           style="stroke-width:0.423952" />
        <path
           fill="#00b2ad"
           d="M 335.3,56 V 1.6 h 15 c 12.8,0 19.1,6 19.1,16.3 0,10.2 -6.2,16.3 -19.1,16.3 h -4.6 V 56 Z m 10.4,-30.4 h 5.6 c 5.1,0 7.7,-2.6 7.7,-7.7 0,-5.1 -2.6,-7.7 -7.7,-7.7 h -5.6 z"
           id="path880"
           style="stroke-width:0.423952" />
        <path
           fill="#00b2ad"
           d="M 376.9,56 V 1.6 h 15 c 12.8,0 19.1,6 19.1,16.3 0,10.2 -6.2,16.3 -19.1,16.3 h -4.6 V 56 Z m 10.4,-30.4 h 5.6 c 5.1,0 7.7,-2.6 7.7,-7.7 0,-5.1 -2.6,-7.7 -7.7,-7.7 h -5.6 z"
           id="path882"
           style="stroke-width:0.423952" />
        <path
           fill="#00b2ad"
           d="M 419.9,56 V 1.6 h 10.4 V 46.8 H 447 V 56 Z"
           id="path884"
           style="stroke-width:0.423952" />
        <path
           fill="#00b2ad"
           d="m 463.7,23.6 8.8,-21.9 h 11.1 L 468.7,34 V 56 H 458.3 V 34 L 443.5,1.6 h 11.1 z"
           id="path886"
           style="stroke-width:0.423952" />
      </g>
      <g
         aria-label="by:"
         transform="matrix(1.1605904,0,0,-1.1605904,-631.92021,-1595.554)"
         id="text20127"
         style="font-size:32px;line-height:1.25;letter-spacing:-0.856px;stroke-width:0.387541">
        <path
           d="m 850.95868,-23.903578 q 0,0.578125 -0.14063,1.21875 -0.125,0.640625 -0.40625,1.28125 -0.28125,0.625 -0.73437,1.203125 -0.4375,0.578125 -1.07813,1.03125 -0.625,0.4375 -1.45312,0.703125 -0.82813,0.265625 -1.875,0.265625 h -7.32813 q -0.57812,0 -1.21875,-0.125 -0.64062,-0.140625 -1.28125,-0.421875 -0.625,-0.28125 -1.20312,-0.71875 -0.57813,-0.453125 -1.03125,-1.078125 -0.4375,-0.640625 -0.70313,-1.46875 -0.26562,-0.84375 -0.26562,-1.890625 v -18.328125 h 4.0625 v 18.328125 q 0,0.75 0.46875,1.203125 0.46875,0.4375 1.17187,0.4375 h 7.32813 q 0.76562,0 1.1875,-0.453125 0.4375,-0.453125 0.4375,-1.1875 v -5.5 q 0,-0.765625 -0.45313,-1.1875 -0.45312,-0.4375 -1.17187,-0.4375 h -7.32813 v -4.0625 h 7.32813 q 0.57812,0 1.21875,0.140625 0.64062,0.125 1.26562,0.40625 0.64063,0.28125 1.21875,0.734375 0.57813,0.4375 1.01563,1.078125 0.4375,0.625 0.70312,1.453125 0.26563,0.828125 0.26563,1.875 z"
           style="font-family:Audiowide;-inkscape-font-specification:Audiowide;stroke-width:0.387541"
           id="path22343" />
        <path
           d="m 872.19643,-16.575453 q 0,1.046875 -0.26563,1.875 -0.26562,0.84375 -0.70312,1.46875 -0.4375,0.640625 -1.01563,1.078125 -0.57812,0.453125 -1.21875,0.734375 -0.625,0.28125 -1.26562,0.40625 -0.64063,0.140625 -1.21875,0.140625 h -7.32813 v -4.0625 h 7.32813 q 0.8125,0 1.21875,-0.421875 0.40625,-0.421875 0.40625,-1.21875 v -18.515625 h 4.0625 z m -5.6875,-1.625 h -7.32813 q -0.875,0 -1.875,-0.296875 -0.98437,-0.296875 -1.84375,-0.96875 -0.85937,-0.6875 -1.42187,-1.765625 -0.5625,-1.09375 -0.5625,-2.671875 v -11.1875 h 4.0625 v 11.1875 q 0,0.796875 0.42187,1.21875 0.42188,0.421875 1.25,0.421875 h 7.29688 z"
           style="font-family:Audiowide;-inkscape-font-specification:Audiowide;stroke-width:0.387541"
           id="path22345" />
        <path
           d="m 879.21543,-20.247328 q 0,0.421875 -0.17188,0.796875 -0.15625,0.359375 -0.4375,0.640625 -0.26562,0.265625 -0.64062,0.421875 -0.35938,0.15625 -0.76563,0.15625 -0.42187,0 -0.79687,-0.15625 -0.35938,-0.15625 -0.64063,-0.421875 -0.26562,-0.28125 -0.42187,-0.640625 -0.15625,-0.375 -0.15625,-0.796875 0,-0.40625 0.15625,-0.765625 0.15625,-0.375 0.42187,-0.640625 0.28125,-0.28125 0.64063,-0.4375 0.375,-0.171875 0.79687,-0.171875 0.40625,0 0.76563,0.171875 0.375,0.15625 0.64062,0.4375 0.28125,0.265625 0.4375,0.640625 0.17188,0.359375 0.17188,0.765625 z m 0,-12.796875 q 0,0.421875 -0.17188,0.796875 -0.15625,0.359375 -0.4375,0.640625 -0.26562,0.265625 -0.64062,0.421875 -0.35938,0.15625 -0.76563,0.15625 -0.42187,0 -0.79687,-0.15625 -0.35938,-0.15625 -0.64063,-0.421875 -0.26562,-0.28125 -0.42187,-0.640625 -0.15625,-0.375 -0.15625,-0.796875 0,-0.40625 0.15625,-0.765625 0.15625,-0.375 0.42187,-0.640625 0.28125,-0.28125 0.64063,-0.4375 0.375,-0.171875 0.79687,-0.171875 0.40625,0 0.76563,0.171875 0.375,0.15625 0.64062,0.4375 0.28125,0.265625 0.4375,0.640625 0.17188,0.359375 0.17188,0.765625 z"
           style="font-family:Audiowide;-inkscape-font-specification:Audiowide;stroke-width:0.387541"
           id="path22347" />
      </g>
    </g>
    <g
       inkscape:groupmode="layer"
       id="layer2"
       inkscape:label="EVEZOR LOGO_08-27-17"
       style="display:inline">
      <g
         id="g23226"
         transform="matrix(1.5399612,0,0,1.5399612,-237.15991,459.62942)"
         style="fill:#800080;stroke-width:0.484427">
        <path
           id="path4150"
           style="display:inline;fill:#800080;fill-opacity:1;fill-rule:nonzero;stroke:none;stroke-width:0.484425"
           d="m 893.11865,22.012071 c 0,0 -2.8158,-0.301744 -6.74942,-1.349251 -4.02876,-1.073127 -6.51937,-2.206369 -6.51937,-2.206369 1.42794,-3.177032 0.24547,-6.981619 -2.8354,-8.7609408 -3.08187,-1.7789868 -6.96759,-0.8994578 -9.00589,1.9249788 0,0 -2.28494,-1.667642 -5.16866,-4.542307 -2.9517,-2.9433404 -4.5406,-5.1688934 -4.5406,-5.1688934 2.82377,-2.03795907 3.70298,-5.9232176 1.92401,-9.0049235 -1.77933,-3.0813641 -5.58416,-4.2636041 -8.76118,-2.835155 0,0 -0.71996,-1.6352551 -1.54605,-4.2687471 l 7.15279,-15.038763 7.61828,15.821567 h 1.05294 c 6.23227,13.15462243 19.62793,22.2541444 35.15132,22.2541444 16.29707,0 30.22962,-10.0379924 36.00994,-24.2590674 2.86277,1.946977 6.31815,3.085983 10.03609,3.085983 0.84244,0 1.6708,-0.05984 2.48237,-0.172843 -0.55119,1.57038 -0.9735,2.5750361 -0.9735,2.5750361 -3.17701,-1.4264001 -6.98187,-0.2449871 -8.7612,2.836377 -1.77861,3.0813653 -0.90036,6.96730443 1.92477,9.0049237 0,0 -1.58201,2.235469 -4.54208,5.1706061 -3.15074,3.1237281 -5.17108,4.5430461 -5.17108,4.5430461 -2.03694,-2.825465 -5.92312,-3.7042095 -9.00518,-1.9252307 -3.08102,1.7796697 -4.26252,5.5835217 -2.83613,8.7602087 0,0 -2.48508,1.145291 -6.51692,2.206121 -4.29047,1.129849 -6.74941,1.349499 -6.74941,1.349499 l 0.002,-0.0012 c -0.35259,-3.464702 -3.27843,-6.168113 -6.83571,-6.168548 -3.55883,3.14e-4 -6.48455,2.704142 -6.83646,6.169521 z m 7.77277,-28.7260829 c -5.87276,0 -11.23528,-2.173423 -15.33555,-5.7556341 0.62544,0.06651 1.25935,0.104393 1.90225,0.104393 6.10474,0 11.49007,-3.077108 14.70897,-7.759823 l 2.36821,1.367582 v 4.509062 0.831699 h 9.24817 l 2.12471,1.22701 c -4.05814,3.4172101 -9.29682,5.4757111 -15.01676,5.4757111 z m 46.04307,-13.9819091 c -5.26094,0 -9.50875,-4.247858 -9.50875,-9.508784 0,-5.260918 4.24781,-9.508045 9.50875,-9.508045 1.7704,0 3.42519,0.482897 4.84304,1.32211 0.14351,0.895194 0.22317,1.520376 0.22317,1.520376 -3.46535,0.351903 -6.16951,3.277794 -6.16951,6.836449 3.1e-4,3.557625 2.70398,6.483177 6.16831,6.836445 0,0 -0.11192,0.733556 -0.16797,1.148046 -1.42963,0.859036 -3.10436,1.353403 -4.89704,1.353403 z m -59.47637,-0.09143 c -5.21287,0 -9.42201,-4.207817 -9.42201,-9.421996 0,-5.213078 4.20934,-9.423948 9.42201,-9.423948 1.9466,0 3.74165,0.60465 5.24149,1.613277 l -2.62416,4.545244 -5.45029,-3.143436 -4.21154,7.290189 12.14396,7.013201 c -1.47213,0.953283 -3.20997,1.527469 -5.09946,1.527469 z m 44.07068,-0.360353 -7.09241,-4.091749 -7.50387,-13.243353 h 12.77421 v -8.210385 l 4.85425,-2.801914 c -6.72439,-11.612427 -19.28427,-19.424602 -33.66956,-19.424602 -19.10338,0 -34.98334,13.779566 -38.2554,31.940656 l -5.57179,-10.928442 -6.16243,12.087002 c -0.88139,-0.566952 -1.89834,-0.940561 -2.9948,-1.052458 0,0 0.30157,-2.812597 1.34926,-6.746725 1.07296,-4.028769 2.20588,-6.516927 2.20588,-6.516927 3.17702,1.427092 6.98136,0.244405 8.76069,-2.836622 1.77847,-3.081701 0.90007,-6.967637 -1.92523,-9.004919 0,0 1.66865,-2.286911 4.54281,-5.170119 2.9435,-2.952903 5.17036,-4.543041 5.17036,-4.543041 2.0376,2.82513 5.92431,3.704311 9.00516,1.924981 3.08136,-1.778984 4.26322,-5.584398 2.83613,-8.76143 0,0 2.58712,-1.145096 6.51766,-2.204899 4.02518,-1.085427 6.74599,-1.349249 6.74599,-1.349249 0.35327,3.465388 3.27904,6.169541 6.83718,6.170018 3.55798,0 6.48396,-2.70463 6.8362,-6.170018 0,0 2.72675,0.252882 6.74869,1.349249 4.28056,1.166736 6.52009,2.206364 6.52009,2.206364 -1.4281,3.176432 -0.24606,6.982006 2.83565,8.761677 3.08067,1.777959 6.96621,0.899601 9.00418,-1.924489 0,0 2.23446,1.580321 5.16891,4.541086 3.12338,3.150724 4.54207,5.168168 4.54207,5.168168 -2.82409,2.037945 -3.70362,5.924232 -1.92428,9.004919 1.7783,3.082042 5.5837,4.264238 8.76072,2.836132 0,0 0.37519,0.894393 0.84805,2.19415 -0.77104,-0.101739 -1.55714,-0.155249 -2.35572,-0.155249 -9.86534,0 -17.88297,8.015511 -17.88297,17.881255 0,3.309754 0.90304,6.410478 2.47432,9.070933 z m -22.54997,-13.009394 -6.54625,-3.776865 0.88206,-0.509238 -0.4029,-0.69577 c -3.08609,-5.331796 -8.85816,-8.91471 -15.45362,-8.91471 -0.49579,0 -0.98315,0.03477 -1.4688,0.07456 4.04153,-3.362522 9.23332,-5.389168 14.9021,-5.389168 6.24905,0 11.92296,2.458983 16.11029,6.460453 h -15.24583 z"
           transform="matrix(0.33072917,0,0,-0.33072917,-115.35051,121.42779)" />
        <path
           style="color:#000000;fill:#800080;stroke-width:0.484425;-inkscape-stroke:none"
           d="m 157.96396,125.51737 c -3.25636,0 -5.90188,2.64505 -5.90188,5.90158 0,3.25631 2.64552,5.90157 5.90188,5.90157 2.18132,0 4.08992,-1.18497 5.11041,-2.94834 l 0.13323,-0.23011 -2.41264,-1.39259 -0.13293,0.22919 c -0.53904,0.93034 -1.54347,1.557 -2.69807,1.557 -1.72483,0 -3.11611,-1.39253 -3.11611,-3.11672 0,-1.72456 1.39122,-3.11612 3.11611,-3.11612 0.62491,0 1.1989,0.18983 1.68565,0.50513 l -4.0164,2.31945 1.39258,2.41142 6.59894,-3.80644 -0.0697,-0.20628 c -0.78863,-2.33168 -2.99618,-4.00874 -5.5911,-4.00874 z m 0,0.53081 c 2.28992,0 4.23024,1.43656 5.00376,3.45043 l -5.74757,3.31506 -0.86177,-1.4919 4.24253,-2.45023 -0.2894,-0.24386 c -0.63421,-0.53403 -1.45455,-0.85566 -2.34755,-0.85566 -2.0116,0 -3.64692,1.63565 -3.64692,3.64693 0,2.01095 1.63525,3.64753 3.64692,3.64753 1.25078,0 2.33799,-0.64702 2.9948,-1.60924 l 1.50839,0.87032 c -0.95632,1.47825 -2.6095,2.46215 -4.50319,2.46215 -2.96951,0 -5.37107,-2.40132 -5.37107,-5.37076 0,-2.9697 2.40156,-5.37077 5.37107,-5.37077 z"
           id="path22987" />
        <path
           style="color:#000000;fill:#800080;stroke-width:0.484425;-inkscape-stroke:none"
           d="m 162.28961,125.86513 0.20413,0.40001 5.61188,11.0071 5.81572,-11.40711 h -3.29458 l -2.5196,5.23264 -2.48874,-5.23264 z m 0.89875,0.55036 h 2.0826 l 2.83314,5.9569 2.86827,-5.9569 h 2.05053 l -4.91728,9.64508 z"
           id="path23017" />
        <path
           style="color:#000000;fill:#800080;stroke-width:0.484425;-inkscape-stroke:none"
           d="m 197.82928,125.50758 c -3.26275,0 -5.91442,2.65099 -5.91442,5.91442 0,3.26289 2.65167,5.9138 5.91442,5.9138 3.26349,0 5.91441,-2.65095 5.91441,-5.9138 0,-3.26339 -2.65092,-5.91442 -5.91441,-5.91442 z m 0,0.55037 c 2.9661,0 5.36404,2.39805 5.36404,5.36405 0,2.9654 -2.39794,5.36344 -5.36404,5.36344 -2.96528,0 -5.36374,-2.39808 -5.36374,-5.36344 0,-2.96595 2.39846,-5.36405 5.36374,-5.36405 z m -8.9e-4,1.66426 c -2.03746,0 -3.69522,1.65774 -3.69522,3.6952 0,2.03747 1.65776,3.69491 3.69522,3.69491 2.03692,0 3.6949,-1.65744 3.6949,-3.69491 0,-2.03746 -1.65798,-3.6952 -3.6949,-3.6952 z m 0,0.55037 c 1.73934,0 3.14453,1.40489 3.14453,3.14483 0,1.73995 -1.40519,3.14454 -3.14453,3.14454 -1.73996,0 -3.14485,-1.40459 -3.14485,-3.14454 0,-1.73994 1.40489,-3.14483 3.14485,-3.14483 z"
           id="path22999" />
        <path
           style="color:#000000;fill:#800080;stroke-width:0.484425;-inkscape-stroke:none"
           d="m 183.80569,125.86513 v 0.27503 2.51104 h 3.7771 l -4.69633,8.29039 h 9.24415 v -2.78638 h -4.22481 l 4.69725,-8.29008 z m 0.55036,0.55036 h 7.30242 l -4.69694,8.29009 h 4.61871 v 1.68564 h -7.7498 l 4.69695,-8.29039 h -4.17134 z"
           id="path23011" />
        <path
           style="color:#000000;fill:#800080;stroke-width:0.484425;-inkscape-stroke:none"
           d="m 208.5916,125.61912 c -2.50906,0 -4.55087,2.04121 -4.55087,4.55148 v 6.77099 h 3.19923 v -6.7713 c 0,-0.76101 0.61137,-1.37271 1.37334,-1.37271 0.50124,0 0.93659,0.26652 1.17683,0.66436 l 0.13935,0.23102 0.23347,-0.13476 2.50065,-1.44148 -0.13965,-0.23897 c -0.78859,-1.35127 -2.25599,-2.25863 -3.93235,-2.25863 z m 0,0.55037 c 1.37727,0 2.56755,0.70914 3.28694,1.76449 l -1.78649,1.03015 c -0.3531,-0.4317 -0.8795,-0.71692 -1.47875,-0.71692 -1.0593,0 -1.9237,0.86445 -1.9237,1.92308 v 6.22093 h -2.0985 v -6.22062 c 0,-2.21267 1.7891,-4.00111 4.0005,-4.00111 z"
           id="path23005" />
        <path
           style="color:#000000;fill:#800080;stroke-width:0.484425;-inkscape-stroke:none"
           d="m 178.15775,125.51737 c -3.25582,0 -5.90159,2.64501 -5.90159,5.90158 0,3.25633 2.64577,5.90157 5.90159,5.90157 2.18131,0 4.09036,-1.18497 5.11101,-2.94834 l 0.13324,-0.23011 -2.41234,-1.39259 -0.13293,0.2295 c -0.53861,0.93015 -1.54432,1.55669 -2.69898,1.55669 -1.72398,0 -3.11612,-1.39261 -3.11612,-3.11672 0,-1.72449 1.39208,-3.11612 3.11612,-3.11612 0.62491,0 1.19969,0.18986 1.68656,0.50513 l -4.01639,2.31945 1.39289,2.41111 6.59894,-3.80613 -0.0697,-0.20628 c -0.78942,-2.3316 -2.99718,-4.00874 -5.59232,-4.00874 z m 0,0.53081 c 2.29014,0 4.23045,1.43648 5.00467,3.45043 l -5.74726,3.31536 -0.86208,-1.4922 4.24253,-2.45023 -0.28939,-0.24386 c -0.63427,-0.53412 -1.45548,-0.85566 -2.34847,-0.85566 -2.01088,0 -3.64693,1.63558 -3.64693,3.64693 0,2.01102 1.63599,3.64753 3.64693,3.64753 1.25083,0 2.33899,-0.64689 2.9957,-1.60924 l 1.5081,0.87032 c -0.9565,1.47825 -2.61012,2.46215 -4.5038,2.46215 -2.96893,0 -5.37077,-2.40135 -5.37077,-5.37076 0,-2.96966 2.40184,-5.37077 5.37077,-5.37077 z"
           id="path22993" />
      </g>
    </g>
    <text
       xml:space="preserve"
       transform="scale(0.26458333)"
       id="text19052"
       style="font-style:normal;font-weight:normal;font-size:40px;line-height:1.25;font-family:sans-serif;white-space:pre;shape-inside:url(#rect19054);display:inline;fill:#000000;fill-opacity:1;stroke:none" />
    <g
       aria-label="Tobor"
       transform="matrix(0.72468052,0,0,0.72576193,-468.60387,535.1763)"
       id="g22738"
       style="font-size:108.712px;line-height:1.25;letter-spacing:-6.42034px;display:inline;fill:none;stroke:#000000;stroke-width:2.06834;stroke-miterlimit:4;stroke-dasharray:none">
      <g
         id="g60"
         style="stroke-width:2.06834;stroke-dasharray:none">
        <path
           d="m 535.42443,-45.10597 h -30.416 V 17.212334 H 491.2071 V -45.10597 h -30.46909 v -13.801328 h 74.68642 z"
           style="font-family:Audiowide;-inkscape-font-specification:Audiowide;fill:none;stroke:#000000;stroke-width:2.06834;stroke-miterlimit:4;stroke-dasharray:none"
           id="path22728" />
        <path
           style="fill:none;stroke:#000000;stroke-width:2.06834;stroke-dasharray:none"
           d="m 464.41516,-58.117882 -1.44362,1.442686 c -1.92481,1.923582 -1.92481,6.391424 0,4.467842 l 4.23781,-4.235088 c 2.23535,-2.233921 6.70606,-2.233921 4.47071,0 l -8.47561,8.470175 c -2.23536,2.233921 1.83365,2.635361 4.06901,0.40144 l 8.8773,-8.871616 c 2.23536,-2.233921 6.70607,-2.233921 4.47071,0 l -8.8773,8.871616 c -2.23536,2.233921 2.23535,2.233921 4.4707,0 l 8.87731,-8.871616 c 2.23535,-2.233921 6.70606,-2.233921 4.47071,0 l -8.87731,8.871616 c -2.23535,2.233921 2.23536,2.233921 4.47071,0 l 8.87731,-8.871616 c 2.23535,-2.233921 6.70606,-2.233921 4.4707,0 l -8.8773,8.871616 c -2.23536,2.233921 1.81118,2.657818 4.04654,0.423898 l 9.30147,-9.295513 c 2.23536,-2.233921 6.70607,-2.233921 4.47071,0 l -13.77218,13.763355 c -2.23536,2.233921 -2.23536,6.701763 0,4.467842 l 18.24289,-18.231197 c 2.23535,-2.233921 6.70606,-2.233921 4.47071,0 l -8.87731,8.871616 c -2.23535,2.233921 2.23535,2.233921 4.47071,0 l 8.87731,-8.871616 c 2.23535,-2.233921 6.70606,-2.233921 4.4707,0 l -8.8773,8.871616 c -2.23536,2.233921 2.23535,2.233921 4.4707,0 l 8.87731,-8.871616 c 2.23536,-2.233921 5.39408,-0.922782 3.15873,1.311139 l -7.56533,7.560477 c -2.23535,2.233921 2.23536,2.233921 4.47071,0 l 3.78266,-3.780238 c 1.31797,-1.317117 1.31797,3.150725 0,4.467842 l -0.98847,0.987837 m -28.43905,1.613772 -10.54497,10.538209 c -2.23536,2.233921 -2.23536,6.701763 0,4.467842 l 8.86845,-8.862769 c 2.23536,-2.233921 2.23536,2.233921 0,4.467842 l -8.86845,8.862769 c -2.23536,2.233921 -2.23536,6.701763 0,4.467842 l 8.86845,-8.862769 c 2.23536,-2.233921 2.23536,2.233921 0,4.467842 l -8.86845,8.862769 c -2.23536,2.233921 -2.23536,6.701763 0,4.467842 l 8.86845,-8.862769 c 2.23536,-2.233921 2.23536,2.233921 0,4.467842 l -8.86845,8.862769 c -2.23536,2.233921 -2.23536,6.701763 0,4.467842 l 8.86845,-8.862769 c 2.23536,-2.233921 2.23536,2.233921 0,4.467842 l -8.86845,8.862769 c -2.23536,2.233921 -2.23536,6.701763 0,4.467842 l 8.86845,-8.862769 c 2.23536,-2.233921 2.23536,2.233921 0,4.467842 l -8.86845,8.862769 c -2.23536,2.233921 -1.57956,6.046385 0.6558,3.812464 l 8.21265,-8.20739 c 2.23536,-2.233921 2.23536,2.233921 0,4.467842 l -4.10633,4.103695 c -1.74951,1.748392 2.7212,1.748392 4.47071,0 l 1.31214,-1.311294"
           id="path60" />
      </g>
      <g
         id="g61"
         style="stroke-width:2.06834;stroke-dasharray:none">
        <path
           d="m 593.97649,-2.1626074 q 0,3.5564961 -0.90239,6.4229257 -0.90239,2.8133476 -2.38869,4.9897108 -1.4863,2.1232809 -3.45033,3.6626599 -1.96404,1.486297 -4.1404,2.441774 -2.12328,0.955476 -4.35273,1.433214 -2.17636,0.424657 -4.1404,0.424657 h -24.89547 q -2.86643,0 -6.26368,-1.008559 -3.39725,-1.008558 -6.31676,-3.291086 -2.86643,-2.335609 -4.83046,-5.9982692 -1.91096,-3.7157421 -1.91096,-9.0770272 V -20.847482 q 0,-5.308203 1.91096,-8.970863 1.96403,-3.715742 4.83046,-5.99827 2.91951,-2.335609 6.31676,-3.344167 3.39725,-1.008559 6.26368,-1.008559 h 24.89547 q 5.30821,0 9.02395,1.910953 3.71574,1.910953 5.99827,4.830465 2.28253,2.866429 3.29108,6.263679 1.06164,3.39725 1.06164,6.316762 z M 580.17517,-20.741318 q 0,-2.86643 -1.43322,-4.246562 -1.43321,-1.380133 -4.1404,-1.380133 h -24.7893 q -2.76027,0 -4.19348,1.433215 -1.43322,1.380132 -1.43322,4.087316 v 18.6848746 q 0,2.70718358 1.43322,4.1403984 1.43321,1.4332148 4.19348,1.4332148 h 24.7893 q 2.81335,0 4.19348,-1.4332148 1.38014,-1.43321482 1.38014,-4.1403984 z"
           style="font-family:Audiowide;-inkscape-font-specification:Audiowide;fill:none;stroke:#000000;stroke-width:2.06834;stroke-miterlimit:4;stroke-dasharray:none"
           id="path22730" />
        <path
           style="fill:none;stroke:#000000;stroke-width:2.06834;stroke-dasharray:none"
           d="m 541.3515,-37.804712 -7.29887,7.294193 c -2.23535,2.233921 -3.3692,7.834881 -1.13384,5.60096 l 12.63033,-12.622234 c 2.23535,-2.233921 6.87887,-2.406613 4.64351,-0.172693 l -17.34197,17.330854 c -2.23536,2.233921 -2.23536,6.701763 0,4.467842 l 21.81268,-21.798695 c 2.23535,-2.233921 6.70606,-2.233921 4.47071,0 l -9.29899,9.293026 c -2.23536,2.233921 2.65703,1.812511 4.89239,-0.42141 l 8.8773,-8.871616 c 2.23536,-2.233921 6.70607,-2.233921 4.47071,0 l -8.8773,8.871616 c -2.23536,2.233921 2.23535,2.233921 4.4707,0 l 8.88152,-8.875819 c 2.23535,-2.233921 6.43239,-1.960429 4.19704,0.273492 l -8.60785,8.602328 c -2.23535,2.233921 2.23536,2.233921 4.47071,0 l 7.64961,-7.644708 c 2.23536,-2.233921 5.18271,-0.711547 2.94736,1.522373 l -6.15139,6.147443 c -2.23535,2.233921 1.11939,3.349176 3.35474,1.115255 l 5.31767,-5.314258 c 2.23535,-2.233921 4.32069,0.149917 2.08534,2.383838 l -5.53636,5.532805 c -2.23535,2.233921 -1.871,6.337644 0.36436,4.103723 l 6.84619,-6.841809 c 2.23536,-2.233921 3.43652,1.033525 1.20117,3.267446 l -8.04736,8.042204 c -2.23536,2.233921 -2.23536,6.701763 0,4.467842 l 8.85661,-8.85094 c 2.23536,-2.233921 2.24719,2.222102 0.0118,4.456023 l -8.86844,8.862759 c -2.23536,2.233921 -2.34022,6.806554 -0.10486,4.572634 l 8.9733,-8.96755 c 2.23535,-2.233921 2.23535,2.233921 0,4.467842 l -22.2717,22.257425 c -2.23536,2.233921 -6.70607,2.233921 -4.47071,0 l 9.2283,-9.222386 c 2.23535,-2.233921 -2.58635,-1.883151 -4.8217,0.35077 l -8.87731,8.871616 c -2.23536,2.233921 -6.70606,2.233921 -4.47071,0 l 8.87731,-8.871616 c 2.23535,-2.233921 -2.23536,-2.233921 -4.47071,0 l -9.03748,9.031688 c -2.23535,2.233921 -6.11424,1.642479 -3.87889,-0.591442 l 8.44566,-8.440246 c 2.23536,-2.233921 -2.23535,-2.233921 -4.4707,0 l -7.40284,7.398089 c -2.23535,2.233921 -5.19485,0.723673 -2.95949,-1.510248 L 546.955,5.741645 c 2.23536,-2.233921 -1.00463,-3.463851 -3.23999,-1.22993 l -5.31677,5.313361 c -2.23535,2.233921 -4.33253,-0.138092 -2.09717,-2.372013 l 5.68887,-5.685224 c 2.23535,-2.233921 1.96453,-6.431108 -0.27083,-4.197187 l -7.14082,7.136239 c -2.23535,2.233921 -3.40173,-1.06829 -1.16637,-3.302211 l 8.30719,-8.30187 c 2.23536,-2.233921 2.23536,-6.701763 0,-4.467842 l -8.95541,8.949674 c -2.23536,2.233921 -2.1484,-2.320826 0.087,-4.554747 l 8.86845,-8.862769 c 2.23536,-2.233921 2.69293,-7.159045 0.45758,-4.925124 l -11.00255,10.995491 m 62.01243,5.044961 -19.47751,19.465024 c -2.23536,2.233921 2.29179,2.177516 4.52714,-0.0564 L 591.44048,1.495261 c 2.23536,-2.233921 1.15931,3.309273 -1.07604,5.543194 l -8.35475,8.349395"
           id="path61" />
      </g>
      <g
         id="g62"
         style="stroke-width:2.06834;stroke-dasharray:none">
        <path
           d="m 662.56106,-2.1626074 q 0,1.96403515 -0.47774,4.1403984 -0.42465,2.1763632 -1.38013,4.3527265 -0.95548,2.1232812 -2.49485,4.0873165 -1.4863,1.964035 -3.66266,3.503414 -2.12329,1.486297 -4.93663,2.388691 -2.81335,0.902395 -6.36985,0.902395 h -24.89547 q -1.96403,0 -4.1404,-0.424657 -2.17636,-0.477738 -4.35272,-1.433214 -2.12328,-0.955477 -4.08732,-2.441774 -1.96404,-1.539379 -3.50341,-3.6626599 -1.4863,-2.1763632 -2.3887,-4.9897108 -0.90239,-2.8664296 -0.90239,-6.4229257 V -64.427829 h 13.80133 v 62.2652216 q 0,2.54793748 1.59246,4.0873164 1.59246,1.4862968 3.98115,1.4862968 h 24.89547 q 2.60102,0 4.03424,-1.5393789 1.48629,-1.53937885 1.48629,-4.0342343 V -20.847482 q 0,-2.60102 -1.53937,-4.034234 -1.53938,-1.486297 -3.98116,-1.486297 h -24.89547 v -13.801328 h 24.89547 q 1.96404,0 4.1404,0.477738 2.17636,0.424656 4.29965,1.380133 2.17636,0.955477 4.14039,2.494855 1.96404,1.486297 3.45034,3.662661 1.48629,2.123281 2.38869,4.936628 0.90239,2.813348 0.90239,6.369844 z"
           style="font-family:Audiowide;-inkscape-font-specification:Audiowide;fill:none;stroke:#000000;stroke-width:2.06834;stroke-miterlimit:4;stroke-dasharray:none"
           id="path22732" />
        <path
           style="fill:none;stroke:#000000;stroke-width:2.06834;stroke-dasharray:none"
           d="m 602.08799,-63.638413 -1.16464,1.163893 c -1.55285,1.551858 -1.55285,6.0197 0,4.467842 l 3.95884,-3.956295 c 2.23535,-2.233921 6.70606,-2.233921 4.4707,0 l -7.91766,7.912589 c -2.23536,2.233921 -2.23536,6.701763 0,4.467842 l 8.86845,-8.862769 c 2.23536,-2.233921 2.23536,2.233921 0,4.467842 l -8.86845,8.862769 c -2.23536,2.233921 -2.23536,6.701763 0,4.467842 l 8.86845,-8.862769 c 2.23536,-2.233921 2.23536,2.233921 0,4.467842 l -8.86845,8.862769 c -2.23536,2.233921 -2.23536,6.701763 0,4.467842 l 8.86845,-8.862769 c 2.23536,-2.233921 2.23536,2.233921 0,4.467842 l -8.86845,8.862769 c -2.23536,2.233921 -2.23536,6.701763 0,4.467842 l 8.86845,-8.862769 c 2.23536,-2.233921 2.23536,2.233921 0,4.467842 l -8.86845,8.862769 c -2.23536,2.233921 -2.23536,6.701763 0,4.467842 l 8.86845,-8.862769 c 2.23536,-2.233921 2.23536,2.233921 0,4.467842 l -8.86845,8.862769 c -2.23536,2.233921 -2.23536,6.701763 0,4.467842 l 8.86845,-8.862769 c 2.23536,-2.233921 2.23536,2.233921 0,4.467842 l -8.66286,8.657309 c -2.23536,2.233921 -1.36932,5.836286 0.86603,3.602365 l 7.79683,-7.791833 c 2.23536,-2.233921 2.23536,2.233921 0,4.467842 l -6.40083,6.396732 c -2.23536,2.233921 -0.34726,4.81487 1.8881,2.580949 l 5.49132,-5.487804 c 2.23536,-2.233921 4.63157,-0.160754 2.39621,2.073167 l -5.56015,5.556593 c -2.23536,2.233921 0.51002,3.958144 2.74537,1.724224 l 6.60887,-6.604631 c 2.23536,-2.233921 6.70606,-2.233921 4.47071,0 l -7.91952,7.914439 c -2.23535,2.233921 1.4299,3.038864 3.66525,0.804943 l 8.72498,-8.719382 c 2.23535,-2.233921 6.70606,-2.233921 4.47071,0 l -8.87731,8.871616 c -2.23536,2.233921 2.23535,2.233921 4.47071,0 l 8.8773,-8.871616 c 2.23536,-2.233921 6.70607,-2.233921 4.47071,0 l -8.87731,8.871616 c -2.23535,2.233921 2.23536,2.233921 4.47071,0 l 24.67511,-24.659285 c 2.23535,-2.233921 2.23535,2.233921 0,4.467842 l -20.2044,20.191444 c -2.23535,2.233921 2.23535,2.233921 4.47071,0 l 15.73369,-15.723602 c 2.23535,-2.233921 2.07164,2.397525 -0.16371,4.631446 l -11.09214,11.085029 c -2.23536,2.233921 4.59372,-0.122931 6.82907,-2.356852 l 2.97119,-2.969287 m -36.11801,-48.79414 -1.71085,1.709758 c -2.23536,2.233921 -2.23536,6.701763 0,4.467842 l 4.50505,-4.502159 c 2.23535,-2.233921 6.70606,-2.233921 4.4707,0 l -8.8773,8.871616 c -2.23536,2.233921 2.23535,2.233921 4.4707,0 l 8.87731,-8.871616 c 2.23536,-2.233921 6.70606,-2.233921 4.47071,0 l -8.87731,8.871616 c -2.23535,2.233921 2.23536,2.233921 4.47071,0 l 8.80929,-8.803645 c 2.23536,-2.233921 5.99916,-1.527471 3.76381,0.70645 l -8.10239,8.097195 c -2.23536,2.233921 2.23535,2.233921 4.47071,0 l 6.87831,-6.873902 c 2.23535,-2.233921 5.04423,-0.573157 2.80888,1.660764 l -5.60398,5.600384 c -2.23535,2.233921 0.36887,4.099212 2.60422,1.865291 l 5.41403,-5.41056 c 2.23536,-2.233921 4.18731,0.283224 1.95195,2.517145 l -6.12058,6.116655 c -2.23535,2.233921 -2.20418,6.670607 0.0312,4.436686 l 7.58248,-7.577617 c 2.23535,-2.233921 3.21703,1.252873 0.98167,3.486794 l -8.56415,8.558665 c -2.23536,2.233921 -2.23536,6.701763 0,4.467842 l 8.87348,-8.867798 c 2.23536,-2.233921 2.23033,2.23895 -0.005,4.472871 L 649.5497,-3.841439"
           id="path62" />
      </g>
      <g
         id="g63"
         style="stroke-width:2.06834;stroke-dasharray:none">
        <path
           d="m 730.3494,-2.1626074 q 0,3.5564961 -0.90239,6.4229257 -0.90239,2.8133476 -2.38869,4.9897108 -1.4863,2.1232809 -3.45033,3.6626599 -1.96404,1.486297 -4.1404,2.441774 -2.12328,0.955476 -4.35273,1.433214 -2.17636,0.424657 -4.1404,0.424657 h -24.89547 q -2.86643,0 -6.26368,-1.008559 -3.39725,-1.008558 -6.31676,-3.291086 -2.86643,-2.335609 -4.83047,-5.9982692 -1.91095,-3.7157421 -1.91095,-9.0770272 V -20.847482 q 0,-5.308203 1.91095,-8.970863 1.96404,-3.715742 4.83047,-5.99827 2.91951,-2.335609 6.31676,-3.344167 3.39725,-1.008559 6.26368,-1.008559 h 24.89547 q 5.30821,0 9.02395,1.910953 3.71574,1.910953 5.99827,4.830465 2.28252,2.866429 3.29108,6.263679 1.06164,3.39725 1.06164,6.316762 z M 716.54808,-20.741318 q 0,-2.86643 -1.43322,-4.246562 -1.43321,-1.380133 -4.1404,-1.380133 h -24.78931 q -2.76026,0 -4.19348,1.433215 -1.43321,1.380132 -1.43321,4.087316 v 18.6848746 q 0,2.70718358 1.43321,4.1403984 1.43322,1.4332148 4.19348,1.4332148 h 24.78931 q 2.81335,0 4.19348,-1.4332148 1.38014,-1.43321482 1.38014,-4.1403984 z"
           style="font-family:Audiowide;-inkscape-font-specification:Audiowide;fill:none;stroke:#000000;stroke-width:2.06834;stroke-miterlimit:4;stroke-dasharray:none"
           id="path22734" />
        <path
           style="fill:none;stroke:#000000;stroke-width:2.06834;stroke-dasharray:none"
           d="m 677.72442,-37.804712 -7.29888,7.294196 c -2.23535,2.233921 -3.3692,7.834879 -1.13384,5.600958 l 12.63033,-12.622234 c 2.23535,-2.233921 6.87887,-2.406613 4.64351,-0.172693 l -17.34197,17.330854 c -2.23536,2.233921 -2.23536,6.701763 0,4.467842 l 21.81268,-21.798695 c 2.23535,-2.233921 6.70606,-2.233921 4.47071,0 l -9.29899,9.293029 c -2.23536,2.233921 2.65703,1.812507 4.89239,-0.421413 l 8.8773,-8.871616 c 2.23536,-2.233921 6.70607,-2.233921 4.47071,0 l -8.8773,8.871616 c -2.23536,2.233921 2.23535,2.233921 4.4707,0 l 8.88152,-8.875819 c 2.23535,-2.233921 6.43239,-1.960429 4.19704,0.273492 l -8.60785,8.602328 c -2.23535,2.233921 2.23536,2.233921 4.47071,0 l 7.64961,-7.644708 c 2.23536,-2.233921 5.18271,-0.711547 2.94736,1.522373 l -6.15139,6.147443 c -2.23535,2.233921 1.11939,3.349176 3.35474,1.115255 l 5.31767,-5.314258 c 2.23535,-2.233921 4.32069,0.149918 2.08534,2.383839 l -5.53636,5.532804 c -2.23535,2.233921 -1.871,6.337644 0.36436,4.103723 l 6.84619,-6.841806 c 2.23535,-2.233921 3.43652,1.033522 1.20117,3.267443 l -8.04736,8.042204 c -2.23536,2.233921 -2.23536,6.701763 0,4.467842 l 8.85661,-8.85094 c 2.23536,-2.233921 2.24718,2.222102 0.0118,4.456023 l -8.86844,8.862759 c -2.23536,2.233921 -2.34022,6.806554 -0.10486,4.572634 l 8.9733,-8.96755 c 2.23535,-2.233921 2.23535,2.233921 0,4.467842 l -22.2717,22.257425 c -2.23536,2.233921 -6.70607,2.233921 -4.47071,0 l 9.2283,-9.222386 c 2.23535,-2.233921 -2.58635,-1.883151 -4.8217,0.35077 l -8.87731,8.871616 c -2.23536,2.233921 -6.70606,2.233921 -4.47071,0 l 8.87731,-8.871616 c 2.23535,-2.233921 -2.23536,-2.233921 -4.47071,0 l -9.03748,9.031688 c -2.23536,2.233921 -6.11424,1.642479 -3.87889,-0.591442 l 8.44566,-8.440246 c 2.23536,-2.233921 -2.23535,-2.233921 -4.47071,0 l -7.40283,7.398089 c -2.23536,2.233921 -5.19485,0.723673 -2.95949,-1.510248 l 6.02591,-6.022054 c 2.23536,-2.233921 -1.00463,-3.463853 -3.23998,-1.229932 l -5.31677,5.313357 c -2.23535,2.233921 -4.33253,-0.13809 -2.09717,-2.372011 l 5.68887,-5.685225 c 2.23535,-2.233921 1.96453,-6.431109 -0.27083,-4.197188 l -7.14082,7.136246 c -2.23536,2.233921 -3.40173,-1.068294 -1.16638,-3.302215 l 8.3072,-8.301873 c 2.23536,-2.233921 2.23536,-6.701763 0,-4.467842 l -8.95541,8.949674 c -2.23536,2.233921 -2.1484,-2.320826 0.087,-4.554747 l 8.86845,-8.862769 c 2.23536,-2.233921 2.69293,-7.159044 0.45758,-4.925123 l -11.00255,10.995491 m 62.01243,5.04496 -19.47751,19.465024 c -2.23536,2.233921 2.29179,2.177516 4.52714,-0.0564 L 727.81339,1.495261 c 2.23536,-2.233921 1.15932,3.309273 -1.07604,5.543194 l -8.35475,8.349395"
           id="path63" />
      </g>
      <g
         id="g64"
         style="stroke-width:2.06834;stroke-dasharray:none">
        <path
           d="m 785.87578,-26.368013 h -31.05299 q -2.81334,0 -4.24656,1.433215 -1.43321,1.380132 -1.43321,4.087316 v 38.059816 h -13.80133 v -38.059816 q 0,-3.556496 0.90239,-6.369844 0.9024,-2.813347 2.38869,-4.936628 1.53938,-2.176364 3.50342,-3.662661 1.96403,-1.539378 4.08732,-2.494855 2.17636,-0.955477 4.35272,-1.380133 2.22945,-0.477738 4.1404,-0.477738 h 31.15915 z"
           style="font-family:Audiowide;-inkscape-font-specification:Audiowide;fill:none;stroke:#000000;stroke-width:2.06834;stroke-miterlimit:4;stroke-dasharray:none"
           id="path22736" />
        <path
           style="fill:none;stroke:#000000;stroke-width:2.06834;stroke-dasharray:none"
           d="m 746.30732,-37.83399 -7.14808,7.143494 c -2.23535,2.233921 -3.68145,8.146937 -1.4461,5.913016 l 12.86458,-12.856331 c 2.23535,-2.233921 6.77678,-2.304595 4.54143,-0.07067 l -17.31102,17.299919 c -2.23536,2.233921 -2.23536,6.701763 0,4.467842 l 21.78172,-21.767761 c 2.23536,-2.233921 6.70607,-2.233921 4.47071,0 l -9.26908,9.26314 c -2.23535,2.233921 2.62713,1.842396 4.86248,-0.391525 l 8.87731,-8.871616 c 2.23535,-2.233921 6.70606,-2.233921 4.47071,0 l -8.87731,8.871616 c -2.23535,2.233921 2.23536,2.233921 4.47071,0 l 8.87731,-8.871616 c 2.23535,-2.233921 6.70606,-2.233921 4.4707,0 l -8.8773,8.871616 c -2.23536,2.233921 2.23535,2.233921 4.4707,0 l 5.87255,-5.868781 c 2.23535,-2.233921 2.23535,2.233921 0,4.467842 l -3.07835,3.07638 m -31.53953,4.712259 -10.98333,10.976288 c -2.23536,2.233921 -2.23536,6.701763 0,4.467842 l 8.86845,-8.862769 c 2.23536,-2.233921 2.23536,2.233921 0,4.467842 l -8.86845,8.862769 c -2.23536,2.233921 -2.23536,6.701763 0,4.467842 l 8.86845,-8.862769 c 2.23536,-2.233921 2.23536,2.233921 0,4.467842 l -8.86845,8.862769 c -2.23536,2.233921 -2.23536,6.701763 0,4.467842 l 8.86845,-8.862769 c 2.23536,-2.233921 2.23536,2.233921 0,4.467842 l -8.27738,8.272078 c -2.23536,2.233921 2.23535,2.233921 4.47071,0 l 4.13869,-4.136039 c 1.79267,-1.791517 1.79267,2.676325 0,4.467842 l -1.3445,1.343638"
           id="path64" />
      </g>
    </g>
    <path
       style="font-size:20.9487px;line-height:1.05;font-family:Audiowide;-inkscape-font-specification:Audiowide;stroke-width:0.264582"
       d="m -131.02929,471.58787 h 9.33895 v -5.99411 h 2.6595 v 14.66818 h -2.6595 v -5.99411 h -9.33895 v 5.99411 h -2.6595 v -14.66818 h 2.6595 z m 17.5118,-4.65413 h -2.6595 v -2.40378 h 2.6595 z m 0,13.3282 h -2.6595 v -11.0574 h 2.6595 z m 3.64148,1.88211 h -1.87188 l 0.95128,-5.14512 h 2.50607 z m 13.410028,-1.88211 h -2.659508 v -14.66818 h 2.659508 z m 4.63367,-8.89911 h -1.69799 l -0.388696,-5.15534 h 2.50607 z m 12.499666,8.89911 h -2.659503 v -7.33409 q 0,-0.52167 -0.276179,-0.78762 -0.27618,-0.27618 -0.818309,-0.27618 h -3.457354 v 8.39789 h -2.659503 v -9.73787 q 0,-0.27618 0.102289,-0.51145 0.102288,-0.24549 0.286408,-0.41938 0.184119,-0.18412 0.429612,-0.28641 0.245492,-0.10229 0.521672,-0.10229 h 4.797334 q 0.552358,0 1.186547,0.19435 0.634189,0.19435 1.207005,0.62396 v -0.81831 h 3.600558 q 0.378468,0 0.797851,0.0921 0.419383,0.0818 0.828537,0.26595 0.419384,0.18412 0.797851,0.48076 0.378468,0.28641 0.664876,0.70579 0.286408,0.40915 0.460299,0.95128 0.17389,0.54213 0.17389,1.22747 v 7.33409 h -2.659503 v -7.33409 q 0,-0.52167 -0.26595,-0.78762 -0.255721,-0.27618 -0.797851,-0.27618 h -2.393552 q 0.132975,0.49098 0.132975,1.0638 z"
       id="text20504"
       aria-label="Hi, I'm" />
    <path
       style="font-size:20.1324px;line-height:1.25;font-family:Audiowide;-inkscape-font-specification:Audiowide;stroke-width:0.264583"
       d="m -22.335513,567.87024 h -2.555872 v -14.09661 h 2.555872 z m 4.453113,-8.55233 h -1.631825 l -0.37355,-4.95446 h 2.408417 z m 12.0125943,8.55233 h -2.5558712 v -7.0483 q 0,-0.50135 -0.265417,-0.75693 -0.265418,-0.26542 -0.786422,-0.26542 h -3.3226331 v 8.07065 h -2.555871 v -9.35842 q 0,-0.26541 0.0983,-0.49151 0.0983,-0.23593 0.275247,-0.40304 0.176945,-0.17695 0.412872,-0.27525 0.235927,-0.0983 0.501344,-0.0983 h 4.6103981 q 0.530835,0 1.140312,0.18677 0.609477,0.18678 1.159972,0.59965 v -0.78642 h 3.4602566 q 0.3637202,0 0.7667614,0.0885 0.4030412,0.0786 0.7962522,0.25559 0.4030412,0.17694 0.7667613,0.46202 0.3637201,0.27525 0.63896779,0.67829 0.2752477,0.39321 0.4423623,0.91422 0.1671147,0.521 0.1671147,1.17963 v 7.0483 H -2.6749698 v -7.0483 q 0,-0.50135 -0.2555871,-0.75693 -0.2457569,-0.26542 -0.7667614,-0.26542 h -2.300284 q 0.1277936,0.47185 0.1277936,1.02235 z m 25.5193897,-3.51923 q 0,0.53083 -0.186775,1.15014 -0.186775,0.60948 -0.609477,1.14031 -0.412871,0.52101 -1.09116,0.8749 -0.668459,0.35388 -1.631826,0.35388 h -4.610398 q -0.530835,0 -1.150142,-0.18677 -0.6094768,-0.18678 -1.1403116,-0.59965 -0.5210045,-0.4227 -0.8748944,-1.09116 -0.3538898,-0.67829 -0.3538898,-1.64165 0,-0.53084 0.1867752,-1.15015 0.1867752,-0.6193 0.5996467,-1.14031 0.4227017,-0.53083 1.0911604,-0.88472 0.6782885,-0.35389 1.6416555,-0.35389 h 4.610398 v 2.43791 h -4.610398 q -0.521004,0 -0.806082,0.3244 -0.285078,0.31456 -0.285078,0.78642 0,0.50134 0.324399,0.78642 0.334229,0.27525 0.786422,0.27525 h 4.590737 q 0.521005,0 0.806083,-0.31457 0.285078,-0.31457 0.285078,-0.78642 v -3.56839 q 0,-0.50135 -0.314569,-0.79626 -0.304738,-0.2949 -0.776592,-0.2949 H 10.51726 v -2.42808 h 5.613086 q 0.530835,0 1.140312,0.18677 0.619307,0.18678 1.140312,0.60948 0.530835,0.41287 0.884725,1.09116 0.353889,0.66846 0.353889,1.63183 z m 18.028721,-4.55142 h -5.75071 q -0.521004,0 -0.786422,0.26542 -0.265417,0.25558 -0.265417,0.75693 v 7.0483 h -2.555871 v -7.0483 q 0,-0.65863 0.167114,-1.17963 0.167115,-0.52101 0.442363,-0.91422 0.285077,-0.40304 0.648798,-0.67829 0.36372,-0.28508 0.756931,-0.46202 0.403041,-0.17695 0.806082,-0.25559 0.412872,-0.0885 0.766761,-0.0885 h 5.770371 z m 13.202057,4.48261 q 0,0.65862 -0.167115,1.18946 -0.167115,0.521 -0.442362,0.92404 -0.275248,0.39321 -0.638968,0.67829 -0.36372,0.27525 -0.766762,0.4522 -0.393211,0.17694 -0.806082,0.26541 -0.403041,0.0786 -0.766761,0.0786 h -4.610399 q -0.530835,0 -1.159972,-0.18677 -0.629138,-0.18678 -1.169803,-0.60948 -0.530834,-0.43253 -0.894555,-1.11082 -0.353889,-0.68812 -0.353889,-1.68097 v -3.46026 q 0,-0.98303 0.353889,-1.66132 0.363721,-0.68812 0.894555,-1.11082 0.540665,-0.43253 1.169803,-0.61931 0.629137,-0.18677 1.159972,-0.18677 h 4.610399 q 0.983027,0 1.671146,0.35389 0.688119,0.35389 1.110821,0.89455 0.422702,0.53084 0.609477,1.15998 0.196606,0.62913 0.196606,1.1698 z m -2.555872,-3.4406 q 0,-0.53084 -0.265417,-0.78642 -0.265417,-0.25559 -0.766761,-0.25559 h -4.590738 q -0.511174,0 -0.776592,0.26542 -0.265417,0.25558 -0.265417,0.75693 v 3.46026 q 0,0.50134 0.265417,0.76676 0.265418,0.26541 0.776592,0.26541 h 4.590738 q 0.521004,0 0.776591,-0.26541 0.255587,-0.26542 0.255587,-0.76676 z m 16.446051,3.4406 q 0,0.36372 -0.08847,0.76676 -0.07864,0.40304 -0.255587,0.80608 -0.176945,0.39321 -0.462023,0.75693 -0.275247,0.36372 -0.678289,0.6488 -0.39321,0.27525 -0.914215,0.44236 -0.521004,0.16711 -1.179633,0.16711 h -4.610398 q -0.36372,0 -0.766762,-0.0786 -0.403041,-0.0885 -0.806082,-0.26541 -0.393211,-0.17695 -0.756931,-0.4522 -0.36372,-0.28508 -0.648798,-0.67829 -0.275248,-0.40304 -0.442362,-0.92404 -0.167115,-0.53084 -0.167115,-1.18946 v -11.53092 h 2.555871 v 11.53092 q 0,0.47185 0.294908,0.75693 0.294908,0.27524 0.737271,0.27524 h 4.610398 q 0.481684,0 0.747101,-0.28507 0.275248,-0.28508 0.275248,-0.7471 v -3.46026 q 0,-0.48168 -0.285078,-0.7471 -0.285078,-0.27525 -0.737271,-0.27525 h -4.610398 v -2.55587 h 4.610398 q 0.36372,0 0.766762,0.0885 0.403041,0.0786 0.796252,0.25559 0.403041,0.17694 0.766761,0.46202 0.36372,0.27525 0.638968,0.67829 0.275247,0.39321 0.442362,0.91422 0.167115,0.521 0.167115,1.17963 z m 13.742725,0 q 0,0.65862 -0.167115,1.18946 -0.167115,0.521 -0.442362,0.92404 -0.275248,0.39321 -0.638968,0.67829 -0.36372,0.27525 -0.766762,0.4522 -0.39321,0.17694 -0.806082,0.26541 -0.403041,0.0786 -0.766761,0.0786 h -4.610399 q -0.530834,0 -1.159972,-0.18677 -0.629137,-0.18678 -1.169803,-0.60948 -0.530834,-0.43253 -0.894554,-1.11082 -0.35389,-0.68812 -0.35389,-1.68097 v -3.46026 q 0,-0.98303 0.35389,-1.66132 0.36372,-0.68812 0.894554,-1.11082 0.540666,-0.43253 1.169803,-0.61931 0.629138,-0.18677 1.159972,-0.18677 h 4.610399 q 0.983027,0 1.671146,0.35389 0.688119,0.35389 1.110821,0.89455 0.422702,0.53084 0.609477,1.15998 0.196606,0.62913 0.196606,1.1698 z m -2.555872,-3.4406 q 0,-0.53084 -0.265417,-0.78642 -0.265417,-0.25559 -0.766761,-0.25559 h -4.590738 q -0.511174,0 -0.776592,0.26542 -0.265417,0.25558 -0.265417,0.75693 v 3.46026 q 0,0.50134 0.265417,0.76676 0.265418,0.26541 0.776592,0.26541 h 4.590738 q 0.521004,0 0.776591,-0.26541 0.255587,-0.26542 0.255587,-0.76676 z m 14.342367,-1.04201 h -4.462944 v 8.07065 h -2.585362 v -8.07065 h -3.322632 v -2.55587 h 3.322632 v -3.47009 h 2.585362 v 3.47009 h 4.462944 z"
       id="text21508"
       aria-label="I'm a robot" />
    <circle
       id="path80"
       style="fill:#000000;stroke:none;stroke-width:0.264583"
       cx="-265.10074"
       cy="650.96954"
       r="0.39687499" />
    <text
       xml:space="preserve"
       style="font-style:normal;font-weight:normal;font-size:17.9672px;line-height:1.25;font-family:sans-serif;fill:#000000;fill-opacity:1;stroke:none;stroke-width:0.264582"
       x="174.7182"
       y="129.11571"
       id="text87"><tspan
         sodipodi:role="line"
         style="font-style:normal;font-variant:normal;font-weight:normal;font-stretch:normal;font-family:Audiowide;-inkscape-font-specification:Audiowide;stroke-width:0.264582"
         x="174.7182"
         y="129.11571"
         id="tspan87" /></text>
    <text
       xml:space="preserve"
       transform="scale(0.26458333)"
       id="text233"
       style="font-style:normal;font-weight:normal;font-size:40px;line-height:1.25;font-family:sans-serif;white-space:pre;shape-inside:url(#rect233);display:inline;fill:#000000;fill-opacity:1;stroke:none" />
    <text
       xml:space="preserve"
       transform="scale(0.26458333)"
       id="text234"
       style="font-style:normal;font-weight:normal;font-size:40px;line-height:1.25;font-family:sans-serif;white-space:pre;shape-inside:url(#rect234);display:inline;fill:#000000;fill-opacity:1;stroke:none" />
    <path
       style="font-size:20.9487px;line-height:1.05;font-family:Audiowide;-inkscape-font-specification:Audiowide;stroke-width:0.264582"
       d="m -124.39374,588.5253 h -8.40813 v -2.67996 h 8.40813 z m 1.18654,-6.01456 h -10.65847 v 12.00867 h -2.6595 v -13.3282 q 0,-0.27618 0.10229,-0.52167 0.10229,-0.24549 0.27618,-0.42961 0.18412,-0.18412 0.42961,-0.28641 0.24549,-0.10229 0.5319,-0.10229 h 11.97799 z m 4.55184,-1.31953 h -2.6595 v -2.40378 h 2.6595 z m 0,13.3282 h -2.6595 v -11.05739 h 2.6595 z m 14.80116,0 h -2.6595 v -6.13731 q 0,-0.52167 -0.18412,-0.93083 -0.17389,-0.41938 -0.48076,-0.71602 -0.30686,-0.29663 -0.72625,-0.45007 -0.40915,-0.16366 -0.88991,-0.16366 h -4.65413 v 8.39789 h -2.6595 v -9.73787 q 0,-0.27618 0.10229,-0.51144 0.10229,-0.24549 0.28641,-0.41938 0.18412,-0.18412 0.42961,-0.28641 0.24549,-0.10229 0.52167,-0.10229 h 5.99411 q 0.50121,0 1.05357,0.11252 0.56259,0.11251 1.10472,0.36824 0.55236,0.24549 1.04334,0.63419 0.50122,0.37846 0.87968,0.93082 0.3887,0.54213 0.61374,1.25815 0.22503,0.71602 0.22503,1.61616 z m 14.463604,-3.73353 q 0,0.68534 -0.173891,1.23769 -0.17389,0.54213 -0.460298,0.96152 -0.286408,0.40915 -0.664876,0.70579 -0.378468,0.28641 -0.797851,0.47052 -0.409154,0.18412 -0.838766,0.27618 -0.419383,0.0818 -0.797851,0.0818 h -4.797331 q -0.68534,0 -1.22747,-0.17389 -0.54213,-0.17389 -0.96151,-0.46029 -0.40915,-0.29664 -0.70579,-0.67511 -0.28641,-0.37847 -0.47053,-0.78762 -0.18412,-0.41938 -0.27618,-0.83877 -0.0818,-0.42961 -0.0818,-0.79785 v -3.60056 q 0,-1.02288 0.36824,-1.72867 0.37847,-0.71602 0.93083,-1.15586 0.56258,-0.45007 1.21723,-0.64442 0.65465,-0.19435 1.20701,-0.19435 h 4.797331 v 2.6595 h -4.776881 q -0.5319,0 -0.80808,0.27618 -0.27617,0.26595 -0.27617,0.78762 v 3.5801 q 0,0.54213 0.26595,0.81831 0.27618,0.27618 0.79785,0.27618 h 4.797331 q 0.542129,0 0.80808,-0.27618 0.26595,-0.27618 0.26595,-0.79785 v -11.99842 h 2.659503 z m 19.220025,3.73353 h -2.659503 v -7.33409 q 0,-0.52167 -0.276179,-0.78762 -0.27618,-0.27618 -0.818309,-0.27618 h -3.457354 v 8.39789 h -2.659503 v -9.73787 q 0,-0.27618 0.102289,-0.51144 0.102288,-0.24549 0.286408,-0.41938 0.184119,-0.18412 0.429612,-0.28641 0.245492,-0.10229 0.521672,-0.10229 h 4.797334 q 0.552358,0 1.186547,0.19435 0.634189,0.19435 1.207005,0.62396 v -0.81831 h 3.600558 q 0.378468,0 0.797851,0.0921 0.419383,0.0818 0.828538,0.26595 0.419383,0.18412 0.79785,0.48076 0.378468,0.2864 0.664876,0.70579 0.286408,0.40915 0.460299,0.95128 0.17389,0.54213 0.17389,1.22746 v 7.33409 h -2.659503 v -7.33409 q 0,-0.52167 -0.26595,-0.78762 -0.255721,-0.27618 -0.797851,-0.27618 h -2.393552 q 0.132975,0.49099 0.132975,1.0638 z m 20.324737,-7.39546 q 0,0.55236 -0.194349,1.19678 -0.194348,0.63419 -0.634189,1.18654 -0.429612,0.54213 -1.135403,0.91037 -0.695562,0.36824 -1.69799,0.36824 h -4.797334 v -2.52653 h 4.797334 q 0.542129,0 0.838766,-0.32732 0.296637,-0.33755 0.296637,-0.82854 0,-0.52167 -0.337552,-0.81831 -0.327324,-0.29663 -0.797851,-0.29663 h -4.797334 q -0.54213,0 -0.838767,0.33755 -0.296637,0.32732 -0.296637,0.81831 v 3.71307 q 0,0.5319 0.327324,0.82854 0.337552,0.29664 0.828537,0.29664 h 4.776877 v 2.53675 h -4.797334 q -0.552359,0 -1.196777,-0.19434 -0.634189,-0.19435 -1.186547,-0.62396 -0.54213,-0.43984 -0.910368,-1.13541 -0.368239,-0.70579 -0.368239,-1.70822 v -3.73353 q 0,-0.55236 0.194348,-1.18655 0.194348,-0.64441 0.62396,-1.18654 0.439841,-0.55236 1.135403,-0.9206 0.705792,-0.36824 1.70822,-0.36824 h 4.797334 q 0.552358,0 1.186547,0.19435 0.644418,0.19435 1.186548,0.63419 0.552358,0.42961 0.920597,1.1354 0.368239,0.69556 0.368239,1.69799 z m 24.29354,1.46273 q 0,1.33998 -0.460298,2.46515 -0.460299,1.12518 -1.278608,1.94349 -0.818308,0.8183 -1.943483,1.2786 -1.114945,0.45007 -2.434468,0.45007 h -3.600557 q -1.319523,0 -2.444697,-0.45007 -1.125175,-0.4603 -1.943483,-1.2786 -0.818309,-0.81831 -1.288836,-1.94349 -0.460299,-1.12517 -0.460299,-2.46515 v -2.80271 q 0,-1.32975 0.460299,-2.45493 0.470527,-1.1354 1.288836,-1.94348 0.818308,-0.81831 1.943483,-1.27861 1.125174,-0.46029 2.444697,-0.46029 h 3.600557 q 1.319523,0 2.434468,0.46029 1.125175,0.4603 1.943483,1.27861 0.818309,0.80808 1.278608,1.94348 0.460298,1.12518 0.460298,2.45493 z m -2.659503,-2.80271 q 0,-0.78762 -0.255721,-1.42181 -0.245493,-0.64442 -0.705791,-1.09449 -0.45007,-0.4603 -1.094488,-0.70579 -0.634189,-0.25572 -1.401354,-0.25572 h -3.600557 q -0.777394,0 -1.421812,0.25572 -0.634189,0.24549 -1.094487,0.70579 -0.460299,0.45007 -0.71602,1.09449 -0.245493,0.63419 -0.245493,1.42181 v 2.80271 q 0,0.78762 0.245493,1.43204 0.255721,0.63419 0.71602,1.09449 0.460298,0.45007 1.094487,0.70579 0.644418,0.24549 1.421812,0.24549 h 3.5801 q 0.777393,0 1.411582,-0.24549 0.644418,-0.25572 1.104717,-0.70579 0.460298,-0.4603 0.705791,-1.09449 0.255721,-0.64442 0.255721,-1.43204 z m 17.245854,8.73544 h -2.659503 v -6.13731 q 0,-0.52167 -0.18412,-0.93083 -0.17389,-0.41938 -0.480756,-0.71602 -0.306866,-0.29663 -0.726249,-0.45007 -0.409154,-0.16366 -0.88991,-0.16366 h -4.65413 v 8.39789 h -2.659503 v -9.73787 q 0,-0.27618 0.102288,-0.51144 0.102289,-0.24549 0.286408,-0.41938 0.18412,-0.18412 0.429612,-0.28641 0.245493,-0.10229 0.521672,-0.10229 h 5.99411 q 0.501214,0 1.053573,0.11252 0.562587,0.11251 1.104716,0.36824 0.552359,0.24549 1.043344,0.63419 0.501214,0.37846 0.879681,0.93082 0.388697,0.54213 0.613732,1.25815 0.225035,0.71602 0.225035,1.61616 z m 4.9507581,-1.33998 q 0,0.27618 -0.1125175,0.52168 -0.1022885,0.23526 -0.286408,0.41938 -0.1738905,0.17389 -0.4193835,0.27618 -0.235263,0.10229 -0.501214,0.10229 -0.276179,0 -0.521671,-0.10229 -0.235264,-0.10229 -0.419384,-0.27618 -0.17389,-0.18412 -0.276179,-0.41938 -0.102288,-0.2455 -0.102288,-0.52168 0,-0.26595 0.102288,-0.50121 0.102289,-0.24549 0.276179,-0.41938 0.18412,-0.18412 0.419384,-0.28641 0.245492,-0.11252 0.521671,-0.11252 0.265951,0 0.501214,0.11252 0.245493,0.10229 0.4193835,0.28641 0.1841195,0.17389 0.286408,0.41938 0.1125175,0.23526 0.1125175,0.50121 z m 0,-8.37743 q 0,0.27618 -0.1125175,0.52167 -0.1022885,0.23527 -0.286408,0.41939 -0.1738905,0.17389 -0.4193835,0.27617 -0.235263,0.10229 -0.501214,0.10229 -0.276179,0 -0.521671,-0.10229 -0.235264,-0.10228 -0.419384,-0.27617 -0.17389,-0.18412 -0.276179,-0.41939 -0.102288,-0.24549 -0.102288,-0.52167 0,-0.26595 0.102288,-0.50121 0.102289,-0.2455 0.276179,-0.41939 0.18412,-0.18412 0.419384,-0.2864 0.245492,-0.11252 0.521671,-0.11252 0.265951,0 0.501214,0.11252 0.245493,0.10228 0.4193835,0.2864 0.1841195,0.17389 0.286408,0.41939 0.1125175,0.23526 0.1125175,0.50121 z"
       id="text303"
       aria-label="Find me On:" />
  </g>
</svg>
